SplineFontDB: 3.0
FontName: Istok-Regular
FullName: Istok Regular
FamilyName: Istok
Weight: Regular
Copyright: (C) 2008-2014 Andrey V. Panov (panov@canopus.iacp.dvo.ru), with Reserved Font Name Istok.
UComments: "2008-10-29: Created."
Version: 1.0.3
ItalicAngle: 0
UnderlinePosition: -204
UnderlineWidth: 102
Ascent: 1548
Descent: 500
InvalidEm: 0
LayerCount: 2
Layer: 0 0 "+BBcEMAQ0BD0EOAQ5 +BD8EOwQwBD0A" 1
Layer: 1 0 "+BB8ENQRABDUENAQ9BDgEOQAA +BD8EOwQwBD0A" 0
XUID: [1021 513 629268104 9940963]
FSType: 0
OS2Version: 0
OS2_WeightWidthSlopeOnly: 0
OS2_UseTypoMetrics: 1
CreationTime: 1225286394
ModificationTime: 1473324400
PfmFamily: 33
TTFWeight: 500
TTFWidth: 5
LineGap: 0
VLineGap: 0
Panose: 2 15 6 3 3 4 3 2 2 4
OS2TypoAscent: 1548
OS2TypoAOffset: 0
OS2TypoDescent: -500
OS2TypoDOffset: 0
OS2TypoLinegap: 410
OS2WinAscent: 1950
OS2WinAOffset: 0
OS2WinDescent: 508
OS2WinDOffset: 0
HheadAscent: 1950
HheadAOffset: 0
HheadDescent: -508
HheadDOffset: 0
OS2FamilyClass: 2048
OS2Vendor: 'PfEd'
Lookup: 258 0 0 "LGC kerning" { "LGC kerning subtable"  } ['kern' ('latn' <'dflt' > 'grek' <'dflt' > 'cyrl' <'dflt' > ) ]
MarkAttachClasses: 1
DEI: 91125
LangName: 1033 "" "" "" "" "" "" "" "" "Andrey V. Panov" "Andrey V. Panov" "" "http://code.google.com/p/istok" "http://code.google.com/u/andrej.panov/" "GNU General Public License with font exception" "http://www.gnu.org/licenses/gpl.html http://www.gnu.org/licenses/gpl-faq.html#FontException"
LangName: 1049 "" "+BBgEQQRCBD4EOgAA" "" "" "" "" "" "" "" "+BBAA. +BBIA. +BB8EMAQ9BD4EMgAA"
Encoding: UnicodeBmp
UnicodeInterp: none
NameList: Adobe Glyph List
DisplaySize: -48
AntiAlias: 1
FitToEm: 1
WinInfo: 8432 16 13
BeginPrivate: 8
BlueValues 47 [-30 0 1050 1067 1422 1423 1434 1464 1476 1493]
OtherBlues 41 [-417 -400 -370 -370 -310 -310 1136 1150]
BlueScale 9 0.0282857
StdHW 5 [130]
StdVW 5 [176]
StemSnapH 25 [120 130 132 156 164 172]
StemSnapV 29 [176 186 192 205 154 166 120]
ForceBold 5 false
EndPrivate
Grid
-2048 1768 m 0

StartChar: dotlessi
Encoding: 305 305 0
Width: 460
Flags: W
HStem: 0 21G<172 288> 1030 20G<172 288>
VStem: 142 176<4.5e-07 1050>
LayerCount: 2
Back
SplineSet
267 -1 m 2
 244 0 l 1
 178 0 l 1
 153.333333333 4 141 20.3333333333 141 49 c 2
 141 988 l 2
 141 1008 145.166666667 1021.83333333 153.5 1029.5 c 128
 161.833333333 1037.16666667 175 1041 193 1041 c 2
 215 1040 l 1
 254 1040 l 1
 272 1041 l 2
 302 1041 317 1024.33333333 317 991 c 2
 317 70 l 1
 318 50 l 2
 318 28 312.333333333 13.3333333333 301 6 c 1
 300.333333333 6 297.166666667 4.83333333333 291.5 2.5 c 128
 285.833333333 0.166677333333 277.666666667 -0.999989333333 267 -1 c 2
EndSplineSet
Fore
SplineSet
187 0 m 2
 157 0 142 15 142 45 c 2
 142 1005 l 2
 142 1035 157 1050 187 1050 c 2
 273 1050 l 2
 303 1050 318 1035 318 1005 c 2
 318 45 l 2
 318 15 303 0 273 0 c 2
 187 0 l 2
EndSplineSet
Validated: 1
EndChar

StartChar: afii10079
Encoding: 1085 1085 1
Width: 1120
Flags: W
HStem: 0 21G<172 288 832 948> 482 132<318 802> 1030 20G<172 288 832 948>
VStem: 142 176<4.5e-07 482 614 1050> 802 176<4.5e-07 482 614 1050>
LayerCount: 2
Back
SplineSet
293 618 m 1
 851 618 l 1
 851 488 l 1
 293 488 l 1
 293 618 l 1
815 1040 m 1
 846 1041 l 2
 850.666666667 1041 858.666666667 1040.66666667 870 1040 c 0
 897.333333333 1040 911 1023 911 989 c 2
 911 66 l 2
 911 50.6666666667 910.333333333 39.6666666667 909 33 c 2
 909 29.5555333333 907.833333333 25.6944333333 905.5 21.4167 c 128
 903.166666667 17.1389 900.333333333 13.5 897 10.5 c 0
 889.222 3.49998789893 876.222 -1.21010666667e-05 858 0 c 2
 809 0 l 2
 782.333333333 0 764.333333333 2.83333333333 755 8.5 c 128
 745.666666667 14.1666666667 741 28.3333333333 741 51 c 2
 741 504 l 1
 313 504 l 1
 313 53 l 2
 313 29.6666666667 308.833333333 15 300.5 9 c 128
 292.166666667 3.00000063578 274 6.35782666667e-07 246 0 c 2
 194 0 l 2
 182.666666667 0 173.333333333 1.5 166 4.5 c 128
 158.666666667 7.5 154.166666667 10.3333333333 152.5 13 c 128
 150.833333333 15.6666666667 150 18 150 20 c 1
 146.666666667 25.3333333333 145 29.6666666667 145 33 c 1
 143.666666667 39.6666666667 143 50.6666666667 143 66 c 2
 143 989 l 2
 143 1023 156.666666667 1040 184 1040 c 1
 188 1040.66666667 193.666666667 1041 201 1041 c 2
 238 1040 l 1
 268 1041 l 2
 281.333333333 1041 291.5 1038.16666667 298.5 1032.5 c 128
 305.5 1026.83333333 309.666666667 1020.66666667 311 1014 c 128
 312.333333333 1007.33333333 313 998.666666667 313 988 c 2
 313 641 l 1
 741 641 l 1
 741 992 l 2
 741 1024.66666667 756 1041 786 1041 c 2
 815 1040 l 1
EndSplineSet
Fore
SplineSet
187 0 m 2
 157 0 142 15 142 45 c 2
 142 1005 l 2
 142 1035 157 1050 187 1050 c 2
 273 1050 l 2
 303 1050 318 1035 318 1005 c 2
 318 614 l 1
 802 614 l 1
 802 1005 l 2
 802 1035 817 1050 847 1050 c 2
 933 1050 l 2
 963 1050 978 1035 978 1005 c 2
 978 45 l 2
 978 15 963 0 933 0 c 2
 847 0 l 2
 817 0 802 15 802 45 c 2
 802 482 l 1
 318 482 l 1
 318 45 l 2
 318 15 303 0 273 0 c 2
 187 0 l 2
EndSplineSet
Validated: 1
EndChar

StartChar: o
Encoding: 111 111 2
Width: 1148
Flags: W
HStem: -17 130<416.93 731.07> 937 130<416.93 731.07>
VStem: 85 186<277.934 772.066> 877 186<277.934 772.066>
LayerCount: 2
Back
SplineSet
860 449 m 1
 862 500 l 1
 862 567 l 2
 862 626.333333333 857.666666667 677.333333333 849 720 c 128
 840.333333333 762.666666667 825.5 800.833333333 804.5 834.5 c 0
 762.292 902.166666667 685.125333333 936 573 936 c 0
 527.666666667 936 487.833333333 930.166666667 453.5 918.5 c 128
 419.166666667 906.833333333 391.666666667 891.833333333 371 873.5 c 128
 350.333333333 855.166666667 333.5 832.166666667 320.5 804.5 c 128
 307.5 776.833333333 298.333333333 749.666666667 293 723 c 128
 287.666666667 696.333333333 284.333333333 666.333333333 283 633 c 2
 281 592 l 1
 281 479 l 2
 282.264 430.949333333 286.097333333 387.282666667 292.5 348 c 0
 296.833333333 323.333333333 305.333333333 295.666666667 318 265 c 128
 330.666666667 234.333333333 346.833333333 209 366.5 189 c 128
 386.166666667 169 413.5 152.166666667 448.5 138.5 c 128
 483.5 124.833333333 523.833333333 118 569.5 118 c 128
 615.166666667 118 654.666666667 124 688 136 c 128
 721.333333333 148 747.833333333 163 767.5 181 c 128
 787.166666667 199 803.666666667 221.833333333 817 249.5 c 128
 830.333333333 277.166666667 839.666666667 302.833333333 845 326.5 c 128
 850.333333333 350.166666667 854.666666667 377.333333333 858 408 c 2
 860 449 l 1
567 1069 m 0
 614.333333333 1069 659.5 1064.16666667 702.5 1054.5 c 128
 745.5 1044.83333333 788.5 1027 831.5 1001 c 128
 874.5 975 911.666666667 942 943 902 c 128
 974.333333333 862 999.666666667 809 1019 743 c 128
 1038.33333333 677 1048 602.5 1048 519.5 c 128
 1048 436.5 1038.16666667 362.833333333 1018.5 298.5 c 128
 998.833333333 234.166666667 973.333333333 182.666666667 942 144 c 128
 910.666666667 105.333333333 873.666666667 73.5 831 48.5 c 128
 788.333333333 23.5 746.333333333 6.33333333333 705 -3 c 128
 663.666666667 -12.3333333333 620 -17 574 -17 c 128
 528 -17 483.5 -12.1666666667 440.5 -2.5 c 128
 397.5 7.16666666667 354.5 24.3333333333 311.5 49 c 128
 268.5 73.6666666667 231.333333333 105.166666667 200 143.5 c 128
 168.666666667 181.833333333 143.333333333 232.333333333 124 295 c 128
 104.666666667 357.666666667 95 429 95 509 c 0
 95 577.666666667 101 640 113 696 c 128
 125 752 140.666666667 799 160 837 c 128
 179.333333333 875 202.666666667 908.5 230 937.5 c 128
 257.333333333 966.5 284.833333333 989 312.5 1005 c 128
 340.166666667 1021 370.166666667 1034.16666667 402.5 1044.5 c 128
 434.833333333 1054.83333333 463.833333333 1061.5 489.5 1064.5 c 128
 515.166666667 1067.5 541 1069 567 1069 c 0
EndSplineSet
Fore
SplineSet
85 525 m 256
 85 681.666666667 126.5 811.166666667 209.5 913.5 c 0
 292.5 1015.83333333 414 1067 574 1067 c 256
 734 1067 855.5 1015.83333333 938.5 913.5 c 0
 1021.5 811.166666667 1063 681.666666667 1063 525 c 256
 1063 368.333333333 1021.5 238.833333333 938.5 136.5 c 0
 855.5 34.1666666667 734 -17 574 -17 c 256
 414 -17 292.5 34.1666666667 209.5 136.5 c 0
 126.5 238.833333333 85 368.333333333 85 525 c 256
271 525 m 256
 271 385 298.666666667 281.333333333 354 214 c 0
 409.333333333 146.666666667 482.666666667 113 574 113 c 256
 665.333333333 113 738.666666667 146.666666667 794 214 c 0
 849.333333333 281.333333333 877 385 877 525 c 256
 877 665 849.333333333 768.666666667 794 836 c 0
 738.666666667 903.333333333 665.333333333 937 574 937 c 256
 482.666666667 937 409.333333333 903.333333333 354 836 c 0
 298.666666667 768.666666667 271 665 271 525 c 256
EndSplineSet
Validated: 524289
EndChar

StartChar: afii10081
Encoding: 1087 1087 3
Width: 1114
Flags: W
HStem: 0 21G<172 288 826 942> 918 132<318 796>
VStem: 142 176<4.5e-07 918> 796 176<4.5e-07 918>
LayerCount: 2
Fore
SplineSet
187 0 m 2
 157 0 142 15 142 45 c 2
 142 1005 l 2
 142 1035 157 1050 187 1050 c 2
 927 1050 l 2
 957 1050 972 1035 972 1005 c 2
 972 45 l 2
 972 15 957 0 927 0 c 2
 841 0 l 2
 811 0 796 15 796 45 c 2
 796 918 l 1
 318 918 l 1
 318 45 l 2
 318 15 303 0 273 0 c 2
 187 0 l 2
EndSplineSet
Validated: 1
EndChar

StartChar: afii10074
Encoding: 1080 1080 4
Width: 1170
Flags: W
HStem: 0 21G<172 327.333 882 998> 1030 20G<172 288 842.667 998>
VStem: 142 176<207 1050> 852 176<4.5e-07 843>
LayerCount: 2
Fore
SplineSet
187 0 m 2
 157 0 142 15 142 45 c 2
 142 1005 l 2
 142 1035 157 1050 187 1050 c 2
 273 1050 l 2
 303 1050 318 1035 318 1005 c 2
 318 267 l 2
 318 247 317.333333333 227 316 207 c 25
 318 207 l 17
 776 1001 l 2
 794.666666667 1033.66666667 823.333333333 1050 862 1050 c 2
 983 1050 l 2
 1013 1050 1028 1035 1028 1005 c 2
 1028 45 l 2
 1028 15 1013 0 983 0 c 2
 897 0 l 2
 867 0 852 15 852 45 c 2
 852 783 l 2
 852 803 852.666666667 823 854 843 c 9
 852 843 l 17
 394 49 l 2
 375.333333333 16.3333333333 346.666666667 0 308 0 c 2
 187 0 l 2
EndSplineSet
Validated: 524289
EndChar

StartChar: afii10088
Encoding: 1094 1094 5
Width: 1188
Flags: W
HStem: -310 21G<1004.67 1105.33> 0 132<318 790 966 978> 1030 20G<172 288 820 936>
VStem: 142 176<132 1050> 790 176<132 1050> 978 154<-310 0>
LayerCount: 2
Back
SplineSet
1026 -332 m 1
 972 -332 l 2
 936 -332 918 -317.666666667 918 -289 c 2
 918 0 l 1
 200 0 l 2
 188.666666667 0 179.5 0.666666666667 172.5 2 c 128
 165.5 3.33333333333 158.833333333 7.83333333333 152.5 15.5 c 128
 146.166666667 23.1666666667 143 33.6666666667 143 47 c 2
 143 991 l 2
 143 1001 144.166666667 1009.33333333 146.5 1016 c 128
 148.833333333 1022.66666667 151.666666667 1027.66666667 155 1031 c 128
 158.333333333 1034.33333333 164.5 1036.83333333 173.5 1038.5 c 128
 182.5 1040.16666667 190.333333333 1041.16666667 197 1041.5 c 128
 203.666666667 1041.83333333 215 1042 231 1042 c 0
 265 1042 287.166666667 1039.16666667 297.5 1033.5 c 128
 307.833333333 1027.83333333 313 1012.33333333 313 987 c 2
 313 133 l 1
 774 133 l 1
 774 979 l 2
 774 1007 778.5 1024.5 787.5 1031.5 c 128
 796.5 1038.5 812.666666667 1042 836 1042 c 2
 877 1042 l 2
 890.333333333 1042 899.666666667 1041.33333333 905 1040 c 1
 932.333333333 1040 946 1021.66666667 946 985 c 2
 946 133 l 1
 1014 133 l 2
 1024.66666667 131.666666667 1031.83333333 130.5 1035.5 129.5 c 128
 1039.16666667 128.5 1043.5 126.333333333 1048.5 123 c 128
 1053.5 119.666666667 1056.5 115 1057.5 109 c 128
 1058.5 103 1059 94.6666666667 1059 84 c 2
 1059 -281 l 2
 1059 -291 1058.5 -298.666666667 1057.5 -304 c 128
 1056.5 -309.333333333 1053.5 -314.833333333 1048.5 -320.5 c 128
 1043.5 -326.166666667 1036 -330 1026 -332 c 1
EndSplineSet
Fore
SplineSet
187 0 m 2
 157 0 142 15 142 45 c 2
 142 1005 l 2
 142 1035 157 1050 187 1050 c 2
 273 1050 l 2
 303 1050 318 1035 318 1005 c 2
 318 132 l 1
 790 132 l 1
 790 1005 l 2
 790 1035 805 1050 835 1050 c 2
 921 1050 l 2
 951 1050 966 1035 966 1005 c 2
 966 132 l 5
 1087 132 l 6
 1117 132 1132 117 1132 87 c 6
 1132 -265 l 6
 1132 -295 1118.66666667 -310 1092 -310 c 6
 1018 -310 l 6
 991.333333333 -310 978 -295 978 -265 c 6
 978 0 l 5
 187 0 l 2
EndSplineSet
Validated: 524289
EndChar

StartChar: afii10077
Encoding: 1083 1083 7
Width: 1136
Flags: W
HStem: -17 136<51.5312 218.007> 0 21G<848 964> 918 132<475 818>
VStem: 321 154<278.36 918> 818 176<4.5e-07 918>
LayerCount: 2
Back
SplineSet
137 137 m 2
 167 137 192.5 147.166666667 213.5 167.5 c 128
 234.5 187.833333333 253.5 223.666666667 270.5 275 c 0
 304.833333333 378.673333333 322 571.673333333 322 854 c 2
 322 977 l 2
 322 992.333333333 323.333333333 1004.66666667 326 1014 c 128
 328.666666667 1023.33333333 331.5 1029.16666667 334.5 1031.5 c 128
 337.5 1033.83333333 341 1035.66666667 345 1037 c 128
 349 1038.33333333 351.333333333 1039.33333333 352 1040 c 1
 889 1040 l 2
 911 1040 925.333333333 1036.16666667 932 1028.5 c 128
 938.666666667 1020.83333333 942 1005 942 981 c 2
 942 80 l 2
 942 63.3333333333 941.333333333 50.3333333333 940 41 c 1
 940 29 936.666666667 19.8333333333 930 13.5 c 128
 923.333333333 7.16666666667 916.5 3.33333333333 909.5 2 c 128
 902.5 0.666666746139 893 7.94726666667e-08 881 0 c 2
 811 0 l 1
 799 2 789.833333333 6.16666666667 783.5 12.5 c 128
 777.166666667 18.8333333333 773.333333333 25.1666666667 772 31.5 c 128
 770.666666667 37.8333333333 770 46.3333333333 770 57 c 2
 770 909 l 1
 465 909 l 1
 465 795 462.166666667 693 456.5 603 c 128
 450.833333333 513 443.166666667 436.333333333 433.5 373 c 128
 423.833333333 309.666666667 411 255.333333333 395 210 c 128
 379 164.666666667 362.333333333 128.5 345 101.5 c 128
 327.666666667 74.5 306.833333333 53.3333333333 282.5 38 c 128
 258.166666667 22.6666666667 234.5 12.5 211.5 7.5 c 128
 188.5 2.5 161.666666667 0 131 0 c 2
 84 0 l 2
 55.3333333333 0 41 11.6666666667 41 35 c 2
 41 106 l 1
 44.3333333333 126.666666667 56 137 76 137 c 2
 137 137 l 2
EndSplineSet
Fore
SplineSet
57 -8 m 256xb8
 42.3333333333 -2 36.6666666667 8 40 22 c 2
 58 105 l 2
 60.6666666667 117.666666667 69.3333333333 122.333333333 84 119 c 256xb8
 99.3333333333 115 112.666666667 113 124 113 c 256
 184 113 231.833333333 158.833333333 267.5 250.5 c 0
 303.166666667 342.166666667 321 512.666666667 321 762 c 2
 321 1005 l 2
 321 1035 342 1050 384 1050 c 2
 949 1050 l 2
 979 1050 994 1035 994 1005 c 2
 994 45 l 2
 994 15 979 0 949 0 c 2
 863 0 l 2x78
 833 0 818 15 818 45 c 2
 818 918 l 1
 475 918 l 1
 475 711 l 2
 475 464.333333333 448.166666667 281.333333333 394.5 162 c 0
 340.833333333 42.6666666667 258 -17 146 -17 c 256
 100.666666667 -17 71 -14 57 -8 c 256xb8
EndSplineSet
Validated: 8912897
EndChar

StartChar: p
Encoding: 112 112 8
Width: 1119
Flags: W
HStem: -400 21G<172 288> -17 130<430.682 722.215> 937 130<430.682 722.215> 1030 20G<172 282.875>
VStem: 142 176<-400 125 222.317 827.683 925 1049.96> 848 186<266.624 783.376>
LayerCount: 2
Back
SplineSet
187 0 m 2
 157 0 142 15 142 45 c 2
 142 995 l 2
 142 1025 157 1040 187 1040 c 2
 271 1040 l 2
 301 1040 316 1025 316 995 c 2
 316 915 l 1
 320 915 l 1
 363.333333333 963 410 998.666666667 460 1022 c 128
 510 1045.33333333 572.333333333 1057 647 1057 c 256
 768.333333333 1057 855.5 1022.83333333 908.5 954.5 c 128
 961.5 886.166666667 988 792.666666667 988 674 c 2
 988 45 l 2
 988 15 973 0 943 0 c 2
 857 0 l 2
 827 0 812 15 812 45 c 2
 812 626 l 2
 812 756.666666667 790.333333333 839.5 747 874.5 c 128
 703.666666667 909.5 648.666666667 927 582 927 c 256
 495.333333333 927 429.666666667 901.166666667 385 849.5 c 128
 340.333333333 797.833333333 318 709.333333333 318 584 c 2
 318 45 l 2
 318 15 303 0 273 0 c 2
 187 0 l 2
EndSplineSet
Fore
SplineSet
187 -400 m 2xec
 157 -400 142 -385 142 -355 c 2
 142 1005 l 2
 142 1035 157 1050 187 1050 c 2
 271 1050 l 2xdc
 294.75 1050 307.75 1035 310 1005 c 2
 316 925 l 1
 318 925 l 1
 354.666666667 969 396 1003.66666667 442 1029 c 0
 488 1054.33333333 549.333333333 1067 626 1067 c 256
 759.333333333 1067 860.666666667 1012.5 930 903.5 c 0
 999.333333333 794.5 1034 668.333333333 1034 525 c 256
 1034 381.666666667 999.333333333 255.5 930 146.5 c 0
 860.666666667 37.5 759.333333333 -17 626 -17 c 256
 549.333333333 -17 488 -4.33333333333 442 21 c 0
 396 46.3333333333 354.666666667 81 318 125 c 1
 316 125 l 1
 317.333333333 105 318 84.6666666667 318 64 c 2
 318 -355 l 2
 318 -385 303 -400 273 -400 c 2
 187 -400 l 2xec
318 410 m 2
 318 310 341.833333333 235.5 389.5 186.5 c 0
 437.166666667 137.5 497 113 569 113 c 256
 670.333333333 113 742.166666667 151 784.5 227 c 0
 826.833333333 303 848 402.333333333 848 525 c 256
 848 647.666666667 826.833333333 747 784.5 823 c 0
 742.166666667 899 670.333333333 937 569 937 c 256xec
 497 937 437.166666667 912.5 389.5 863.5 c 0
 341.833333333 814.5 318 740 318 640 c 2
 318 410 l 2
EndSplineSet
Validated: 8912897
EndChar

StartChar: afii10086
Encoding: 1092 1092 12
Width: 1638
Flags: W
HStem: -400 21G<761 877> -17 130<391.422 639.228 998.772 1246.58> 937 130<391.422 639.228 998.772 1246.58> 1420 20G<761 877>
VStem: 85 186<270.91 779.09> 731 176<-400 125 211.214 838.786 925 1440> 1367 186<270.91 779.09>
CounterMasks: 1 0e
LayerCount: 2
Fore
SplineSet
85 525 m 256
 85 673.666666667 122.166666667 801.166666667 196.5 907.5 c 0
 270.833333333 1013.83333333 361.333333333 1067 468 1067 c 256
 538 1067 591.5 1054.83333333 628.5 1030.5 c 0
 665.5 1006.16666667 699.666666667 971 731 925 c 1
 733 925 l 1
 731.666666667 945 731 965 731 985 c 2
 731 1395 l 2
 731 1425 746 1440 776 1440 c 2
 862 1440 l 2
 892 1440 907 1425 907 1395 c 2
 907 985 l 2
 907 965 906.333333333 945 905 925 c 1
 907 925 l 1
 938.333333333 971 972.5 1006.16666667 1009.5 1030.5 c 0
 1046.5 1054.83333333 1100 1067 1170 1067 c 256
 1276.66666667 1067 1367.16666667 1013.83333333 1441.5 907.5 c 0
 1515.83333333 801.166666667 1553 673.666666667 1553 525 c 256
 1553 376.333333333 1515.83333333 248.833333333 1441.5 142.5 c 0
 1367.16666667 36.1666666667 1276.66666667 -17 1170 -17 c 256
 1100 -17 1046.5 -4.83333333333 1009.5 19.5 c 0
 972.5 43.8333333333 938.333333333 79 907 125 c 1
 905 125 l 1
 906.333333333 105 907 85 907 65 c 2
 907 -355 l 2
 907 -385 892 -400 862 -400 c 2
 776 -400 l 2
 746 -400 731 -385 731 -355 c 2
 731 65 l 2
 731 85 731.666666667 105 733 125 c 1
 731 125 l 1
 699.666666667 79 665.5 43.8333333333 628.5 19.5 c 0
 591.5 -4.83333333333 538 -17 468 -17 c 256
 361.333333333 -17 270.833333333 36.1666666667 196.5 142.5 c 0
 122.166666667 248.833333333 85 376.333333333 85 525 c 256
271 525 m 256
 271 405 291.666666667 306.333333333 333 229 c 0
 374.333333333 151.666666667 438.333333333 113 525 113 c 256
 578.333333333 113 626 137.5 668 186.5 c 0
 710 235.5 731 308.333333333 731 405 c 10
 731 645 l 18
 731 741.666666667 710 814.5 668 863.5 c 0
 626 912.5 578.333333333 937 525 937 c 256
 438.333333333 937 374.333333333 898.333333333 333 821 c 0
 291.666666667 743.666666667 271 645 271 525 c 256
907 405 m 18
 907 308.333333333 928 235.5 970 186.5 c 0
 1012 137.5 1059.66666667 113 1113 113 c 256
 1199.66666667 113 1263.66666667 151.666666667 1305 229 c 0
 1346.33333333 306.333333333 1367 405 1367 525 c 256
 1367 645 1346.33333333 743.666666667 1305 821 c 0
 1263.66666667 898.333333333 1199.66666667 937 1113 937 c 256
 1059.66666667 937 1012 912.5 970 863.5 c 0
 928 814.5 907 741.666666667 907 645 c 10
 907 405 l 18
EndSplineSet
Validated: 524289
EndChar

StartChar: afii10094
Encoding: 1100 1100 13
Width: 1017
Flags: W
HStem: 0 131<318 708.434> 488 130<318 708.434> 1030 20G<172 288>
VStem: 142 176<131 488 618 1050> 756 186<177.723 442.195>
LayerCount: 2
Fore
SplineSet
187 0 m 2
 157 0 142 15 142 45 c 2
 142 1005 l 2
 142 1035 157 1050 187 1050 c 2
 273 1050 l 2
 303 1050 318 1035 318 1005 c 2
 318 618 l 1
 540 618 l 2
 693.333333333 618 798.666666667 589.833333333 856 533.5 c 0
 913.333333333 477.166666667 942 402.333333333 942 309 c 256
 942 215.666666667 913.333333333 140.833333333 856 84.5 c 0
 798.666666667 28.1666666667 693.333333333 0 540 0 c 2
 187 0 l 2
318 131 m 1
 494 131 l 2
 587.333333333 131 654.333333333 142.333333333 695 165 c 0
 735.666666667 187.666666667 756 235.666666667 756 309 c 260
 756 382.333333333 735.666666667 430.5 695 453.5 c 0
 654.333333333 476.5 587.333333333 488 494 488 c 2
 318 488 l 1
 318 131 l 1
EndSplineSet
Validated: 524289
EndChar

StartChar: x
Encoding: 120 120 14
Width: 974
Flags: HMW
HStem: 0 21G<42.5 192 780 929.5> 1030 20G<80.5 230 740.5 891.5>
DStem2: 50 59 227 26 0.562779 0.826608<10.6736 552.87 755.388 1229.5> 265 1024 88 991 0.562779 -0.826608<-61.6601 412.034 614.552 1156.75>
LayerCount: 2
Back
SplineSet
209 0 m 29
 924 1050 l 1053
9 0 m 29
 724 1050 l 1053
248 1050 m 29
 963 0 l 1053
48 1050 m 29
 763 0 l 1053
EndSplineSet
Fore
SplineSet
76 0 m 2
 31.3333333333 0 22.6666666667 19.6666666667 50 59 c 2
 391 553 l 1
 88 991 l 2
 60.6666666667 1030.33333333 69.3333333333 1050 114 1050 c 2
 212 1050 l 2
 236 1050 253.666666667 1041.33333333 265 1024 c 2
 486 676 l 1
 706 1024 l 2
 716.666666667 1041.33333333 734.333333333 1050 759 1050 c 2
 858 1050 l 2
 902.666666667 1050 911.333333333 1030.33333333 884 991 c 2
 581 553 l 1
 922 59 l 2
 949.333333333 19.6666666667 940.666666667 0 896 0 c 2
 798 0 l 2
 774 0 756.333333333 8.66666666667 745 26 c 2
 486 431 l 1
 227 26 l 2
 215.666666667 8.66666666667 198 0 174 0 c 2
 76 0 l 2
EndSplineSet
Validated: 524321
EndChar

StartChar: c
Encoding: 99 99 15
Width: 1026
Flags: W
HStem: -17 130<406.241 730.142> 937 130<406.241 731.735>
VStem: 85 186<268.095 781.905>
LayerCount: 2
Back
SplineSet
85 525 m 256
 85 681.666666667 126.5 811.166666667 209.5 913.5 c 128
 292.5 1015.83333333 414 1067 574 1067 c 256
 734 1067 855.5 1015.83333333 938.5 913.5 c 128
 1021.5 811.166666667 1063 681.666666667 1063 525 c 256
 1063 368.333333333 1021.5 238.833333333 938.5 136.5 c 128
 855.5 34.1666666667 734 -17 574 -17 c 256
 414 -17 292.5 34.1666666667 209.5 136.5 c 128
 126.5 238.833333333 85 368.333333333 85 525 c 256
271 525 m 256
 271 385 298.666666667 281.333333333 354 214 c 128
 409.333333333 146.666666667 482.666666667 113 574 113 c 256
 665.333333333 113 738.666666667 146.666666667 794 214 c 128
 849.333333333 281.333333333 877 385 877 525 c 256
 877 665 849.333333333 768.666666667 794 836 c 128
 738.666666667 903.333333333 665.333333333 937 574 937 c 256
 482.666666667 937 409.333333333 903.333333333 354 836 c 128
 298.666666667 768.666666667 271 665 271 525 c 256
EndSplineSet
Fore
SplineSet
85 525 m 256
 85 681.666666667 123.833333333 811.166666667 201.5 913.5 c 0
 279.166666667 1015.83333333 398 1067 558 1067 c 256
 666 1067 748.5 1047.83333333 805.5 1009.5 c 0
 862.5 971.166666667 903.666666667 932 929 892 c 256
 943.31 869.884666667 940.31 852.218 920 839 c 282
 857 798 l 273
 837 784 817 793 797 825 c 256
 777.666666667 855.666666667 750.5 882 715.5 904 c 0
 680.5 926 628 937 558 937 c 256
 466.666666667 937 396 903.333333333 346 836 c 0
 296 768.666666667 271 665 271 525 c 256
 271 385 296 281.333333333 346 214 c 0
 396 146.666666667 466.666666667 113 558 113 c 256
 632 113 688.666666667 127.166666667 728 155.5 c 0
 767.333333333 183.833333333 796 214.666666667 814 248 c 256
 831.250666667 279.184 850.917333333 288.184 873 275 c 266
 940 235 l 282
 960.026 223.044 963.026 205.044 949 181 c 256
 932.333333333 152.333333333 894.5 112.166666667 835.5 60.5 c 0
 776.5 8.83333333333 684 -17 558 -17 c 256
 398 -17 279.166666667 34.1666666667 201.5 136.5 c 0
 123.833333333 238.833333333 85 368.333333333 85 525 c 256
EndSplineSet
Validated: 524321
EndChar

StartChar: afii10068
Encoding: 1075 1075 16
Width: 868
Flags: W
HStem: 0 21G<172 288> 918 132<318 836>
VStem: 142 176<4.5e-07 918>
LayerCount: 2
Back
SplineSet
319 70 m 1
 320 58 l 2
 320 33.3333333333 315.666666667 17.5 307 10.5 c 128
 298.333333333 3.5 282.666666667 0 260 0 c 2
 176 0 l 1
 167.333333333 1.33333333333 160.333333333 3.66666666667 155 7 c 128
 149.666666667 10.3333333333 145.833333333 15.6666666667 143.5 23 c 128
 141.166666667 30.3333333333 139.833333333 36.6666666667 139.5 42 c 128
 139.166666667 47.3333333333 139 55.3333333333 139 66 c 2
 139 979 l 2
 139 991.666666667 139.5 1001.33333333 140.5 1008 c 128
 141.5 1014.66666667 144.833333333 1021.33333333 150.5 1028 c 128
 156.166666667 1034.66666667 164.666666667 1038.66666667 176 1040 c 2
 750 1040 l 2
 770 1040 782.833333333 1035.83333333 788.5 1027.5 c 128
 794.166666667 1019.16666667 797 1005 797 985 c 2
 797 971 l 2
 797 933.666666667 787.333333333 915 768 915 c 1
 764 912.333333333 756.333333333 911 745 911 c 2
 319 911 l 1
 319 70 l 1
EndSplineSet
Fore
SplineSet
187 0 m 2
 157 0 142 15 142 45 c 2
 142 1005 l 2
 142 1035 157 1050 187 1050 c 2
 791 1050 l 2
 821 1050 836 1038.33333333 836 1015 c 2
 836 953 l 2
 836 929.666666667 821 918 791 918 c 2
 318 918 l 1
 318 45 l 2
 318 15 303 0 273 0 c 2
 187 0 l 2
EndSplineSet
Validated: 524289
EndChar

StartChar: afii10084
Encoding: 1090 1090 17
Width: 960
Flags: W
HStem: 0 21G<422 538> 915 135<32 392 568 928>
VStem: 392 176<4.5e-07 915>
LayerCount: 2
Fore
SplineSet
77 915 m 2
 47 915 32 926.666666667 32 950 c 2
 32 1015 l 2
 32 1038.33333333 47 1050 77 1050 c 2
 883 1050 l 2
 913 1050 928 1038.33333333 928 1015 c 2
 928 950 l 2
 928 926.666666667 913 915 883 915 c 2
 568 915 l 1
 568 45 l 2
 568 15 553 0 523 0 c 2
 437 0 l 2
 407 0 392 15 392 45 c 2
 392 915 l 1
 77 915 l 2
EndSplineSet
Validated: 524289
EndChar

StartChar: n
Encoding: 110 110 18
Width: 1128
Flags: W
HStem: 0 21G<172 288 842 958> 937 130<441.349 736.543> 1030 20G<172 286>
VStem: 142 176<4.5e-07 826.553 925 1049.96> 812 176<4.5e-07 860.361>
LayerCount: 2
Fore
SplineSet
187 0 m 2xd8
 157 0 142 15 142 45 c 2
 142 1005 l 2
 142 1035 157 1050 187 1050 c 2
 271 1050 l 2xb8
 301 1050 316 1035 316 1005 c 2
 316 925 l 1
 320 925 l 1
 363.333333333 973 410 1008.66666667 460 1032 c 0
 510 1055.33333333 572.333333333 1067 647 1067 c 256
 768.333333333 1067 855.5 1032.83333333 908.5 964.5 c 0
 961.5 896.166666667 988 802.666666667 988 684 c 2
 988 45 l 2
 988 15 973 0 943 0 c 2
 857 0 l 2
 827 0 812 15 812 45 c 2
 812 636 l 2
 812 766.666666667 790.333333333 849.5 747 884.5 c 0
 703.666666667 919.5 648.666666667 937 582 937 c 256
 495.333333333 937 429.666666667 911.166666667 385 859.5 c 0
 340.333333333 807.833333333 318 719.333333333 318 594 c 2
 318 45 l 2
 318 15 303 0 273 0 c 2
 187 0 l 2xd8
EndSplineSet
Validated: 8912897
EndChar

StartChar: afii10090
Encoding: 1096 1096 19
Width: 1672
Flags: W
HStem: 0 132<318 748 924 1354> 1030 20G<172 288 778 894 1384 1500>
VStem: 142 176<132 1050> 748 176<132 1050> 1354 176<132 1050>
CounterMasks: 1 38
LayerCount: 2
Fore
SplineSet
187 0 m 6
 157 0 142 15 142 45 c 6
 142 1005 l 6
 142 1035 157 1050 187 1050 c 6
 273 1050 l 6
 303 1050 318 1035 318 1005 c 6
 318 132 l 5
 748 132 l 5
 748 1005 l 6
 748 1035 763 1050 793 1050 c 6
 879 1050 l 6
 909 1050 924 1035 924 1005 c 6
 924 132 l 5
 1354 132 l 5
 1354 1005 l 6
 1354 1035 1369 1050 1399 1050 c 6
 1485 1050 l 6
 1515 1050 1530 1035 1530 1005 c 6
 1530 45 l 6
 1530 15 1515 0 1485 0 c 6
 187 0 l 6
EndSplineSet
Validated: 1
EndChar

StartChar: afii10091
Encoding: 1097 1097 20
Width: 1752
Flags: W
HStem: -310 21G<1568.67 1669.33> 0 132<318 748 924 1354 1530 1542> 1030 20G<172 288 778 894 1384 1500>
VStem: 142 176<132 1050> 748 176<132 1050> 1354 176<132 1050> 1542 154<-310 0>
LayerCount: 2
Fore
SplineSet
187 0 m 2
 157 0 142 15 142 45 c 2
 142 1005 l 2
 142 1035 157 1050 187 1050 c 2
 273 1050 l 2
 303 1050 318 1035 318 1005 c 2
 318 132 l 1
 748 132 l 1
 748 1005 l 2
 748 1035 763 1050 793 1050 c 2
 879 1050 l 2
 909 1050 924 1035 924 1005 c 2
 924 132 l 1
 1354 132 l 1
 1354 1005 l 2
 1354 1035 1369 1050 1399 1050 c 2
 1485 1050 l 2
 1515 1050 1530 1035 1530 1005 c 2
 1530 132 l 1
 1651 132 l 2
 1681 132 1696 117 1696 87 c 2
 1696 -265 l 2
 1696 -295 1682.66666667 -310 1656 -310 c 2
 1582 -310 l 2
 1555.33333333 -310 1542 -295 1542 -265 c 2
 1542 0 l 1
 187 0 l 2
EndSplineSet
Validated: 524289
EndChar

StartChar: afii10069
Encoding: 1076 1076 21
Width: 1210
Flags: W
HStem: -310 442<44 191.852 1000 1154> 0 132<329 814 990 1000> 918 132<471 814>
VStem: 44 154<-310 0> 317 154<359.957 918> 814 176<132 918> 1000 154<-310 0>
LayerCount: 2
Back
SplineSet
53 -8 m 256
 38.3333333333 -2 32.6666666667 8 36 22 c 2
 54 105 l 2
 56.6666666667 117.666666667 65.3333333333 122.333333333 80 119 c 256
 95.3333333333 115 108.666666667 113 120 113 c 256
 180 113 227.833333333 158.833333333 263.5 250.5 c 128
 299.166666667 342.166666667 317 512.666666667 317 762 c 2
 317 995 l 2
 317 1025 338 1040 380 1040 c 2
 945 1040 l 2
 975 1040 990 1025 990 995 c 2
 990 45 l 2
 990 15 975 0 945 0 c 2
 859 0 l 2
 829 0 814 15 814 45 c 2
 814 910 l 1
 467 910 l 1
 467 711 l 2
 467 465.666666667 439.166666667 283 383.5 163 c 128
 327.833333333 43 247.333333333 -17 142 -17 c 256
 96.6666666667 -17 67 -14 53 -8 c 256
EndSplineSet
Fore
SplineSet
84 -310 m 2xbe
 57.3333333333 -310 44 -295 44 -265 c 2
 44 87 l 2
 44 117 59 132 89 132 c 2
 153 132 l 1xbe
 221.666666667 196 266.166666667 296.333333333 286.5 433 c 0
 306.833333333 569.666666667 317 683.666666667 317 775 c 2
 317 1005 l 2
 317 1035 338 1050 380 1050 c 2
 945 1050 l 2
 975 1050 990 1035 990 1005 c 2
 990 132 l 1x7e
 1109 132 l 2
 1139 132 1154 117 1154 87 c 2
 1154 -265 l 2
 1154 -295 1140.66666667 -310 1114 -310 c 2
 1040 -310 l 2xbe
 1013.33333333 -310 1000 -295 1000 -265 c 2
 1000 0 l 1
 198 0 l 1x7e
 198 -265 l 2
 198 -295 184.666666667 -310 158 -310 c 2
 84 -310 l 2xbe
329 132 m 1x7e
 814 132 l 1
 814 918 l 1
 471 918 l 1
 471 720 l 2
 471 545.333333333 455.166666667 409 423.5 311 c 0
 391.833333333 213 360.333333333 153.333333333 329 132 c 1x7e
EndSplineSet
Validated: 8912897
EndChar

StartChar: afii10089
Encoding: 1095 1095 23
Width: 1060
Flags: W
HStem: 0 21G<772 888> 413 130<315.88 722.04> 1030 20G<134 250 772 888>
VStem: 104 176<581.25 1050> 742 176<4.5e-07 469 573.5 1050>
LayerCount: 2
Back
SplineSet
195 1041 m 2
 217 1040 l 1
 258 1040 l 2
 278 1040 292.166666667 1037 300.5 1031 c 128
 308.833333333 1025 313 1011.66666667 313 991 c 2
 313 727 l 2
 313 700.333333333 314.5 678.833333333 317.5 662.5 c 128
 320.5 646.166666667 326.666666667 630 336 614 c 128
 345.333333333 598 360.5 586.166666667 381.5 578.5 c 128
 402.5 570.833333333 429.666666667 567 463 567 c 2
 774 567 l 1
 774 991 l 2
 774 991.666666667 774.5 994.833333333 775.5 1000.5 c 128
 776.5 1006.16666667 777.666666667 1010.66666667 779 1014 c 128
 780.333333333 1017.33333333 782.333333333 1021.5 785 1026.5 c 0
 790.155333333 1036.16666667 801.488666667 1041 819 1041 c 2
 844 1040 l 1
 893 1040 l 2
 915.666666667 1040 930.166666667 1035.33333333 936.5 1026 c 128
 942.833333333 1016.66666667 946 999.666666667 946 975 c 2
 946 51 l 1
 942.666666667 30.3333333333 938.333333333 17 933 11 c 0
 925.666666667 3.66666666667 915 0 901 0 c 2
 848 0 l 2
 815.333333333 0 794.833333333 3.83333333333 786.5 11.5 c 128
 778.166666667 19.1666666667 774 40 774 74 c 2
 774 432 l 1
 467 432 l 2
 434.333333333 432 410.333333333 432.666666667 395 434 c 0
 326.333333333 445.333333333 267.166666667 475.166666667 217.5 523.5 c 128
 167.833333333 571.833333333 143 635.666666667 143 715 c 2
 143 987 l 2
 143 1022.33333333 156.666666667 1040 184 1040 c 1
 186.666666667 1040.66666667 190.333333333 1041 195 1041 c 2
EndSplineSet
Fore
SplineSet
104 706 m 2
 104 1005 l 2
 104 1035 119 1050 149 1050 c 2
 235 1050 l 2
 265 1050 280 1035 280 1005 c 2
 280 734 l 2
 280 651.333333333 296 598.833333333 328 576.5 c 0
 360 554.166666667 402 543 454 543 c 256
 526 543 586.166666667 547 634.5 555 c 0
 682.833333333 563 718.666666667 579.666666667 742 605 c 9
 742 1005 l 2
 742 1035 757 1050 787 1050 c 2
 873 1050 l 2
 903 1050 918 1035 918 1005 c 2
 918 45 l 2
 918 15 903 0 873 0 c 2
 787 0 l 2
 757 0 742 15 742 45 c 2
 742 409 l 1
 743 439 743 439 744 469 c 1
 740 469 l 1
 724 452.333333333 682.833333333 438.833333333 616.5 428.5 c 0
 550.166666667 418.166666667 487.666666667 413 429 413 c 256
 327.666666667 413 248.166666667 438.333333333 190.5 489 c 0
 132.833333333 539.666666667 104 612 104 706 c 2
EndSplineSet
Validated: 524289
EndChar

StartChar: a
Encoding: 97 97 24
Width: 1067
Flags: W
HStem: -17 135<304.799 644.181> 0 21G<777 895> 507 131<436.166 749> 937 130<342.556 684.38>
VStem: 85 182<166.526 386.552> 749 176<4.5e-07 94 178.319 507 638 870.624>
LayerCount: 2
Back
SplineSet
85 280 m 256
 85 398.666666667 140.5 485.666666667 251.5 541 c 128
 362.5 596.333333333 528.333333333 628.666666667 749 638 c 1
 749 706 l 2
 749 768.666666667 734.833333333 822.833333333 706.5 868.5 c 128
 678.166666667 914.166666667 622 937 538 937 c 256
 473.333333333 937 418.5 927.666666667 373.5 909 c 128
 328.5 890.333333333 286.333333333 859 247 815 c 0
 229 795 212 794 196 812 c 2
 144 872 l 2
 129.333333333 888.666666667 134.333333333 908.666666667 159 932 c 0
 213.666666667 984 277.666666667 1019.5 351 1038.5 c 128
 424.333333333 1057.5 486.666666667 1067 538 1067 c 256
 677.333333333 1067 776.666666667 1031.16666667 836 959.5 c 128
 895.333333333 887.833333333 925 789.666666667 925 665 c 2
 925 45 l 2
 925 15 910 0 880 0 c 2
 790 0 l 2
 764 0 751 15 751 45 c 2
 751 94 l 1
 749 94 l 1
 696.333333333 52.6666666667 644.833333333 23.8333333333 594.5 7.5 c 128
 544.166666667 -8.83333333333 488 -17 426 -17 c 256
 316.666666667 -17 232.5 9.16666666667 173.5 61.5 c 128
 114.5 113.833333333 85 186.666666667 85 280 c 256
267 286 m 256
 267 220.666666667 282.5 176.333333333 313.5 153 c 128
 344.5 129.666666667 393.666666667 118 461 118 c 256
 512.333333333 118 561 123 607 133 c 128
 653 143 700.333333333 169.333333333 749 212 c 9
 749 507 l 1
 521.666666667 489.666666667 384.5 459.833333333 337.5 417.5 c 128
 290.5 375.166666667 267 331.333333333 267 286 c 256
EndSplineSet
Fore
SplineSet
85 280 m 256xbc
 85 398.666666667 140.5 485.666666667 251.5 541 c 0
 362.5 596.333333333 528.333333333 628.666666667 749 638 c 1
 749 706 l 2
 749 768.666666667 734.833333333 822.833333333 706.5 868.5 c 0
 678.166666667 914.166666667 622 937 538 937 c 256
 484.666666667 937 442 931.833333333 410 921.5 c 0
 378 911.166666667 348.833333333 897.5 322.5 880.5 c 0
 296.166666667 863.5 271 841.666666667 247 815 c 0
 229 795 212 794 196 812 c 2
 144 872 l 2
 129.333333333 888.666666667 134.333333333 908.666666667 159 932 c 0
 194.333333333 965.333333333 228.666666667 990.333333333 262 1007 c 0
 295.333333333 1023.66666667 336.833333333 1037.83333333 386.5 1049.5 c 0
 436.166666667 1061.16666667 486.666666667 1067 538 1067 c 256
 677.333333333 1067 776.666666667 1031.16666667 836 959.5 c 0
 895.333333333 887.833333333 925 789.666666667 925 665 c 2
 925 45 l 2
 925 15 910 0 880 0 c 2
 790 0 l 2x7c
 764 0 751 15 751 45 c 2
 751 94 l 1
 749 94 l 1
 696.333333333 52.6666666667 644.833333333 23.8333333333 594.5 7.5 c 0
 544.166666667 -8.83333333333 488 -17 426 -17 c 256
 316.666666667 -17 232.5 9.16666666667 173.5 61.5 c 0
 114.5 113.833333333 85 186.666666667 85 280 c 256xbc
267 276 m 256
 267 234.666666667 275.666666667 201.5 293 176.5 c 0
 310.333333333 151.5 334.333333333 135.5 365 128.5 c 0
 395.666666667 121.5 427.666666667 118 461 118 c 256xbc
 512.333333333 118 561 123 607 133 c 0
 653 143 700.333333333 169.333333333 749 212 c 9
 749 507 l 1
 614.333333333 497 518.333333333 484.833333333 461 470.5 c 0
 403.666666667 456.166666667 357 431.5 321 396.5 c 0
 285 361.5 267 321.333333333 267 276 c 256
EndSplineSet
Validated: 8912897
EndChar

StartChar: afii10067
Encoding: 1074 1074 26
Width: 1062
Flags: W
HStem: 0 131<318 732.512> 474 131<318 681.641> 920 130<318 693.984>
VStem: 142 176<131 474 605 920> 736 176<656.578 877.363> 776 186<172.325 420.703>
LayerCount: 2
Back
SplineSet
283 1040 m 1
 510 1040 l 2
 663.333333333 1040 768.666666667 1016.16666667 826 968.5 c 128
 883.333333333 920.833333333 912 850.333333333 912 757 c 256
 912 663.666666667 883.333333333 593.166666667 826 545.5 c 128
 768.666666667 497.833333333 663.333333333 474 510 474 c 2
 228 474 l 1
 283 605 l 1
 474 605 l 2
 567.333333333 605 634.333333333 615.333333333 675 636 c 128
 715.666666667 656.666666667 736 697 736 757 c 256
 736 817 715.666666667 857.5 675 878.5 c 128
 634.333333333 899.5 567.333333333 910 474 910 c 2
 283 910 l 1
 283 1040 l 1
187 0 m 2
 157 0 142 15 142 45 c 2
 142 995 l 2
 142 1025 157 1040 187 1040 c 2
 273 1040 l 2
 303 1040 318 1025 318 995 c 2
 318 45 l 2
 318 15 303 0 273 0 c 2
 187 0 l 2
313 604 m 1
 560 604 l 2
 713.333333333 604 818.666666667 577 876 523 c 128
 933.333333333 469 962 395.333333333 962 302 c 256
 962 208.666666667 933.333333333 135 876 81 c 128
 818.666666667 27 713.333333333 0 560 0 c 2
 258 0 l 1
 313 131 l 1
 514 131 l 2
 607.333333333 131 674.333333333 144.5 715 171.5 c 128
 755.666666667 198.5 776 242 776 302 c 256
 776 362 755.666666667 405.666666667 715 433 c 128
 674.333333333 460.333333333 607.333333333 474 514 474 c 2
 313 474 l 1
 313 604 l 1
EndSplineSet
Fore
SplineSet
187 0 m 2xf4
 157 0 142 15 142 45 c 2
 142 1005 l 2
 142 1035 157 1050 187 1050 c 2
 510 1050 l 2
 663.333333333 1050 768.666666667 1025.16666667 826 975.5 c 0
 883.333333333 925.833333333 912 860 912 778 c 256xf8
 912 726.666666667 903.333333333 683.166666667 886 647.5 c 0
 868.666666667 611.833333333 829.666666667 580 769 552 c 1
 769 551 l 1
 839 527.666666667 888.666666667 500.333333333 918 469 c 0
 947.333333333 437.666666667 962 375.333333333 962 282 c 256
 962 203.333333333 933 136.666666667 875 82 c 0
 817 27.3333333333 712 0 560 0 c 2
 187 0 l 2xf4
318 131 m 1
 514 131 l 2
 607.333333333 131 674.333333333 141.166666667 715 161.5 c 0
 755.666666667 181.833333333 776 228.666666667 776 302 c 256xf4
 776 368.666666667 752.666666667 414 706 438 c 0
 659.333333333 462 595.333333333 474 514 474 c 2
 318 474 l 1
 318 131 l 1
318 605 m 1
 474 605 l 2
 554 605 617.666666667 616.5 665 639.5 c 0
 712.333333333 662.5 736 703.333333333 736 762 c 256xf8
 736 825.333333333 715.666666667 867.5 675 888.5 c 0
 634.333333333 909.5 567.333333333 920 474 920 c 2
 318 920 l 1
 318 605 l 1
EndSplineSet
Validated: 8912897
EndChar

StartChar: afii10092
Encoding: 1098 1098 27
Width: 1285
Flags: W
HStem: 0 131<586 976.434> 488 130<586 976.434> 920 130<50 410>
VStem: 410 176<131 488 618 920> 1024 186<177.723 442.195>
LayerCount: 2
Fore
SplineSet
95 920 m 2
 65 920 50 931.666666667 50 955 c 2
 50 1015 l 2
 50 1038.33333333 65 1050 95 1050 c 2
 541 1050 l 2
 571 1050 586 1035 586 1005 c 2
 586 618 l 1
 808 618 l 2
 961.333333333 618 1066.66666667 589.833333333 1124 533.5 c 0
 1181.33333333 477.166666667 1210 402.333333333 1210 309 c 256
 1210 215.666666667 1181.33333333 140.833333333 1124 84.5 c 0
 1066.66666667 28.1666666667 961.333333333 0 808 0 c 2
 455 0 l 2
 425 0 410 15 410 45 c 2
 410 920 l 1
 95 920 l 2
586 131 m 1
 762 131 l 2
 855.333333333 131 922.333333333 142.333333333 963 165 c 0
 1003.66666667 187.666666667 1024 235.666666667 1024 309 c 256
 1024 382.333333333 1003.66666667 430.5 963 453.5 c 0
 922.333333333 476.5 855.333333333 488 762 488 c 2
 586 488 l 1
 586 131 l 1
EndSplineSet
Validated: 524289
EndChar

StartChar: v
Encoding: 118 118 28
Width: 986
Flags: W
HStem: 0 21G<416 570> 1030 20G<57.3333 191.667 794.333 928.667>
LayerCount: 2
Fore
SplineSet
45 1001 m 2
 33.6666666667 1033.66666667 42.6666666667 1050 72 1050 c 2
 181 1050 l 2
 202.333333333 1050 217.333333333 1037 226 1011 c 2
 438 351 l 2
 455.333333333 297 467.166666667 259.833333333 473.5 239.5 c 0
 479.833333333 219.166666667 485.666666667 194 491 164 c 1
 495 164 l 1
 500.333333333 194 506.166666667 219.166666667 512.5 239.5 c 0
 518.833333333 259.833333333 530.666666667 297 548 351 c 2
 760 1011 l 2
 768.666666667 1037 783.666666667 1050 805 1050 c 2
 914 1050 l 2
 943.333333333 1050 952.333333333 1033.66666667 941 1001 c 2
 613 61 l 2
 599 20.3333333333 581 0 559 0 c 2
 427 0 l 2
 405 0 387 20.3333333333 373 61 c 2
 45 1001 l 2
EndSplineSet
Validated: 524289
EndChar

StartChar: y
Encoding: 121 121 29
Width: 990
Flags: HMW
HStem: -417 130<88.8008 301.109> 1030 20G<55.5 203.5 793 940.5>
DStem2: 412 -1 608 61 0.328521 0.944497<-296.938 0 185.503 1127.75> 469.5 266.5 412 -1 0.338952 -0.940804<-726.223 104.003>
LayerCount: 2
Back
SplineSet
49 991 m 2
 37.4788666667 1023.66666667 46.4788666667 1040 76 1040 c 2
 185 1040 l 2
 206.52 1040 221.52 1027 230 1001 c 2
 442 351 l 2
 453.888 314.55 464.221333333 282.216666667 473 254 c 0
 482.333333333 224 489.666666667 194 495 164 c 1
 499 164 l 1
 504.333333333 194 511.666666667 224 521 254 c 0
 529.778666667 282.216666667 540.112 314.55 552 351 c 2
 764 1001 l 2
 772.48 1027 787.48 1040 809 1040 c 2
 918 1040 l 2
 947.521333333 1040 956.521333333 1023.66666667 945 991 c 2
 617 61 l 2
 602.657333333 20.3333333333 584.657333333 0 563 0 c 2
 431 0 l 2
 409.342666667 2.72921333333e-06 391.342666667 20.3333360625 377 61 c 2
 49 991 l 2
EndSplineSet
Fore
SplineSet
51 1001 m 2
 39.2308666667 1033.66666667 48.2308666667 1050 78 1050 c 2
 187 1050 l 2
 208.727333333 1050 223.727333333 1037 232 1011 c 2
 442 351 l 2
 448 333 457.166666667 304.833333333 469.5 266.5 c 128
 481.833333333 228.166666667 490.666666667 194 496 164 c 1
 498 164 l 1
 503.333333333 194 509.833333333 221.166666667 517.5 245.5 c 128
 525.166666667 269.833333333 536.666666667 305 552 351 c 2
 764 1011 l 2
 772.351333333 1037 787.351333333 1050 809 1050 c 2
 918 1050 l 2
 947.711333333 1050 956.711333333 1033.66666667 945 1001 c 2
 608 61 l 2
 544.659333333 -115.676666667 487.992666667 -239.51 438 -310.5 c 128
 388 -381.5 313.333333333 -417 214 -417 c 256
 162 -417 120.666666667 -409.333333333 90 -394 c 256
 76.1499333333 -387.404666667 71.4832666667 -377.071333333 76 -363 c 2
 102 -282 l 2
 106.515333333 -267.932 115.515333333 -263.932 129 -270 c 256
 156.333333333 -281.333333333 182.666666667 -287 208 -287 c 256
 254.666666667 -287 292.722333333 -261.786 322.167 -211.358 c 128
 351.611 -160.93 374.888666667 -110.477333333 392 -60 c 2
 412 -1 l 9
 51 1001 l 2
EndSplineSet
Validated: 524289
EndChar

StartChar: e
Encoding: 101 101 30
Width: 1098
Flags: W
HStem: -17 131<419.57 756.595> 458 130<271 832> 939 128<405.742 703.432>
VStem: 85 186<272.007 458 588 783.894> 832 177<588 782.152>
LayerCount: 2
Back
SplineSet
85 525 m 260
 85 681.666666667 126.5 811.166666667 209.5 913.5 c 132
 292.5 1015.83333333 414 1067 574 1067 c 260
 734 1067 855.5 1015.83333333 938.5 913.5 c 132
 1021.5 811.166666667 1063 681.666666667 1063 525 c 260
 1063 368.333333333 1021.5 238.833333333 938.5 136.5 c 132
 855.5 34.1666666667 734 -17 574 -17 c 260
 414 -17 292.5 34.1666666667 209.5 136.5 c 132
 126.5 238.833333333 85 368.333333333 85 525 c 260
271 525 m 260
 271 385 298.666666667 281.333333333 354 214 c 132
 409.333333333 146.666666667 482.666666667 113 574 113 c 260
 665.333333333 113 738.666666667 146.666666667 794 214 c 132
 849.333333333 281.333333333 877 385 877 525 c 260
 877 665 849.333333333 768.666666667 794 836 c 132
 738.666666667 903.333333333 665.333333333 937 574 937 c 260
 482.666666667 937 409.333333333 903.333333333 354 836 c 132
 298.666666667 768.666666667 271 665 271 525 c 260
85 520 m 256
 85 676.666666667 123.833333333 805.333333333 201.5 906 c 128
 279.166666667 1006.66666667 398 1057 558 1057 c 256
 698 1057 793.5 1031.16666667 844.5 979.5 c 128
 895.5 927.833333333 923.666666667 895.333333333 929 882 c 256
 939.666666667 857.333333333 936.666666667 839.666666667 920 829 c 26
 855 786 l 18
 829.666666667 769.333333333 809.666666667 778.333333333 795 813 c 0
 787 832.333333333 767.166666667 855.333333333 735.5 882 c 128
 703.833333333 908.666666667 644.666666667 922 558 922 c 256
 468 922 397.666666667 890 347 826 c 128
 296.333333333 762 271 660 271 520 c 256
 271 380 296.333333333 278 347 214 c 128
 397.666666667 150 468 118 558 118 c 256
 640.666666667 118 699.166666667 131.666666667 733.5 159 c 128
 767.833333333 186.333333333 794 216.666666667 812 250 c 256
 829.333333333 281.333333333 849 290.333333333 871 277 c 10
 940 235 l 26
 956.666666667 225 959.666666667 207 949 181 c 256
 940.333333333 159.666666667 905.833333333 121.333333333 845.5 66 c 128
 785.166666667 10.6666666667 689.333333333 -17 558 -17 c 256
 398 -17 279.166666667 33.3333333333 201.5 134 c 128
 123.833333333 234.666666667 85 363.333333333 85 520 c 256
EndSplineSet
Fore
SplineSet
85 525 m 256
 85 690.333333333 126.333333333 822 209 920 c 0
 291.666666667 1018 410 1067 564 1067 c 256
 692 1067 798.166666667 1022.16666667 882.5 932.5 c 0
 966.833333333 842.833333333 1009 699.666666667 1009 503 c 0
 1009 473 995.333333333 458 968 458 c 2
 271 458 l 1
 282.333333333 329.333333333 317 239.833333333 375 189.5 c 0
 433 139.166666667 498.666666667 114 572 114 c 256
 649.333333333 114 708.666666667 127 750 153 c 0
 791.333333333 179 821.666666667 204.666666667 841 230 c 256
 862.312666667 257.972666667 882.979333333 263.306 903 246 c 10
 962 195 l 26
 977.366666667 181.717333333 977.366666667 163.384 962 140 c 256
 949.333333333 120.666666667 913.166666667 89.6666666667 853.5 47 c 0
 793.833333333 4.33333333333 700 -17 572 -17 c 256
 405.333333333 -17 282.5 32 203.5 130 c 0
 124.5 228 85 359.666666667 85 525 c 256
267 588 m 1
 832 588 l 1
 829.333333333 681.333333333 805.333333333 763.166666667 760 833.5 c 0
 714.666666667 903.833333333 648 939 560 939 c 256
 482.666666667 939 417 913.166666667 363 861.5 c 0
 309 809.833333333 277 718.666666667 267 588 c 1
EndSplineSet
Validated: 524321
EndChar

StartChar: i
Encoding: 105 105 31
Width: 460
Flags: W
HStem: 0 21G<172 288> 1030 20G<172 288> 1240 176<142 318>
VStem: 142 176<4.5e-07 1050 1240 1416>
LayerCount: 2
Back
SplineSet
139 1335 m 2
 139 1419 l 2
 142.333333333 1444.33333333 158.333333333 1457 187 1457 c 2
 209 1456 l 1
 272 1456 l 2
 286 1456 296.5 1452.33333333 303.5 1445 c 128
 310.5 1437.66666667 314.5 1431 315.5 1425 c 128
 316.5 1419 317 1411 317 1401 c 2
 317 1352 l 2
 317 1319.33333333 313.166666667 1298.83333333 305.5 1290.5 c 128
 297.833333333 1282.16666667 278.833333333 1278 248.5 1278 c 128
 218.166666667 1278 195.333333333 1278.66666667 180 1280 c 0
 152.666666667 1280 139 1298.33333333 139 1335 c 2
252 1040 m 1
 269 1041 l 2
 278.333333333 1041 286 1040.33333333 292 1039 c 128
 298 1037.66666667 302.666666667 1034.5 306 1029.5 c 128
 309.333333333 1024.5 311.5 1021.16666667 312.5 1019.5 c 128
 313.5 1017.83333333 314.5 1012.83333333 315.5 1004.5 c 128
 316.5 996.166666667 317 991.666666667 317 991 c 2
 317 58 l 2
 317 32 311 14.6666666667 299 6 c 1
 298.333333333 6 295.166666667 4.83333333333 289.5 2.5 c 128
 283.833333333 0.166677333333 276 -0.999989333333 266 -1 c 2
 242 0 l 1
 178 0 l 1
 153.333333333 4 141 20.3333333333 141 49 c 2
 139 84 l 1
 139 982 l 2
 139 1007.33333333 143.166666667 1023.33333333 151.5 1030 c 128
 159.833333333 1036.66666667 174.333333333 1040 195 1040 c 2
 252 1040 l 1
EndSplineSet
Fore
Refer: 0 305 N 1 0 0 1 0 0 3
Refer: 32 729 N 1 0 0 1 -77 0 2
Validated: 1
EndChar

StartChar: dotaccent
Encoding: 729 729 32
Width: 614
Flags: W
HStem: 1240 176<219 395>
VStem: 219 176<1240 1416>
LayerCount: 2
Fore
SplineSet
264 1240 m 2
 234 1240 219 1255 219 1285 c 2
 219 1371 l 2
 219 1401 234 1416 264 1416 c 2
 350 1416 l 2
 380 1416 395 1401 395 1371 c 2
 395 1285 l 2
 395 1255 380 1240 350 1240 c 2
 264 1240 l 2
EndSplineSet
Validated: 1
EndChar

StartChar: q
Encoding: 113 113 33
Width: 1119
Flags: W
HStem: -400 21G<831 947> -17 130<396.785 688.318> 937 130<396.785 688.318> 1030 20G<836.125 947>
VStem: 85 186<266.624 783.376> 801 176<-400 125 222.317 827.683 925 1049.96>
LayerCount: 2
Fore
SplineSet
85 525 m 256xdc
 85 668.333333333 119.666666667 794.5 189 903.5 c 0
 258.333333333 1012.5 359.666666667 1067 493 1067 c 256xec
 569.666666667 1067 631 1054.33333333 677 1029 c 0
 723 1003.66666667 764.333333333 969 801 925 c 1
 803 925 l 1
 809 1005 l 2
 811.25 1035 824.25 1050 848 1050 c 2
 932 1050 l 2
 962 1050 977 1035 977 1005 c 2
 977 -355 l 2
 977 -385 962 -400 932 -400 c 2
 846 -400 l 2
 816 -400 801 -385 801 -355 c 2
 801 64 l 2
 801 84.6666666667 801.666666667 105 803 125 c 1
 801 125 l 1
 764.333333333 81 723 46.3333333333 677 21 c 0
 631 -4.33333333333 569.666666667 -17 493 -17 c 256
 359.666666667 -17 258.333333333 37.5 189 146.5 c 0
 119.666666667 255.5 85 381.666666667 85 525 c 256xdc
271 525 m 256
 271 402.333333333 292.166666667 303 334.5 227 c 0
 376.833333333 151 448.666666667 113 550 113 c 256
 622 113 681.833333333 137.5 729.5 186.5 c 0
 777.166666667 235.5 801 310 801 410 c 2
 801 640 l 2
 801 740 777.166666667 814.5 729.5 863.5 c 0
 681.833333333 912.5 622 937 550 937 c 256
 448.666666667 937 376.833333333 899 334.5 823 c 0
 292.166666667 747 271 647.666666667 271 525 c 256
EndSplineSet
Validated: 8912897
EndChar

StartChar: cyrbreve
Encoding: 63188 63188 38
Width: 1170
Flags: HMW
HStem: 1146 124<443.024 726.976>
VStem: 232 166<1371 1450> 772 162<1371 1450>
LayerCount: 2
Fore
SplineSet
232 1405 m 2
 230 1435 245 1450 277 1450 c 2
 353 1450 l 2
 379.666666667 1450 394.666666667 1435 398 1405 c 2
 402 1371 l 2
 407.333333333 1326.33333333 426.666666667 1298.33333333 460 1287 c 128
 493.333333333 1275.66666667 535 1270 585 1270 c 256
 635 1270 676.666666667 1275.66666667 710 1287 c 128
 743.333333333 1298.33333333 762.666666667 1326.33333333 768 1371 c 2
 772 1405 l 2
 775.333333333 1435 790.333333333 1450 817 1450 c 2
 893 1450 l 2
 925 1450 940 1435 938 1405 c 2
 934 1344 l 2
 929.333333333 1277.33333333 890.833333333 1227.66666667 818.5 1195 c 128
 746.166666667 1162.33333333 668.333333333 1146 585 1146 c 256
 501.666666667 1146 423.833333333 1162.33333333 351.5 1195 c 128
 279.166666667 1227.66666667 240.666666667 1277.33333333 236 1344 c 2
 232 1405 l 2
EndSplineSet
Validated: 524289
EndChar

StartChar: afii10076
Encoding: 1082 1082 39
Width: 989
Flags: W
HStem: 0 21G<172 288 788.333 918.667> 482 132<318 474.016> 1030 20G<172 288 772 897.333>
VStem: 142 176<4.5e-07 482 614 1050>
LayerCount: 2
Fore
SplineSet
187 0 m 2
 157 0 142 15 142 45 c 2
 142 1005 l 2
 142 1035 157 1050 187 1050 c 2
 273 1050 l 2
 303 1050 318 1035 318 1005 c 2
 318 614 l 1
 359 614 l 2
 405.666666667 614 446.833333333 631.666666667 482.5 667 c 0
 518.166666667 702.333333333 544.666666667 733.333333333 562 760 c 2
 731 1024 l 2
 742.333333333 1041.33333333 760 1050 784 1050 c 2
 875 1050 l 2
 919.666666667 1050 928.333333333 1030.33333333 901 991 c 2
 698 700 l 2
 684.666666667 680.666666667 661.166666667 653.333333333 627.5 618 c 0
 593.833333333 582.666666667 562.333333333 561.333333333 533 554 c 1
 533 552 l 1
 571 539.333333333 603.333333333 522.666666667 630 502 c 0
 656.666666667 481.333333333 688 442 724 384 c 2
 924 59 l 2
 948 19.6666666667 939.333333333 0 898 0 c 2
 800 0 l 2
 776.666666667 0 757.666666667 12.3333333333 743 37 c 2
 556 358 l 2
 534 396 505 426.166666667 469 448.5 c 0
 433 470.833333333 396.666666667 482 360 482 c 2
 318 482 l 1
 318 45 l 2
 318 15 303 0 273 0 c 2
 187 0 l 2
EndSplineSet
Validated: 524321
EndChar

StartChar: afii10072
Encoding: 1078 1078 40
Width: 1458
Flags: W
HStem: 0 21G<70.3333 200 671 787 1258 1387.67> 482 132<506.712 641 817 951.288> 1030 20G<92 217.333 671 787 1240.67 1366>
VStem: 641 176<4.5e-07 482 614 1050>
LayerCount: 2
Back
SplineSet
1367 0 m 2
 1269 0 l 2
 1245 0 1226 12.3333333333 1212 37 c 2
 1029 358 l 2
 998.333333333 411.333333333 970 445.333333333 944 460 c 128
 918 474.666666667 884.333333333 482 843 482 c 2
 817 482 l 1
 817 45 l 2
 817 15 802 0 772 0 c 2
 686 0 l 2
 656 0 641 15 641 45 c 2
 641 482 l 1
 615 482 l 2
 573.666666667 482 540 474.666666667 514 460 c 128
 488 445.333333333 459.666666667 411.333333333 429 358 c 2
 246 37 l 2
 232 12.3333333333 213 0 189 0 c 2
 91 0 l 2
 49.6666666667 0 41 19.6666666667 65 59 c 2
 261 384 l 2
 295 440.666666667 324.833333333 479.5 350.5 500.5 c 128
 376.166666667 521.5 405.666666667 538.666666667 439 552 c 1
 439 554 l 1
 409.666666667 562 382.333333333 580 357 608 c 128
 331.666666667 636 306.333333333 668.666666667 281 706 c 2
 88 991 l 2
 61.3333333333 1030.33333333 70 1050 114 1050 c 2
 205 1050 l 2
 229.666666667 1050 247.333333333 1041.33333333 258 1024 c 2
 423 760 l 2
 439 734.666666667 466.333333333 704 505 668 c 128
 543.666666667 632 580.666666667 614 616 614 c 2
 641 614 l 1
 641 1005 l 2
 641 1035 656 1050 686 1050 c 2
 772 1050 l 2
 802 1050 817 1035 817 1005 c 2
 817 614 l 1
 842 614 l 2
 877.333333333 614 914.333333333 632 953 668 c 128
 991.666666667 704 1019 734.666666667 1035 760 c 2
 1200 1024 l 2
 1210.66666667 1041.33333333 1228.33333333 1050 1253 1050 c 2
 1344 1050 l 2
 1388 1050 1396.66666667 1030.33333333 1370 991 c 2
 1177 706 l 2
 1151.66666667 668.666666667 1126.33333333 636.166666667 1101 608.5 c 128
 1075.66666667 580.833333333 1048.33333333 562.666666667 1019 554 c 1
 1019 552 l 1
 1052.33333333 538 1081.5 521.166666667 1106.5 501.5 c 128
 1131.5 481.833333333 1161.66666667 442.666666667 1197 384 c 2
 1393 59 l 2
 1417 19.6666666667 1408.33333333 0 1367 0 c 2
EndSplineSet
Fore
SplineSet
91 0 m 2
 49.6666666667 0 41 19.6666666667 65 59 c 2
 261 384 l 2
 295.666666667 440.666666667 325.666666667 479.5 351 500.5 c 0
 376.333333333 521.5 405.666666667 538.666666667 439 552 c 1
 439 554 l 1
 409.666666667 562 382.333333333 580 357 608 c 0
 331.666666667 636 306.333333333 668.666666667 281 706 c 2
 88 991 l 2
 61.3333333333 1030.33333333 70 1050 114 1050 c 2
 205 1050 l 2
 229.666666667 1050 247.333333333 1041.33333333 258 1024 c 2
 423 760 l 2
 438.333333333 735.333333333 463 704.833333333 497 668.5 c 0
 531 632.166666667 570.666666667 614 616 614 c 2
 641 614 l 1
 641 1005 l 2
 641 1035 656 1050 686 1050 c 2
 772 1050 l 2
 802 1050 817 1035 817 1005 c 2
 817 614 l 1
 842 614 l 2
 887.333333333 614 927 632.166666667 961 668.5 c 0
 995 704.833333333 1019.66666667 735.333333333 1035 760 c 2
 1200 1024 l 2
 1210.66666667 1041.33333333 1228.33333333 1050 1253 1050 c 2
 1344 1050 l 2
 1388 1050 1396.66666667 1030.33333333 1370 991 c 2
 1177 706 l 2
 1151.66666667 668.666666667 1126.33333333 636 1101 608 c 0
 1075.66666667 580 1048.33333333 562 1019 554 c 1
 1019 552 l 1
 1052.33333333 538.666666667 1081.66666667 521.5 1107 500.5 c 0
 1132.33333333 479.5 1162.33333333 440.666666667 1197 384 c 2
 1393 59 l 2
 1417 19.6666666667 1408.33333333 0 1367 0 c 2
 1270 0 l 2
 1246 0 1227 12.3333333333 1213 37 c 2
 1029 358 l 2
 1007 396 979.666666667 426.166666667 947 448.5 c 0
 914.333333333 470.833333333 879.666666667 482 843 482 c 2
 817 482 l 1
 817 45 l 2
 817 15 802 0 772 0 c 2
 686 0 l 2
 656 0 641 15 641 45 c 2
 641 482 l 1
 615 482 l 2
 578.333333333 482 543.666666667 470.833333333 511 448.5 c 0
 478.333333333 426.166666667 451 396 429 358 c 2
 245 37 l 2
 231 12.3333333333 212 0 188 0 c 2
 91 0 l 2
EndSplineSet
Validated: 524321
EndChar

StartChar: afii10097
Encoding: 1103 1103 41
Width: 1084
Flags: W
HStem: 0 21G<97.6667 241.333 796 912> 432 130<547.294 766> 919 131<381.566 766>
VStem: 148 186<625.391 872.295> 766 176<4.5e-07 432 562 919>
LayerCount: 2
Back
SplineSet
318 756 m 2
 318 727.333333333 321.333333333 703.166666667 328 683.5 c 128
 334.666666667 663.833333333 342.833333333 648.333333333 352.5 637 c 128
 362.166666667 625.666666667 376.5 616.666666667 395.5 610 c 128
 414.5 603.333333333 431.833333333 598.833333333 447.5 596.5 c 128
 463.166666667 594.166666667 485.333333333 592 514 590 c 2
 766 590 l 1
 766 909 l 1
 498 909 l 2
 438.666666667 904.333333333 399.666666667 898 381 890 c 0
 341 872.666666667 320 832 318 768 c 2
 318 756 l 2
180 0 m 2
 90 0 l 2
 65.3333333333 0 53 6.66666666667 53 20 c 0
 53 26.6666666667 56.6666666667 34.6666666667 64 44 c 0
 66 46.6666666667 101.333333333 87.3333333333 170 166 c 2
 426 461 l 1
 425.333333333 461 418.333333333 462.333333333 405 465 c 128
 391.666666667 467.666666667 381.5 469.833333333 374.5 471.5 c 128
 367.5 473.166666667 356 476.5 340 481.5 c 128
 324 486.5 311 491.5 301 496.5 c 128
 291 501.5 278.333333333 508.333333333 263 517 c 128
 247.666666667 525.666666667 234.833333333 535 224.5 545 c 128
 214.166666667 555 203.166666667 567.333333333 191.5 582 c 128
 179.833333333 596.666666667 170.666666667 612.333333333 164 629 c 128
 157.333333333 645.666666667 151.666666667 665.166666667 147 687.5 c 128
 142.333333333 709.833333333 140 735.166666667 140 763.5 c 128
 140 791.833333333 144 819.666666667 152 847 c 128
 160 874.333333333 172.833333333 900.5 190.5 925.5 c 128
 208.166666667 950.5 233 971.833333333 265 989.5 c 128
 297 1007.16666667 335 1020 379 1028 c 0
 417 1036 476.333333333 1040 557 1040 c 2
 894 1040 l 2
 911.333333333 1040 923.666666667 1036.5 931 1029.5 c 128
 938.333333333 1022.5 942 1009.33333333 942 990 c 2
 942 43 l 2
 942 30.3333333333 938.666666667 20.5 932 13.5 c 128
 925.333333333 6.5 918.833333333 2.5 912.5 1.5 c 128
 906.166666667 0.5 898 0 888 0 c 2
 809 0 l 1
 791 2.66666666667 779.333333333 8.16666666667 774 16.5 c 128
 768.666666667 24.8333333333 766 36 766 50 c 2
 766 453 l 1
 598 453 l 1
 585.333333333 436.333333333 524 360 414 224 c 128
 304 88 246.666666667 18 242 14 c 0
 232 7.33333333333 223.833333333 3.33333333333 217.5 2 c 128
 211.166666667 0.666666666667 198.666666667 0 180 0 c 2
EndSplineSet
Fore
SplineSet
121 0 m 2
 74.3333333333 0 65.6666666667 19.6666666667 95 59 c 2
 284 314 l 2
 302 338 327.833333333 365.166666667 361.5 395.5 c 0
 395.166666667 425.833333333 424.666666667 447.333333333 450 460 c 1
 450 462 l 1
 334 486 254.666666667 521.333333333 212 568 c 0
 169.333333333 614.666666667 148 679 148 761 c 256
 148 854.333333333 176.666666667 925.833333333 234 975.5 c 0
 291.333333333 1025.16666667 396.666666667 1050 550 1050 c 2
 897 1050 l 2
 927 1050 942 1035 942 1005 c 2
 942 45 l 2
 942 15 927 0 897 0 c 2
 811 0 l 2
 781 0 766 15 766 45 c 2
 766 432 l 1
 672 432 l 2
 626.666666667 432 589.666666667 420.833333333 561 398.5 c 0
 532.333333333 376.166666667 500 339.333333333 464 288 c 2
 288 37 l 2
 270.666666667 12.3333333333 251.666666667 0 231 0 c 2
 121 0 l 2
334 761 m 256
 334 680.333333333 359.833333333 627 411.5 601 c 0
 463.166666667 575 524.333333333 562 595 562 c 2
 766 562 l 1
 766 919 l 1
 596 919 l 2
 504 919 437.333333333 907.833333333 396 885.5 c 0
 354.666666667 863.166666667 334 821.666666667 334 761 c 256
EndSplineSet
Validated: 524321
EndChar

StartChar: afii10096
Encoding: 1102 1102 42
Width: 1559
Flags: W
HStem: -17 130<828.188 1142.07> 0 21G<172 288> 482 132<318 497> 937 130<828.382 1142.07> 1030 20G<172 288>
VStem: 142 176<4.5e-07 482 614 1050> 497 185<278.353 482 614 770.625> 1288 186<277.934 772.066>
LayerCount: 2
Back
SplineSet
496 525 m 256
 496 681.666666667 537.5 811.166666667 620.5 913.5 c 128
 703.5 1015.83333333 825 1067 985 1067 c 256
 1145 1067 1266.5 1015.83333333 1349.5 913.5 c 128
 1432.5 811.166666667 1474 681.666666667 1474 525 c 256
 1474 368.333333333 1432.5 238.833333333 1349.5 136.5 c 128
 1266.5 34.1666666667 1145 -17 985 -17 c 256
 825 -17 703.5 34.1666666667 620.5 136.5 c 128
 537.5 238.833333333 496 368.333333333 496 525 c 256
682 525 m 256
 682 385 709.666666667 281.333333333 765 214 c 128
 820.333333333 146.666666667 893.666666667 113 985 113 c 256
 1076.33333333 113 1149.66666667 146.666666667 1205 214 c 128
 1260.33333333 281.333333333 1288 385 1288 525 c 256
 1288 665 1260.33333333 768.666666667 1205 836 c 128
 1149.66666667 903.333333333 1076.33333333 937 985 937 c 256
 893.666666667 937 820.333333333 903.333333333 765 836 c 128
 709.666666667 768.666666667 682 665 682 525 c 256
318 488 m 1
 318 45 l 2
 318 15 303 0 273 0 c 2
 187 0 l 2
 157 0 142 15 142 45 c 2
 142 995 l 2
 142 1025 157 1040 187 1040 c 2
 273 1040 l 2
 303 1040 318 1025 318 995 c 2
 318 618 l 1
 318 488 l 1
EndSplineSet
Fore
SplineSet
187 0 m 2x67
 157 0 142 15 142 45 c 2
 142 1005 l 2
 142 1035 157 1050 187 1050 c 2
 273 1050 l 2x6f
 303 1050 318 1035 318 1005 c 2
 318 614 l 1
 502 614 l 1
 507.333333333 720.666666667 549.166666667 822.833333333 627.5 920.5 c 0
 705.833333333 1018.16666667 825 1067 985 1067 c 256
 1145 1067 1266.5 1015.83333333 1349.5 913.5 c 0
 1432.5 811.166666667 1474 681.666666667 1474 525 c 256
 1474 368.333333333 1432.5 238.833333333 1349.5 136.5 c 0
 1266.5 34.1666666667 1145 -17 985 -17 c 256xb7
 825 -17 704.833333333 32.8333333333 624.5 132.5 c 0
 544.166666667 232.166666667 501.666666667 348.666666667 497 482 c 1
 318 482 l 1
 318 45 l 2
 318 15 303 0 273 0 c 2
 187 0 l 2x67
682 525 m 256
 682 385 709.666666667 281.333333333 765 214 c 0
 820.333333333 146.666666667 893.666666667 113 985 113 c 256
 1076.33333333 113 1149.66666667 146.666666667 1205 214 c 0
 1260.33333333 281.333333333 1288 385 1288 525 c 256
 1288 665 1260.33333333 768.666666667 1205 836 c 0
 1149.66666667 903.333333333 1076.33333333 937 985 937 c 256xb7
 893.666666667 937 820.333333333 903.333333333 765 836 c 0
 709.666666667 768.666666667 682 665 682 525 c 256
EndSplineSet
Validated: 8912897
EndChar

StartChar: afii10066
Encoding: 1073 1073 43
Width: 1148
Flags: HMW
HStem: -17 130<419.339 731.07> 937 130<417.038 731.07> 1494 20G<928 986.5>
VStem: 89 182<296.264 773.4> 877 186<277.934 772.066>
LayerCount: 2
Back
SplineSet
85 525 m 260
 85 681.666666667 126.5 811.166666667 209.5 913.5 c 132
 292.5 1015.83333333 414 1067 574 1067 c 260
 734 1067 855.5 1015.83333333 938.5 913.5 c 132
 1021.5 811.166666667 1063 681.666666667 1063 525 c 260
 1063 368.333333333 1021.5 238.833333333 938.5 136.5 c 132
 855.5 34.1666666667 734 -17 574 -17 c 260
 414 -17 292.5 34.1666666667 209.5 136.5 c 132
 126.5 238.833333333 85 368.333333333 85 525 c 260
271 525 m 260
 271 385 298.666666667 281.333333333 354 214 c 132
 409.333333333 146.666666667 482.666666667 113 574 113 c 260
 665.333333333 113 738.666666667 146.666666667 794 214 c 132
 849.333333333 281.333333333 877 385 877 525 c 260
 877 665 849.333333333 768.666666667 794 836 c 132
 738.666666667 903.333333333 665.333333333 937 574 937 c 260
 482.666666667 937 409.333333333 903.333333333 354 836 c 132
 298.666666667 768.666666667 271 665 271 525 c 260
EndSplineSet
Fore
SplineSet
89 600 m 256
 89 676 95.3333333333 766 108 870 c 128
 120.666666667 974 141.333333333 1057.5 170 1120.5 c 128
 198.666666667 1183.5 229.5 1234 262.5 1272 c 128
 295.5 1310 340.5 1344.5 397.5 1375.5 c 128
 454.5 1406.5 515.666666667 1424.66666667 581 1430 c 256
 660.333333333 1436.66666667 718.333333333 1440.33333333 755 1441 c 128
 791.666666667 1441.66666667 825 1448 855 1460 c 256
 881 1470.66666667 896.833333333 1482.33333333 902.5 1495 c 128
 908.166666667 1507.66666667 922.333333333 1514 945 1514 c 10
 969 1514 l 18
 992.333333333 1514 1004 1502.33333333 1004 1479 c 256
 1004 1443.66666667 989.666666667 1407.5 961 1370.5 c 128
 932.333333333 1333.5 884.666666667 1308.33333333 818 1295 c 256
 788.666666667 1289 745 1284 687 1280 c 128
 629 1276 578.166666667 1271.83333333 534.5 1267.5 c 128
 490.833333333 1263.16666667 452.333333333 1252 419 1234 c 0
 287 1165.33333333 214 1028 200 822 c 1
 208 818 l 17
 221.333333333 867.333333333 260.333333333 921.166666667 325 979.5 c 128
 389.666666667 1037.83333333 472.666666667 1067 574 1067 c 256
 734 1067 855.5 1015.83333333 938.5 913.5 c 128
 1021.5 811.166666667 1063 681.666666667 1063 525 c 256
 1063 368.333333333 1021.5 238.833333333 938.5 136.5 c 128
 855.5 34.1666666667 734 -17 574 -17 c 256
 403.333333333 -17 279.833333333 39.8333333333 203.5 153.5 c 128
 127.166666667 267.166666667 89 416 89 600 c 256
271 525 m 256
 271 385 298.666666667 281.333333333 354 214 c 128
 409.333333333 146.666666667 482.666666667 113 574 113 c 256
 665.333333333 113 738.666666667 146.666666667 794 214 c 128
 849.333333333 281.333333333 877 385 877 525 c 256
 877 665 849.333333333 768.666666667 794 836 c 128
 738.666666667 903.333333333 665.333333333 937 574 937 c 256
 482.666666667 937 409.333333333 903.333333333 354 836 c 128
 298.666666667 768.666666667 271 665 271 525 c 256
EndSplineSet
Validated: 524289
EndChar

StartChar: afii10095
Encoding: 1101 1101 45
Width: 1026
Flags: W
HStem: -17 130<271.937 629.115> 482 130<262 751> 937 130<279.148 621.369>
VStem: 755 186<252.314 482 612 791.798>
LayerCount: 2
Back
SplineSet
941 525 m 256
 941 681.666666667 902.166666667 811.166666667 824.5 913.5 c 128
 746.833333333 1015.83333333 628 1067 468 1067 c 256
 360 1067 277.5 1047.83333333 220.5 1009.5 c 128
 163.5 971.166666667 122.333333333 932 97 892 c 256
 83 870 86 852.333333333 106 839 c 282
 169 798 l 273
 189 784 209 793 229 825 c 256
 248.333333333 855.666666667 275.5 882 310.5 904 c 128
 345.5 926 398 937 468 937 c 256
 559.333333333 937 630 903.333333333 680 836 c 128
 730 768.666666667 755 665 755 525 c 256
 755 385 730 281.333333333 680 214 c 128
 630 146.666666667 559.333333333 113 468 113 c 256
 394 113 337.333333333 127.166666667 298 155.5 c 128
 258.666666667 183.833333333 230 214.666666667 212 248 c 256
 194.666666667 279.333333333 175 288.333333333 153 275 c 266
 86 235 l 282
 66 223 63 205 77 181 c 256
 93.6666666667 152.333333333 131.5 112.166666667 190.5 60.5 c 128
 249.5 8.83333333333 342 -17 468 -17 c 256
 628 -17 746.833333333 34.1666666667 824.5 136.5 c 128
 902.166666667 238.833333333 941 368.333333333 941 525 c 256
EndSplineSet
Fore
SplineSet
78 148 m 256
 60.6666666667 170.666666667 61.3333333333 189 80 203 c 257
 139 250 l 258
 161.666666667 268 182.333333333 261.666666667 201 231 c 257
 223 197 252 168.833333333 288 146.5 c 0
 324 124.166666667 382 113 462 113 c 256
 556.666666667 113 628.333333333 141.5 677 198.5 c 0
 725.666666667 255.5 751.666666667 350 755 482 c 1
 307 482 l 2
 277 482 262 493.666666667 262 517 c 2
 262 577 l 2
 262 600.333333333 277 612 307 612 c 2
 751 612 l 1
 751 712 724.833333333 791.166666667 672.5 849.5 c 0
 620.166666667 907.833333333 550 937 462 937 c 256
 394 937 340.5 926.5 301.5 905.5 c 0
 262.5 884.5 234 862.333333333 216 839 c 256
 192.666666667 809.666666667 171.666666667 803.333333333 153 820 c 258
 97 870 l 258
 79 886 82 907.333333333 106 934 c 256
 131.333333333 962 172.5 991.166666667 229.5 1021.5 c 0
 286.5 1051.83333333 364 1067 462 1067 c 256
 625.333333333 1067 746 1020 824 926 c 0
 902 832 941 698.333333333 941 525 c 256
 941 351.666666667 902 218 824 124 c 0
 746 30 625.333333333 -17 462 -17 c 256
 336.666666667 -17 246.666666667 3.5 192 44.5 c 0
 137.333333333 85.5 99.3333333333 120 78 148 c 256
EndSplineSet
Validated: 524321
EndChar

StartChar: afii10073
Encoding: 1079 1079 46
Width: 982
Flags: W
HStem: -17 130<271.093 637.523> 483 130<296 604.842> 937 130<243.663 610.657>
VStem: 659 176<662.445 890.257> 696 186<173.296 426.776>
LayerCount: 2
Back
SplineSet
426 506 m 5
 335 506 l 6
 309.666666667 506 297 518.333333333 297 543 c 6
 297 612 l 5
 298.333333333 614 299.833333333 617.333333333 301.5 622 c 132
 303.166666667 626.666666667 304.5 629.666666667 305.5 631 c 132
 306.5 632.333333333 308.5 634 311.5 636 c 4
 316.5 639.333333333 326.666666667 641 342 641 c 6
 422 641 l 6
 441.333333333 641 456.333333333 641.666666667 467 643 c 4
 492.333333333 643 516.5 645.333333333 539.5 650 c 132
 562.5 654.666666667 585.333333333 662.5 608 673.5 c 132
 630.666666667 684.5 648.666666667 700.5 662 721.5 c 132
 675.333333333 742.5 682 767.666666667 682 797 c 4
 682 813 679 828.166666667 673 842.5 c 132
 667 856.833333333 656.666666667 871.5 642 886.5 c 132
 627.333333333 901.5 604.333333333 913.5 573 922.5 c 132
 541.666666667 931.5 503.666666667 936 459 936 c 6
 414 936 l 6
 374 936 338.5 932.5 307.5 925.5 c 132
 276.5 918.5 252.5 909.833333333 235.5 899.5 c 132
 218.5 889.166666667 204.166666667 878.833333333 192.5 868.5 c 132
 180.833333333 858.166666667 170.5 849.5 161.5 842.5 c 132
 152.5 835.5 144 832 136 832 c 4
 124.666666667 832 111.833333333 847.333333333 97.5 878 c 132
 83.1666666667 908.666666667 76 928.333333333 76 937 c 4
 76 949 83.3333333333 960.333333333 98 971 c 4
 150.095333333 1009.22666667 199.119333333 1035.11666667 245.072 1048.67 c 132
 291.024 1062.22333333 350.666666667 1069 424 1069 c 6
 431 1069 l 6
 461.666666667 1069 486.5 1068.66666667 505.5 1068 c 132
 524.5 1067.33333333 550.666666667 1065.33333333 584 1062 c 132
 617.333333333 1058.66666667 644.833333333 1053.66666667 666.5 1047 c 132
 688.166666667 1040.33333333 712.333333333 1030 739 1016 c 132
 765.666666667 1002 786.666666667 985.5 802 966.5 c 132
 817.333333333 947.5 830.5 922.833333333 841.5 892.5 c 132
 852.5 862.166666667 858 828 858 790 c 4
 858 771.333333333 855.666666667 753.166666667 851 735.5 c 132
 846.333333333 717.833333333 840 702.166666667 832 688.5 c 132
 824 674.833333333 815.5 662.333333333 806.5 651 c 132
 797.5 639.666666667 787.666666667 629.5 777 620.5 c 132
 766.333333333 611.5 757.333333333 604.166666667 750 598.5 c 132
 742.666666667 592.833333333 735.166666667 587.666666667 727.5 583 c 132
 719.833333333 578.333333333 715.666666667 575.666666667 715 575 c 5
 764.333333333 553.666666667 804.5 518.833333333 835.5 470.5 c 132
 866.5 422.166666667 882 367.333333333 882 306 c 4
 882 260.666666667 873.166666667 217.333333333 855.5 176 c 132
 837.853333333 134.713333333 812.686666667 100.713333333 780 74 c 4
 750.610666667 49.9815333333 715.277333333 31.1482 674 17.5 c 132
 632.666666667 3.83334 597.333333333 -4.66666 568 -8 c 132
 538.666666667 -11.3333333333 503 -14 461 -16 c 4
 408.238 -16 368.238 -14.1666666667 341 -10.5 c 6
 295.5 -4.5 l 6
 282.5 -2.83333333333 268.833333333 0.166666666667 254.5 4.5 c 132
 240.166666667 8.83333333333 229.166666667 12 221.5 14 c 132
 213.833333333 16 203.5 20 190.5 26 c 132
 177.5 32 168.833333333 35.8333333333 164.5 37.5 c 132
 160.166666667 39.1666666667 151.166666667 43.5 137.5 50.5 c 6
 113 63 l 6
 112.333333333 63.6666666667 106.5 67.5 95.5 74.5 c 132
 84.5 81.5 76.5 88 71.5 94 c 132
 66.5 100 64 107 64 115 c 4
 64 125.666666667 71.5 146 86.5 176 c 132
 101.5 206 115 221 127 221 c 4
 133 221 143.833333333 215.666666667 159.5 205 c 6
 212 169.5 l 6
 231.333333333 156.5 260.5 144.666666667 299.5 134 c 132
 338.5 123.333333333 381.666666667 118 429 118 c 4
 485.666666667 118 533.333333333 124.166666667 572 136.5 c 132
 610.666666667 148.833333333 639 165.5 657 186.5 c 132
 675 207.5 687.333333333 227.833333333 694 247.5 c 132
 700.666666667 267.166666667 704 288.166666667 704 310.5 c 132
 704 332.833333333 700.833333333 353.666666667 694.5 373 c 132
 688.166666667 392.333333333 677 411.833333333 661 431.5 c 132
 645 451.166666667 620.166666667 467.5 586.5 480.5 c 132
 552.833333333 493.5 512.333333333 501.333333333 465 504 c 6
 426 506 l 5
EndSplineSet
Fore
SplineSet
82 114 m 280xe8
 66 136.666666667 65 155 79 169 c 2
 134 223 l 2
 152.666666667 241.666666667 174 237 198 209 c 280
 202 204.333333333 226 187.166666667 270 157.5 c 0
 314 127.833333333 369.333333333 113 436 113 c 256
 546.666666667 113 617.666666667 131.5 649 168.5 c 0
 680.333333333 205.5 696 249.333333333 696 300 c 256xe8
 696 365.333333333 676 412.166666667 636 440.5 c 0
 596 468.833333333 539 483 465 483 c 2
 341 483 l 2
 311 483 296 494.666666667 296 518 c 2
 296 578 l 2
 296 601.333333333 311 613 341 613 c 2
 432 613 l 2
 513.333333333 613 571.5 627.166666667 606.5 655.5 c 0
 641.5 683.833333333 659 725 659 779 c 256
 659 838.333333333 638.166666667 879.5 596.5 902.5 c 0
 554.833333333 925.5 500.666666667 937 434 937 c 256
 402 937 365.333333333 933.5 324 926.5 c 0
 282.666666667 919.5 246.666666667 900 216 868 c 256
 187.333333333 838 164.666666667 831.333333333 148 848 c 2
 95 901 l 2
 75.6666666667 920.333333333 80 942 108 966 c 256
 144 996.666666667 187 1021.16666667 237 1039.5 c 0
 287 1057.83333333 360.333333333 1067 457 1067 c 256
 589.666666667 1067 685.833333333 1038.16666667 745.5 980.5 c 0
 805.166666667 922.833333333 835 860 835 792 c 256xf0
 835 721.333333333 821.833333333 669.333333333 795.5 636 c 0
 769.166666667 602.666666667 736.333333333 577 697 559 c 1
 697 556 l 1
 749.666666667 540.666666667 793.666666667 508.833333333 829 460.5 c 0
 864.333333333 412.166666667 882 361.333333333 882 308 c 256
 882 192 845.666666667 108.833333333 773 58.5 c 0
 700.333333333 8.16666666667 592.666666667 -17 450 -17 c 256
 338 -17 250.166666667 2.66666666667 186.5 42 c 0
 122.833333333 81.3333333333 88 105.333333333 82 114 c 280xe8
EndSplineSet
Validated: 8912929
EndChar

StartChar: afii10078
Encoding: 1084 1084 47
Width: 1422
Flags: W
HStem: 0 21G<172 288 661.667 760.333 1134 1250> 1030 20G<172 387.333 1034.67 1250>
VStem: 142 176<4.5e-07 860> 1104 176<4.5e-07 860>
LayerCount: 2
Back
SplineSet
263 991 m 2
 251.666666667 1023.66666667 260.666666667 1040 290 1040 c 2
 399 1040 l 2
 420.333333333 1040 435.333333333 1027 444 1001 c 2
 656 351 l 2
 667.333333333 316.333333333 677.666666667 284 687 254 c 128
 696.333333333 224 703.666666667 194 709 164 c 1
 713 164 l 1
 718.333333333 194 725.666666667 224 735 254 c 128
 744.333333333 284 754.666666667 316.333333333 766 351 c 2
 978 1001 l 2
 986.666666667 1027 1001.66666667 1040 1023 1040 c 2
 1132 1040 l 2
 1161.33333333 1040 1170.33333333 1023.66666667 1159 991 c 2
 831 61 l 2
 816.333333333 20.3333333333 798.333333333 0 777 0 c 2
 645 0 l 2
 623.666666667 0 605.666666667 20.3333333333 591 61 c 2
 263 991 l 2
EndSplineSet
Fore
SplineSet
187 0 m 2
 157 0 142 15 142 45 c 2
 142 1005 l 2
 142 1035 157 1050 187 1050 c 2
 377 1050 l 2
 397.666666667 1050 412.666666667 1037 422 1011 c 2
 651 351 l 2
 655.666666667 337 664.333333333 311.333333333 677 274 c 0
 689.666666667 236.666666667 700.333333333 201.333333333 709 168 c 1
 713 168 l 1
 721.666666667 201.333333333 732.333333333 236.666666667 745 274 c 0
 757.666666667 311.333333333 766.333333333 337 771 351 c 2
 1000 1011 l 2
 1009.33333333 1037 1024.33333333 1050 1045 1050 c 2
 1235 1050 l 2
 1265 1050 1280 1035 1280 1005 c 2
 1280 45 l 2
 1280 15 1265 0 1235 0 c 2
 1149 0 l 2
 1119 0 1104 15 1104 45 c 2
 1104 800 l 2
 1104 820 1104.66666667 840 1106 860 c 9
 1104 860 l 25
 804 61 l 2
 788.666666667 20.3333333333 770.666666667 0 750 0 c 2
 672 0 l 2
 651.333333333 0 633.333333333 20.3333333333 618 61 c 2
 318 860 l 25
 316 860 l 17
 317.333333333 840 318 820 318 800 c 2
 318 45 l 2
 318 15 303 0 273 0 c 2
 187 0 l 2
EndSplineSet
Validated: 524289
EndChar

StartChar: k
Encoding: 107 107 48
Width: 1003
Flags: W
HStem: 0 21G<172 288 803 933.333> 1030 20G<765.667 892.333> 1456 20G<172 288>
VStem: 142 176<4.5e-07 306 539 1476>
LayerCount: 2
Back
SplineSet
893 1224 m 10
 318 539 l 1049
893 991 m 10
 318 306 l 1049
771 16 m 10
 409 579 l 1049
EndSplineSet
Fore
SplineSet
187 0 m 2
 157 0 142 15 142 45 c 2
 142 1431 l 2
 142 1461 157 1476 187 1476 c 2
 273 1476 l 2
 303 1476 318 1461 318 1431 c 2
 318 599 l 2
 318 579 317.333333333 559 316 539 c 1
 318 539 l 1
 723 1024 l 2
 737.666666667 1041.33333333 755.333333333 1050 776 1050 c 2
 867 1050 l 2
 917.666666667 1050 926.333333333 1030.33333333 893 991 c 2
 579 617 l 1
 938 59 l 2
 963.333333333 19.6666666667 954.666666667 0 912 0 c 2
 814 0 l 2
 792 0 773 12.3333333333 757 37 c 2
 469 486 l 1
 318 306 l 1
 318 45 l 2
 318 15 303 0 273 0 c 2
 187 0 l 2
EndSplineSet
Validated: 524321
EndChar

StartChar: f
Encoding: 102 102 49
Width: 652
Flags: W
HStem: 0 21G<227 343> 918 132<45 197 373 601> 1363 130<410.652 686.749>
VStem: 197 176<4.5e-07 918 1050 1321.73>
LayerCount: 2
Back
SplineSet
555 1475 m 256
 680.333333333 1475 743 1460 743 1430 c 2
 743 1346 l 2
 743 1324 736 1313 722 1313 c 0
 717.333333333 1313 697.166666667 1317.83333333 661.5 1327.5 c 128
 625.833333333 1337.16666667 592.166666667 1342 560.5 1342 c 256
 528.833333333 1342 501.5 1339.33333333 478.5 1334 c 0
 437.304 1324.44666667 411.088333333 1309.72666667 399.853 1289.84 c 128
 388.617666667 1269.94666667 383 1246.66666667 383 1220 c 2
 383 1040 l 1
 567 1040 l 2
 587 1040 599.833333333 1035.83333333 605.5 1027.5 c 128
 611.166666667 1019.16666667 614 1004.33333333 614 983 c 2
 614 967 l 2
 614 943.666666667 609.166666667 929.166666667 599.5 923.5 c 128
 589.833333333 917.833333333 577.666666667 915 563 915 c 2
 385 915 l 1
 385 63 l 6
 385 36.3333333333 381.166666667 19.1666666667 373.5 11.5 c 132
 365.833333333 3.83333333333 350 0 326 0 c 6
 248 0 l 6
 231.333333333 2 220.666666667 7.5 216 16.5 c 132
 211.333333333 25.5 209 39 209 57 c 6
 209 915 l 1
 108 915 l 2
 90 915 77 918.333333333 69 925 c 128
 61 931.666666667 57 947 57 971 c 2
 57 990 l 2
 57 1011.33333333 61.3333333333 1025 70 1031 c 128
 78.6666666667 1037 92 1040 110 1040 c 2
 209 1040 l 1
 209 1139 l 1
 208 1179 l 2
 208 1368.33333333 323.666666667 1467 555 1475 c 256
EndSplineSet
Fore
SplineSet
90 918 m 2
 60 918 45 929.666666667 45 953 c 2
 45 1015 l 2
 45 1038.33333333 60 1050 90 1050 c 2
 197 1050 l 1
 197 1199 l 2
 197 1310.33333333 227 1387.16666667 287 1429.5 c 0
 347 1471.83333333 415.666666667 1493 493 1493 c 256
 539 1493 576.166666667 1490.66666667 604.5 1486 c 0
 632.833333333 1481.33333333 666.333333333 1471 705 1455 c 256
 719.680666667 1448.99333333 724.014 1438.32666667 718 1423 c 2
 687 1344 l 2
 681.752 1330.62666667 670.085333333 1327.96 652 1336 c 256
 637.333333333 1342.66666667 619.333333333 1348.83333333 598 1354.5 c 0
 576.666666667 1360.16666667 553.666666667 1363 529 1363 c 256
 473.666666667 1363 433.833333333 1349.66666667 409.5 1323 c 0
 385.166666667 1296.33333333 373 1245.33333333 373 1170 c 2
 373 1050 l 1
 556 1050 l 2
 586 1050 601 1038.33333333 601 1015 c 2
 601 953 l 2
 601 929.666666667 586 918 556 918 c 2
 373 918 l 1
 373 45 l 2
 373 15 358 0 328 0 c 2
 242 0 l 2
 212 0 197 15 197 45 c 2
 197 918 l 1
 90 918 l 2
EndSplineSet
Validated: 524289
EndChar

StartChar: t
Encoding: 116 116 50
Width: 757
Flags: W
HStem: -17 130<412.767 625.028> 918 132<46 209 385 643>
VStem: 209 176<145.502 918 1050 1241.5>
LayerCount: 2
Back
SplineSet
293 1339 m 1
 326 1340 l 1
 342 1339 l 2
 354 1339 363.166666667 1336.16666667 369.5 1330.5 c 128
 375.833333333 1324.83333333 379.666666667 1318.83333333 381 1312.5 c 128
 382.333333333 1306.16666667 383 1298 383 1288 c 2
 383 1042 l 1
 616 1042 l 2
 632.666666667 1042 645 1040.66666667 653 1038 c 2
 655.333333333 1038 658.25 1036.83333333 661.75 1034.5 c 128
 665.25 1032.16666667 668.166666667 1029.33333333 670.5 1026 c 128
 672.833333333 1022.66666667 675 1017.16666667 677 1009.5 c 128
 679 1001.83333333 680 993 680 983 c 2
 680 967 l 2
 680 932.333333333 663.666666667 915 631 915 c 2
 383 915 l 1
 383 287 l 2
 383 271.833333333 384.166666667 254.041666667 386.5 233.625 c 128
 388.833333333 213.208333333 390.833333333 200.333333333 392.5 195 c 128
 394.166666667 189.666666667 396.666666667 182.166666667 400 172.5 c 128
 403.333333333 162.833333333 407.166666667 155.666666667 411.5 151 c 128
 415.833333333 146.333333333 421.166666667 141.166666667 427.5 135.5 c 0
 439.049333333 125.166666667 455.549333333 120 477 120 c 0
 511 120 542 125.333333333 570 136 c 128
 598 146.666666667 620.333333333 157.333333333 637 168 c 128
 653.666666667 178.666666667 665.333333333 184 672 184 c 0
 680.666666667 184 688.333333333 175.666666667 695 159 c 128
 701.666666667 142.333333333 706.333333333 125.666666667 709 109 c 2
 713 84 l 1
 709.666666667 61.3333333333 671.5 39 598.5 17 c 128
 525.5 -5 457.333333333 -16 394 -16 c 0
 369.333333333 -14.6666666667 347.166666667 -10.1666666667 327.5 -2.5 c 128
 307.833333333 5.16666666667 291.666666667 14.1666666667 279 24.5 c 128
 266.333333333 34.8333333333 255.5 48.5 246.5 65.5 c 128
 237.5 82.5 230.833333333 98.3333333333 226.5 113 c 128
 222.166666667 127.666666667 218.666666667 145.666666667 216 167 c 128
 213.333333333 188.333333333 211.833333333 205.666666667 211.5 219 c 128
 211.166666667 232.333333333 211 249.333333333 211 270 c 2
 211 915 l 1
 93 915 l 2
 70.3333333333 915 55.6666666667 919 49 927 c 128
 42.3333333333 935 39 949.666666667 39 971 c 2
 39 990 l 2
 39 1012 43.3333333333 1026.33333333 52 1033 c 128
 60.6666666667 1039.66666667 74.3333333333 1043 93 1043 c 2
 111 1042 l 1
 213 1042 l 1
 213 1284 l 2
 213 1303.33333333 216 1317.5 222 1326.5 c 128
 228 1335.5 242 1340 264 1340 c 2
 293 1339 l 1
EndSplineSet
Fore
SplineSet
91 918 m 2
 61 918 46 929.666666667 46 953 c 2
 46 1015 l 2
 46 1038.33333333 61 1050 91 1050 c 2
 209 1050 l 1
 209 1140 l 2
 209 1153.24 212.333333333 1165.90666667 219 1178 c 2
 289 1305 l 2
 301.860666667 1328.33333333 312.194 1340 320 1340 c 2
 355 1340 l 2
 375 1340 385 1328.33333333 385 1305 c 2
 385 1050 l 1
 598 1050 l 2
 628 1050 643 1038.33333333 643 1015 c 2
 643 953 l 2
 643 929.666666667 628 918 598 918 c 2
 385 918 l 1
 385 281 l 2
 385 211 395.5 165.5 416.5 144.5 c 0
 437.5 123.5 462.666666667 113 492 113 c 256
 514.666666667 113 541.833333333 119.666666667 573.5 133 c 0
 605.166666667 146.333333333 627 157.666666667 639 167 c 256
 651.071333333 176.388666667 660.404666667 173.388666667 667 158 c 2
 700 81 l 2
 705.636666667 67.8484 701.636666667 57.1817333333 688 49 c 256
 662 33.6666666667 624 18.8333333333 574 4.5 c 16
 524 -9.83333333333 474 -17 424 -17 c 256
 354.666666667 -17 301.5 8 264.5 58 c 0
 227.5 108 209 178.666666667 209 270 c 2
 209 918 l 1
 91 918 l 2
EndSplineSet
Validated: 524289
EndChar

StartChar: l
Encoding: 108 108 51
Width: 460
Flags: W
HStem: 0 21G<172 288> 1473 20G<249 298>
VStem: 142 176<4.5e-07 1394.5>
LayerCount: 2
Fore
SplineSet
187 0 m 2
 157 0 142 15 142 45 c 2
 142 1293 l 2
 142 1306.33333333 145.333333333 1319 152 1331 c 2
 222 1458 l 2
 234.666666667 1481.33333333 245 1493 253 1493 c 2
 288 1493 l 2
 308 1493 318 1481.33333333 318 1458 c 2
 318 45 l 2
 318 15 303 0 273 0 c 2
 187 0 l 2
EndSplineSet
Validated: 524289
EndChar

StartChar: I
Encoding: 73 73 52
Width: 532
Flags: W
HStem: 0 21G<203.333 328.667> 1414 20G<203.333 328.667>
VStem: 170 192<0.214844 1433.79>
LayerCount: 2
Fore
SplineSet
220 0 m 6
 186.666666667 0 170 18.3333333333 170 55 c 2
 170 1379 l 2
 170 1415.66666667 186.666666667 1434 220 1434 c 2
 312 1434 l 2
 345.333333333 1434 362 1415.66666667 362 1379 c 2
 362 55 l 2
 362 18.3333333333 345.333333333 0 312 0 c 2
 220 0 l 6
EndSplineSet
Validated: 524289
EndChar

StartChar: H
Encoding: 72 72 53
Width: 1422
Flags: W
HStem: 0 21G<203.333 328.667 1093.33 1218.67> 664 164<362 1060> 1414 20G<203.333 328.667 1093.33 1218.67>
VStem: 170 192<0.214844 664 828 1433.79> 1060 192<0.214844 664 828 1433.79>
LayerCount: 2
Back
SplineSet
1179 664 m 1
 277 664 l 1
 277 828 l 1
 1179 828 l 1
 1179 664 l 1
1130 0 m 2
 1096.66666667 0 1080 18.3333333333 1080 55 c 2
 1080 1379 l 2
 1080 1415.66666667 1096.66666667 1434 1130 1434 c 2
 1222 1434 l 2
 1255.33333333 1434 1272 1415.66666667 1272 1379 c 2
 1272 55 l 2
 1272 18.3333333333 1255.33333333 0 1222 0 c 2
 1130 0 l 2
220 0 m 2
 186.666666667 0 170 18.3333333333 170 55 c 2
 170 1379 l 2
 170 1415.66666667 186.666666667 1434 220 1434 c 2
 312 1434 l 2
 345.333333333 1434 362 1415.66666667 362 1379 c 2
 362 55 l 2
 362 18.3333333333 345.333333333 0 312 0 c 2
 220 0 l 2
1128 1435 m 2
 1155 1434 l 1
 1214 1434 l 2
 1224 1434 1234.5 1433 1245.5 1431 c 0
 1249.16666667 1430.33333333 1252.33333333 1428.83333333 1255 1426.5 c 128
 1257.66666667 1424.16666667 1259.83333333 1422.66666667 1261.5 1422 c 128
 1263.16666667 1421.33333333 1264.66666667 1419 1266 1415 c 128
 1267.33333333 1411 1268.16666667 1408.16666667 1268.5 1406.5 c 128
 1268.83333333 1404.83333333 1269.33333333 1401.16666667 1270 1395.5 c 128
 1270.66666667 1389.83333333 1271.33333333 1386 1272 1384 c 1
 1272 70 l 2
 1272 40 1268.16666667 20.8333333333 1260.5 12.5 c 128
 1252.83333333 4.16666666667 1235.33333333 0 1208 0 c 2
 1135 0 l 2
 1111.66666667 0 1096.5 3.83333333333 1089.5 11.5 c 128
 1082.5 19.1666666667 1079 35.6666666667 1079 61 c 2
 1079 664 l 1
 367 664 l 1
 367 61 l 2
 367 37.6666666667 363.833333333 21.6666666667 357.5 13 c 128
 351.166666667 4.33333396912 336.333333333 6.35782666667e-07 313 0 c 2
 240 0 l 2
 225.333333333 0 214.166666667 0.666666666667 206.5 2 c 128
 198.833333333 3.33333333333 191.833333333 7.83333333333 185.5 15.5 c 128
 179.166666667 23.1666666667 176 34.3333333333 176 49 c 2
 176 1384 l 2
 176 1405.33333333 180.5 1419 189.5 1425 c 128
 198.5 1431 213 1434 233 1434 c 2
 293 1434 l 1
 319 1435 l 2
 339 1435 352 1430.33333333 358 1421 c 128
 364 1411.66666667 367 1396.66666667 367 1376 c 2
 367 827 l 1
 1079 827 l 1
 1079 1376 l 2
 1079 1389.33333333 1079.83333333 1399.66666667 1081.5 1407 c 128
 1083.16666667 1414.33333333 1087.66666667 1420.83333333 1095 1426.5 c 128
 1102.33333333 1432.16666667 1113.33333333 1435 1128 1435 c 2
EndSplineSet
Fore
SplineSet
220 0 m 2
 186.666666667 0 170 18.3333333333 170 55 c 2
 170 1379 l 2
 170 1415.66666667 186.666666667 1434 220 1434 c 2
 312 1434 l 2
 345.333333333 1434 362 1415.66666667 362 1379 c 2
 362 828 l 1
 1060 828 l 1
 1060 1379 l 2
 1060 1415.66666667 1076.66666667 1434 1110 1434 c 2
 1202 1434 l 2
 1235.33333333 1434 1252 1415.66666667 1252 1379 c 2
 1252 55 l 2
 1252 18.3333333333 1235.33333333 0 1202 0 c 2
 1110 0 l 2
 1076.66666667 0 1060 18.3333333333 1060 55 c 2
 1060 664 l 1
 362 664 l 1
 362 55 l 2
 362 18.3333333333 345.333333333 0 312 0 c 2
 220 0 l 2
EndSplineSet
Validated: 524289
EndChar

StartChar: afii10033
Encoding: 1055 1055 54
Width: 1416
Flags: W
HStem: 0 21G<203.333 328.667 1087.33 1212.67> 1270 164<362 1054>
VStem: 170 192<0.214844 1270> 1054 192<0.214844 1270>
LayerCount: 2
Fore
SplineSet
220 0 m 2
 186.666666667 0 170 18.3333333333 170 55 c 2
 170 1379 l 2
 170 1415.66666667 186.666666667 1434 220 1434 c 2
 1196 1434 l 2
 1229.33333333 1434 1246 1415.66666667 1246 1379 c 2
 1246 55 l 2
 1246 18.3333333333 1229.33333333 0 1196 0 c 2
 1104 0 l 2
 1070.66666667 0 1054 18.3333333333 1054 55 c 2
 1054 1270 l 1
 362 1270 l 1
 362 55 l 2
 362 18.3333333333 345.333333333 0 312 0 c 2
 220 0 l 2
EndSplineSet
Validated: 524289
EndChar

StartChar: E
Encoding: 69 69 55
Width: 1270
Flags: W
HStem: 0 164<362 1180> 662 164<362 1090> 1270 164<362 1150>
VStem: 170 192<164 662 826 1270>
LayerCount: 2
Fore
SplineSet
220 0 m 2
 186.666666667 0 170 18.3333333333 170 55 c 2
 170 1379 l 2
 170 1415.66666667 186.666666667 1434 220 1434 c 2
 1095 1434 l 2
 1131.66666667 1434 1150 1419 1150 1389 c 2
 1150 1315 l 2
 1150 1285 1131.66666667 1270 1095 1270 c 2
 362 1270 l 9
 362 826 l 1
 1035 826 l 2
 1071.66666667 826 1090 811 1090 781 c 2
 1090 707 l 2
 1090 677 1071.66666667 662 1035 662 c 2
 362 662 l 1
 362 164 l 17
 1125 164 l 2
 1161.66666667 164 1180 149 1180 119 c 2
 1180 45 l 2
 1180 15 1161.66666667 0 1125 0 c 2
 220 0 l 2
EndSplineSet
Validated: 524289
EndChar

StartChar: O
Encoding: 79 79 60
Width: 1524
Flags: W
HStem: -30 156<547.141 976.859> 1308 156<547.141 976.859>
VStem: 92 205<418.898 1015.1> 1227 205<418.898 1015.1>
LayerCount: 2
Fore
SplineSet
92 717 m 256
 92 950.333333333 149.5 1133.16666667 264.5 1265.5 c 0
 379.5 1397.83333333 545.333333333 1464 762 1464 c 256
 978.666666667 1464 1144.5 1397.83333333 1259.5 1265.5 c 0
 1374.5 1133.16666667 1432 950.333333333 1432 717 c 256
 1432 483.666666667 1374.5 300.833333333 1259.5 168.5 c 0
 1144.5 36.1666666667 978.666666667 -30 762 -30 c 256
 545.333333333 -30 379.5 36.1666666667 264.5 168.5 c 0
 149.5 300.833333333 92 483.666666667 92 717 c 256
297 717 m 256
 297 530.333333333 335.333333333 385.166666667 412 281.5 c 0
 488.666666667 177.833333333 605.333333333 126 762 126 c 256
 918.666666667 126 1035.33333333 177.833333333 1112 281.5 c 0
 1188.66666667 385.166666667 1227 530.333333333 1227 717 c 256
 1227 903.666666667 1188.66666667 1048.83333333 1112 1152.5 c 0
 1035.33333333 1256.16666667 918.666666667 1308 762 1308 c 256
 605.333333333 1308 488.666666667 1256.16666667 412 1152.5 c 0
 335.333333333 1048.83333333 297 903.666666667 297 717 c 256
EndSplineSet
Validated: 524289
EndChar

StartChar: s
Encoding: 115 115 61
Width: 944
Flags: W
HStem: -17 130<269.385 631.19> 932 135<316.985 655.564>
VStem: 96 176<682.84 886.922> 683 186<165.558 382.038>
LayerCount: 2
Fore
SplineSet
83 98 m 256
 62.3333333333 117.333333333 58 135.333333333 70 152 c 2
 115 215 l 2
 129.666666667 235 151.333333333 234 180 212 c 256
 219.333333333 182 263.166666667 158 311.5 140 c 0
 359.833333333 122 415 113 477 113 c 256
 513.666666667 113 546.333333333 117.5 575 126.5 c 0
 603.666666667 135.5 628.833333333 152.333333333 650.5 177 c 0
 672.166666667 201.666666667 683 234.666666667 683 276 c 256
 683 300 677.833333333 322.666666667 667.5 344 c 0
 657.166666667 365.333333333 641.166666667 382.5 619.5 395.5 c 0
 597.833333333 408.5 576.666666667 418.666666667 556 426 c 256
 522 438.666666667 488.166666667 449.166666667 454.5 457.5 c 0
 420.833333333 465.833333333 376.666666667 478.666666667 322 496 c 256
 285.333333333 507.333333333 250.666666667 523.5 218 544.5 c 0
 185.333333333 565.5 156.833333333 594 132.5 630 c 0
 108.166666667 666 96 715.666666667 96 779 c 256
 96 843.666666667 115.666666667 899.333333333 155 946 c 0
 194.333333333 992.666666667 243.666666667 1024.5 303 1041.5 c 0
 362.333333333 1058.5 420 1067 476 1067 c 256
 558.666666667 1067 625.166666667 1057.5 675.5 1038.5 c 24
 725.833333333 1019.5 769.333333333 997 806 971 c 256
 827.333333333 955.666666667 830.333333333 938 815 918 c 26
 770 858 l 18
 756 838.666666667 734.333333333 839.333333333 705 860 c 256
 680.333333333 877.333333333 645.333333333 893.666666667 600 909 c 0
 554.666666667 924.333333333 515 932 481 932 c 256
 439 932 403 927.333333333 373 918 c 0
 343 908.666666667 318.666666667 892.666666667 300 870 c 0
 281.333333333 847.333333333 272 820.666666667 272 790 c 256
 272 766.666666667 275.666666667 745.833333333 283 727.5 c 0
 290.333333333 709.166666667 304 692.333333333 324 677 c 0
 344 661.666666667 372 649.333333333 408 640 c 256
 464 625.333333333 515.166666667 612 561.5 600 c 0
 607.833333333 588 649.666666667 573.333333333 687 556 c 256
 735.666666667 533.333333333 773.166666667 508.333333333 799.5 481 c 0
 825.833333333 453.666666667 844 424.166666667 854 392.5 c 0
 864 360.833333333 869 325.666666667 869 287 c 256
 869 215.666666667 847.833333333 155.333333333 805.5 106 c 0
 763.166666667 56.6666666667 716 23.8333333333 664 7.5 c 0
 612 -8.83333333333 549.333333333 -17 476 -17 c 256
 376.666666667 -17 291.5 -2.83333333333 220.5 25.5 c 24
 149.5 53.8333333333 103.666666667 78 83 98 c 256
EndSplineSet
Validated: 524321
EndChar

StartChar: afii10040
Encoding: 1062 1062 62
Width: 1486
Flags: W
HStem: -370 21G<1282.67 1395.33> 0 164<362 1048 1240 1256> 1414 20G<203.333 328.667 1081.33 1206.67>
VStem: 170 192<164 1433.79> 1048 192<164 1433.79> 1256 166<-370 0>
LayerCount: 2
Back
SplineSet
1362 -397 m 5
 1308 -397 l 6
 1286.66666667 -397 1272.5 -393.833333333 1265.5 -387.5 c 132
 1258.5 -381.166666667 1255 -368.666666667 1255 -350 c 6
 1255 0 l 5
 221 0 l 1
 202.333333333 2.66666666667 190 7 184 13 c 0
 177.333333333 21 174 32.3333333333 174 47 c 2
 174 1380 l 2
 174 1390.66666667 174.666666667 1399.16666667 176 1405.5 c 128
 177.333333333 1411.83333333 181.833333333 1418.5 189.5 1425.5 c 128
 197.166666667 1432.5 208.333333333 1436 223 1436 c 2
 299 1436 l 2
 315.666666667 1436 328.5 1435 337.5 1433 c 128
 346.5 1431 353 1426.5 357 1419.5 c 128
 361 1412.5 363.333333333 1406 364 1400 c 128
 364.666666667 1394 365 1383.33333333 365 1368 c 2
 365 166 l 1
 1069 166 l 1
 1069 1372 l 2
 1069 1388.66666667 1071 1402 1075 1412 c 128
 1079 1422 1082.5 1427.83333333 1085.5 1429.5 c 128
 1088.5 1431.16666667 1091.33333333 1432 1094 1432 c 2
 1104.66666667 1434.66666667 1112.66666667 1436 1118 1436 c 2
 1194 1436 l 2
 1210.66666667 1436 1223.5 1435 1232.5 1433 c 128
 1241.5 1431 1248 1426.5 1252 1419.5 c 128
 1256 1412.5 1258.33333333 1406 1259 1400 c 128
 1259.66666667 1394 1260 1383.33333333 1260 1368 c 2
 1260 166 l 5
 1346 166 l 6
 1356 166 1364 165.333333333 1370 164 c 132
 1376 162.666666667 1381.66666667 158.833333333 1387 152.5 c 132
 1392.33333333 146.166666667 1395 137 1395 125 c 6
 1395 -356 l 6
 1395 -369.333333333 1392.5 -379 1387.5 -385 c 132
 1382.5 -391 1374 -395 1362 -397 c 5
EndSplineSet
Fore
SplineSet
220 0 m 2
 186.666666667 0 170 18.3333333333 170 55 c 2
 170 1379 l 2
 170 1415.66666667 186.666666667 1434 220 1434 c 2
 312 1434 l 2
 345.333333333 1434 362 1415.66666667 362 1379 c 2
 362 164 l 1
 1048 164 l 1
 1048 1379 l 2
 1048 1415.66666667 1064.66666667 1434 1098 1434 c 2
 1190 1434 l 2
 1223.33333333 1434 1240 1415.66666667 1240 1379 c 2
 1240 164 l 1
 1372 164 l 2
 1405.33333333 164 1422 145.666666667 1422 109 c 2
 1422 -320 l 2
 1422 -353.333333333 1408.66666667 -370 1382 -370 c 2
 1296 -370 l 2
 1269.33333333 -370 1256 -353.333333333 1256 -320 c 2
 1256 0 l 1
 220 0 l 2
EndSplineSet
Validated: 524289
EndChar

StartChar: afii10042
Encoding: 1064 1064 63
Width: 2040
Flags: W
HStem: 0 164<362 924 1116 1678> 1414 20G<203.333 328.667 957.333 1082.67 1711.33 1836.67>
VStem: 170 192<164 1433.79> 924 192<164 1433.79> 1678 192<164 1433.79>
CounterMasks: 1 38
LayerCount: 2
Fore
SplineSet
220 0 m 2
 186.666666667 0 170 18.3333333333 170 55 c 2
 170 1379 l 2
 170 1415.66666667 186.666666667 1434 220 1434 c 2
 312 1434 l 2
 345.333333333 1434 362 1415.66666667 362 1379 c 2
 362 164 l 1
 924 164 l 1
 924 1379 l 2
 924 1415.66666667 940.666666667 1434 974 1434 c 2
 1066 1434 l 2
 1099.33333333 1434 1116 1415.66666667 1116 1379 c 2
 1116 164 l 1
 1678 164 l 1
 1678 1379 l 2
 1678 1415.66666667 1694.66666667 1434 1728 1434 c 2
 1820 1434 l 2
 1853.33333333 1434 1870 1415.66666667 1870 1379 c 2
 1870 55 l 2
 1870 18.3333333333 1853.33333333 0 1820 0 c 2
 220 0 l 2
EndSplineSet
Validated: 524289
EndChar

StartChar: afii10041
Encoding: 1063 1063 64
Width: 1286
Flags: W
HStem: 0 21G<957.333 1082.67> 566 154<374.28 809.617> 1414 20G<153.333 278.667 957.333 1082.67>
VStem: 120 192<782.014 1433.79> 924 192<0.214844 653 770.676 1433.79>
LayerCount: 2
Fore
SplineSet
120 912 m 2
 120 1379 l 2
 120 1415.66666667 136.666666667 1434 170 1434 c 2
 262 1434 l 2
 295.333333333 1434 312 1415.66666667 312 1379 c 2
 312 960 l 2
 312 866.666666667 330.333333333 803.333333333 367 770 c 0
 403.666666667 736.666666667 454 720 518 720 c 256
 570 720 632 723.333333333 704 730 c 0
 776 736.666666667 849.333333333 755.666666667 924 787 c 1
 924 1379 l 2
 924 1415.66666667 940.666666667 1434 974 1434 c 2
 1066 1434 l 2
 1099.33333333 1434 1116 1415.66666667 1116 1379 c 2
 1116 55 l 2
 1116 18.3333333333 1099.33333333 0 1066 0 c 2
 974 0 l 2
 940.666666667 0 924 18.3333333333 924 55 c 2
 924 573 l 2
 924 599.666666667 924.666666667 626.333333333 926 653 c 1
 922 653 l 1
 859.333333333 625.666666667 796 604.333333333 732 589 c 0
 668 573.666666667 588.333333333 566 493 566 c 256
 367 566 273.333333333 600.166666667 212 668.5 c 0
 150.666666667 736.833333333 120 818 120 912 c 2
EndSplineSet
Validated: 524289
EndChar

StartChar: uni0237
Encoding: 567 567 65
Width: 466
Flags: W
HStem: -417 130<-88.688 114.178> 1030 20G<178 294>
VStem: 148 176<-227.158 1050>
LayerCount: 2
Fore
SplineSet
-84 -397 m 256
 -98.6666666667 -390.333333333 -104.666666667 -379.666666667 -102 -365 c 258
 -85 -284 l 258
 -81.6666666667 -268 -73.3333333333 -263 -60 -269 c 256
 -34 -281 -2 -287 36 -287 c 256
 75.3333333333 -287 103.833333333 -267.666666667 121.5 -229 c 0
 139.166666667 -190.333333333 148 -112 148 6 c 2
 148 1005 l 2
 148 1035 163 1050 193 1050 c 2
 279 1050 l 2
 309 1050 324 1035 324 1005 c 2
 324 -93 l 2
 324 -222.333333333 299.5 -308.666666667 250.5 -352 c 0
 201.5 -395.333333333 140.666666667 -417 68 -417 c 256
 -2.66666666667 -417 -53.3333333333 -410.333333333 -84 -397 c 256
EndSplineSet
Validated: 524289
EndChar

StartChar: four
Encoding: 52 52 67
Width: 1110
Flags: W
HStem: 0 21G<684 800> 354 164<243 654 830 1046> 1420 20G<682 799.333>
VStem: 654 176<4.5e-07 354 518 1153>
LayerCount: 2
Back
SplineSet
260 556.5 m 2
 809 1404 l 1026
80 556.5 m 2
 629 1404 l 1026
EndSplineSet
Fore
SplineSet
109 354 m 2
 79 354 64 369 64 399 c 2
 64 487 l 2
 64 508.333333333 72 531.333333333 88 556 c 2
 637 1404 l 2
 652.333333333 1428 671 1440 693 1440 c 2
 784 1440 l 2
 814.666666667 1440 830 1425 830 1395 c 2
 830 518 l 1
 1001 518 l 2
 1031 518 1046 503 1046 473 c 2
 1046 399 l 2
 1046 369 1031.33333333 354 1002 354 c 2
 830 354 l 1
 830 45 l 2
 830 15 815 0 785 0 c 2
 699 0 l 2
 669 0 654 15 654 45 c 2
 654 354 l 1
 109 354 l 2
243 518 m 1
 654 518 l 1
 654 1093 l 2
 654 1113 654.666666667 1133 656 1153 c 1
 654 1153 l 1
 243 518 l 1
EndSplineSet
Validated: 524289
EndChar

StartChar: zero
Encoding: 48 48 68
Width: 1110
Flags: W
HStem: -30 144<402.123 707.877> 1308 144<402.123 707.877>
VStem: 93 186<309.528 1112.47> 831 186<309.528 1112.47>
LayerCount: 2
Fore
SplineSet
93 711 m 256
 93 944.333333333 125 1126.16666667 189 1256.5 c 0
 253 1386.83333333 375 1452 555 1452 c 256
 735 1452 857 1386.83333333 921 1256.5 c 0
 985 1126.16666667 1017 944.333333333 1017 711 c 256
 1017 477.666666667 985 295.833333333 921 165.5 c 0
 857 35.1666666667 735 -30 555 -30 c 256
 375 -30 253 35.1666666667 189 165.5 c 0
 125 295.833333333 93 477.666666667 93 711 c 256
279 711 m 256
 279 524.333333333 295 378.166666667 327 272.5 c 0
 359 166.833333333 435 114 555 114 c 256
 675 114 751 166.833333333 783 272.5 c 0
 815 378.166666667 831 524.333333333 831 711 c 256
 831 897.666666667 815 1043.83333333 783 1149.5 c 0
 751 1255.16666667 675 1308 555 1308 c 256
 435 1308 359 1255.16666667 327 1149.5 c 0
 295 1043.83333333 279 897.666666667 279 711 c 256
EndSplineSet
Validated: 524289
EndChar

StartChar: seven
Encoding: 55 55 69
Width: 1100
Flags: W
HStem: -6 21G<383 504> 1258 164<88 831>
VStem: 353 181<-6 476.756>
LayerCount: 2
Back
SplineSet
133 1258 m 2
 103 1258 88 1273 88 1303 c 2
 88 1377 l 2
 88 1407 103 1422 133 1422 c 2
 967 1422 l 2
 997 1422 1012 1407 1012 1377 c 2
 1012 1308 l 2
 1012 1285.33333333 1000 1261.33333333 976 1236 c 0
 846 1098 739.833333333 940 657.5 762 c 128
 575.166666667 584 534 381 534 153 c 2
 534 45 l 2
 534 15 519 0 489 0 c 2
 398 0 l 2
 368 0 353 15 353 45 c 2
 353 108 l 2
 353 394 406.666666667 633.5 514 826.5 c 128
 621.333333333 1019.5 721.666666667 1163.33333333 815 1258 c 1
 815 1260 l 1
 795 1258.66666667 775 1258 755 1258 c 2
 133 1258 l 2
EndSplineSet
Fore
SplineSet
133 1258 m 2
 103 1258 88 1273 88 1303 c 2
 88 1377 l 2
 88 1407 103 1422 133 1422 c 2
 967 1422 l 2
 997 1422 1012 1407 1012 1377 c 2
 1012 1308 l 2
 1012 1286.66666667 1000 1262.66666667 976 1236 c 0
 842.666666667 1084.66666667 735.666666667 917.166666667 655 733.5 c 0
 574.333333333 549.833333333 534 349.666666667 534 133 c 2
 534 39 l 2
 534 9 519 -6 489 -6 c 2
 398 -6 l 2
 368 -6 353 9 353 39 c 2
 353 98 l 2
 353 338.666666667 398.666666667 550.5 490 733.5 c 0
 581.333333333 916.5 695 1091.33333333 831 1258 c 1
 831 1260 l 1
 811 1258.66666667 791 1258 771 1258 c 2
 133 1258 l 2
EndSplineSet
Validated: 524289
EndChar

StartChar: afii10046
Encoding: 1068 1068 70
Width: 1328
Flags: W
HStem: 0 164<362 904.393> 664 164<362 904.393> 1414 20G<203.333 328.667>
VStem: 170 192<164 664 828 1433.79> 1033 205<271.344 556.656>
LayerCount: 2
Back
SplineSet
367 164 m 5
 655 164 l 6
 700.333333333 164 737 164.666666667 765 166 c 132
 793 167.333333333 826.5 172.166666667 865.5 180.5 c 132
 904.5 188.833333333 939 201 969 217 c 4
 1015.66666667 242.333333333 1048 273.5 1066 310.5 c 132
 1084 347.5 1093 382 1093 414 c 4
 1093 516 1031.66666667 590.333333333 909 637 c 4
 853 655 772.666666667 664 668 664 c 6
 367 664 l 5
 367 164 l 5
297 1434 m 5
 322 1435 l 6
 334.222 1433.78 343.888666667 1430.94666667 351 1426.5 c 4
 354.733333333 1424.16666667 358.4 1418.5 362 1409.5 c 4
 362.666666667 1407.83333333 363.5 1403.66666667 364.5 1397 c 132
 365.5 1390.33333333 366.333333333 1386 367 1384 c 5
 367 827 l 5
 690 827 l 6
 753.333333333 827 807.666666667 825 853 821 c 132
 898.333333333 817 945.666666667 808.666666667 995 796 c 4
 1094.21333333 770.526 1171.54666667 716.859333333 1227 635 c 4
 1267.66666667 572.333333333 1288 498.666666667 1288 414 c 4
 1288 378.666666667 1284.16666667 344.166666667 1276.5 310.5 c 132
 1268.83333333 276.833333333 1254.5 242 1233.5 206 c 132
 1212.5 170 1185.83333333 138.333333333 1153.5 111 c 132
 1121.16666667 83.6666666667 1077.83333333 60.1666666667 1023.5 40.5 c 132
 969.166666667 20.8333333333 907.333333333 8.66666666667 838 4 c 4
 808 1.33333333333 762 0 700 0 c 6
 252 0 l 6
 235.333333333 0 222.333333333 0.666666666667 213 2 c 4
 210.333333333 2 206.333333333 3.33333333333 201 6 c 5
 199 6 196.5 7 193.5 9 c 132
 190.5 11 187.5 15.5 184.5 22.5 c 132
 181.5 29.5 180 38.6666666667 180 50 c 6
 180 1372 l 6
 180 1386 180.833333333 1396.66666667 182.5 1404 c 132
 184.166666667 1411.33333333 188.5 1418.16666667 195.5 1424.5 c 132
 202.5 1430.83333333 213 1434 227 1434 c 6
 297 1434 l 5
EndSplineSet
Fore
SplineSet
220 0 m 2
 186.666666667 0 170 18.3333333333 170 55 c 2
 170 1379 l 2
 170 1415.66666667 186.666666667 1434 220 1434 c 2
 312 1434 l 2
 345.333333333 1434 362 1415.66666667 362 1379 c 2
 362 828 l 1
 650 828 l 2
 874.666666667 828 1028.83333333 790.666666667 1112.5 716 c 0
 1196.16666667 641.333333333 1238 540.666666667 1238 414 c 256
 1238 287.333333333 1196.16666667 186.666666667 1112.5 112 c 0
 1028.83333333 37.3333333333 874.666666667 0 650 0 c 2
 220 0 l 2
362 164 m 1
 618 164 l 2
 761.333333333 164 866.333333333 183.166666667 933 221.5 c 0
 999.666666667 259.833333333 1033 324 1033 414 c 256
 1033 504 999.666666667 568.166666667 933 606.5 c 0
 866.333333333 644.833333333 761.333333333 664 618 664 c 2
 362 664 l 1
 362 164 l 1
EndSplineSet
Validated: 524289
EndChar

StartChar: afii10020
Encoding: 1043 1043 71
Width: 1106
Flags: W
HStem: 0 21G<203.333 328.667> 1270 164<362 1070>
VStem: 170 192<0.214844 1270>
LayerCount: 2
Back
SplineSet
1063 1376 m 6
 1063 1326 l 6
 1063 1312.66666667 1061.66666667 1302.16666667 1059 1294.5 c 132
 1056.33333333 1286.83333333 1051.66666667 1281.5 1045 1278.5 c 132
 1038.33333333 1275.5 1032.66666667 1273.66666667 1028 1273 c 132
 1023.33333333 1272.33333333 1016 1272 1006 1272 c 6
 361 1272 l 5
 361 55 l 6
 361 37 358 23.3333333333 352 14 c 132
 346 4.66666666667 333 0 313 0 c 6
 207 0 l 6
 182.333333333 2.66666666667 170 19.6666666667 170 51 c 6
 170 1366 l 6
 170 1379.33333333 170.333333333 1389.16666667 171 1395.5 c 132
 171.666666667 1401.83333333 173.5 1408.5 176.5 1415.5 c 132
 179.5 1422.5 184.666666667 1427.33333333 192 1430 c 132
 199.333333333 1432.66666667 209 1434 221 1434 c 6
 1008 1434 l 6
 1030.66666667 1434 1045.5 1430.16666667 1052.5 1422.5 c 132
 1059.5 1414.83333333 1063 1399.33333333 1063 1376 c 6
EndSplineSet
Fore
SplineSet
220 0 m 2
 186.666666667 0 170 18.3333333333 170 55 c 2
 170 1379 l 2
 170 1415.66666667 186.666666667 1434 220 1434 c 2
 1015 1434 l 2
 1051.66666667 1434 1070 1419 1070 1389 c 2
 1070 1315 l 2
 1070 1285 1051.66666667 1270 1015 1270 c 2
 362 1270 l 9
 362 55 l 2
 362 18.3333333333 345.333333333 0 312 0 c 2
 220 0 l 2
EndSplineSet
Validated: 524289
EndChar

StartChar: afii10018
Encoding: 1041 1041 72
Width: 1348
Flags: W
HStem: 0 164<362 914.393> 668 164<362 914.393> 1270 164<362 1130>
VStem: 170 192<164 668 832 1270> 1043 205<272.763 559.237>
LayerCount: 2
Fore
SplineSet
220 0 m 2
 186.666666667 0 170 18.3333333333 170 55 c 2
 170 1379 l 2
 170 1415.66666667 186.666666667 1434 220 1434 c 2
 1075 1434 l 2
 1111.66666667 1434 1130 1419 1130 1389 c 2
 1130 1315 l 2
 1130 1285 1111.66666667 1270 1075 1270 c 2
 362 1270 l 1
 362 832 l 1
 660 832 l 2
 884.666666667 832 1038.83333333 794.5 1122.5 719.5 c 0
 1206.16666667 644.5 1248 543.333333333 1248 416 c 256
 1248 288.666666667 1206.16666667 187.5 1122.5 112.5 c 0
 1038.83333333 37.5 884.666666667 0 660 0 c 2
 220 0 l 2
362 164 m 1
 628 164 l 2
 771.333333333 164 876.333333333 183.5 943 222.5 c 0
 1009.66666667 261.5 1043 326 1043 416 c 256
 1043 506 1009.66666667 570.5 943 609.5 c 0
 876.333333333 648.5 771.333333333 668 628 668 c 2
 362 668 l 1
 362 164 l 1
EndSplineSet
Validated: 524289
EndChar

StartChar: afii10194
Encoding: 1123 1123 73
Width: 1275
Flags: W
HStem: 0 131<576 966.434> 488 130<576 966.434> 918 132<50 400 576 926> 1456 20G<430 546>
VStem: 400 176<131 488 618 918 1050 1476> 1014 186<177.723 442.195>
LayerCount: 2
Fore
SplineSet
95 918 m 6
 65 918 50 929.666666667 50 953 c 6
 50 1015 l 6
 50 1038.33333333 65 1050 95 1050 c 6
 400 1050 l 5
 400 1431 l 2
 400 1461 415 1476 445 1476 c 2
 531 1476 l 2
 561 1476 576 1461 576 1431 c 2
 576 1050 l 5
 881 1050 l 6
 911 1050 926 1038.33333333 926 1015 c 6
 926 953 l 6
 926 929.666666667 911 918 881 918 c 6
 576 918 l 5
 576 618 l 1
 798 618 l 2
 951.333333333 618 1056.66666667 589.833333333 1114 533.5 c 0
 1171.33333333 477.166666667 1200 402.333333333 1200 309 c 256
 1200 215.666666667 1171.33333333 140.833333333 1114 84.5 c 0
 1056.66666667 28.1666666667 951.333333333 0 798 0 c 2
 445 0 l 2
 415 0 400 15 400 45 c 2
 400 918 l 5
 95 918 l 6
576 131 m 1
 752 131 l 2
 845.333333333 131 912.333333333 142.333333333 953 165 c 0
 993.666666667 187.666666667 1014 235.666666667 1014 309 c 256
 1014 382.333333333 993.666666667 430.5 953 453.5 c 0
 912.333333333 476.5 845.333333333 488 752 488 c 2
 576 488 l 1
 576 131 l 1
EndSplineSet
Validated: 524289
EndChar

StartChar: period
Encoding: 46 46 74
Width: 600
Flags: W
HStem: 0 212<199 401>
VStem: 199 202<4.5e-07 212>
LayerCount: 2
Back
SplineSet
399 45 m 2
 399 15 386.666666667 0 362 0 c 2
 246 0 l 2
 227.333333333 0 214.333333333 2.5 207 7.5 c 128
 199.666666667 12.5 196 24 196 42 c 1
 197 57 l 1
 197 158 l 2
 197 188 209 203 233 203 c 2
 360 203 l 2
 374 203 384.166666667 200.333333333 390.5 195 c 128
 396.833333333 189.666666667 400 178.333333333 400 161 c 1
 399 147 l 1
 399 45 l 2
EndSplineSet
Fore
SplineSet
244 0 m 2
 214 0 199 15 199 45 c 2
 199 167 l 2
 199 197 214 212 244 212 c 2
 356 212 l 2
 386 212 401 197 401 167 c 2
 401 45 l 2
 401 15 386 0 356 0 c 2
 244 0 l 2
EndSplineSet
Validated: 1
EndChar

StartChar: h
Encoding: 104 104 75
Width: 1128
Flags: W
HStem: 0 21G<172 288 842 958> 937 130<441.349 736.543> 1456 20G<172 288>
VStem: 142 176<4.5e-07 826.553 925 1476> 812 176<4.5e-07 860.361>
LayerCount: 2
Fore
SplineSet
187 0 m 2
 157 0 142 15 142 45 c 2
 142 1431 l 2
 142 1461 157 1476 187 1476 c 2
 273 1476 l 2
 303 1476 318 1461 318 1431 c 2
 318 985 l 2
 318 965 317.333333333 945 316 925 c 1
 320 925 l 1
 363.333333333 973 410 1008.66666667 460 1032 c 0
 510 1055.33333333 572.333333333 1067 647 1067 c 256
 768.333333333 1067 855.5 1032.83333333 908.5 964.5 c 0
 961.5 896.166666667 988 802.666666667 988 684 c 2
 988 45 l 2
 988 15 973 0 943 0 c 2
 857 0 l 2
 827 0 812 15 812 45 c 2
 812 636 l 2
 812 766.666666667 790.333333333 849.5 747 884.5 c 0
 703.666666667 919.5 648.666666667 937 582 937 c 256
 495.333333333 937 429.666666667 911.166666667 385 859.5 c 0
 340.333333333 807.833333333 318 719.333333333 318 594 c 2
 318 45 l 2
 318 15 303 0 273 0 c 2
 187 0 l 2
EndSplineSet
Validated: 524289
EndChar

StartChar: b
Encoding: 98 98 76
Width: 1119
Flags: W
HStem: -17 130<430.682 722.215> 0 21G<172 282.875> 937 130<430.682 722.215> 1456 20G<172 288>
VStem: 142 176<0.0439453 125 222.317 827.683 925 1476> 848 186<266.624 783.376>
LayerCount: 2
Fore
SplineSet
187 0 m 2x7c
 157 0 142 15 142 45 c 2
 142 1431 l 2
 142 1461 157 1476 187 1476 c 2
 273 1476 l 6
 303 1476 318 1461 318 1431 c 6
 318 986 l 6
 318 965.333333333 317.333333333 945 316 925 c 5
 318 925 l 5
 354.666666667 969 396 1003.66666667 442 1029 c 4
 488 1054.33333333 549.333333333 1067 626 1067 c 260
 759.333333333 1067 860.666666667 1012.5 930 903.5 c 4
 999.333333333 794.5 1034 668.333333333 1034 525 c 260
 1034 381.666666667 999.333333333 255.5 930 146.5 c 4
 860.666666667 37.5 759.333333333 -17 626 -17 c 260xbc
 549.333333333 -17 488 -4.33333333333 442 21 c 4
 396 46.3333333333 354.666666667 81 318 125 c 5
 316 125 l 5
 310 45 l 6
 307.75 15 294.75 0 271 0 c 6
 187 0 l 2x7c
318 410 m 6
 318 310 341.833333333 235.5 389.5 186.5 c 4
 437.166666667 137.5 497 113 569 113 c 260
 670.333333333 113 742.166666667 151 784.5 227 c 4
 826.833333333 303 848 402.333333333 848 525 c 260
 848 647.666666667 826.833333333 747 784.5 823 c 4
 742.166666667 899 670.333333333 937 569 937 c 260
 497 937 437.166666667 912.5 389.5 863.5 c 4
 341.833333333 814.5 318 740 318 640 c 6
 318 410 l 6
EndSplineSet
Validated: 8912897
EndChar

StartChar: d
Encoding: 100 100 77
Width: 1119
Flags: W
HStem: -17 130<396.785 688.318> 0 21G<836.125 947> 937 130<396.785 688.318> 1456 20G<831 947>
VStem: 85 186<266.624 783.376> 801 176<0.0439453 125 222.317 827.683 925 1476>
LayerCount: 2
Fore
SplineSet
85 525 m 256xbc
 85 668.333333333 119.666666667 794.5 189 903.5 c 0
 258.333333333 1012.5 359.666666667 1067 493 1067 c 256
 569.666666667 1067 631 1054.33333333 677 1029 c 0
 723 1003.66666667 764.333333333 969 801 925 c 1
 803 925 l 1
 801.666666667 945 801 965.333333333 801 986 c 2
 801 1431 l 2
 801 1461 816 1476 846 1476 c 2
 932 1476 l 2
 962 1476 977 1461 977 1431 c 2
 977 45 l 2
 977 15 962 0 932 0 c 2
 848 0 l 2
 824.25 0 811.25 15 809 45 c 2
 803 125 l 1
 801 125 l 1
 764.333333333 81 723 46.3333333333 677 21 c 0x7c
 631 -4.33333333333 569.666666667 -17 493 -17 c 256
 359.666666667 -17 258.333333333 37.5 189 146.5 c 0
 119.666666667 255.5 85 381.666666667 85 525 c 256xbc
271 525 m 256
 271 402.333333333 292.166666667 303 334.5 227 c 0
 376.833333333 151 448.666666667 113 550 113 c 256xbc
 622 113 681.833333333 137.5 729.5 186.5 c 0
 777.166666667 235.5 801 310 801 410 c 2
 801 640 l 2
 801 740 777.166666667 814.5 729.5 863.5 c 0
 681.833333333 912.5 622 937 550 937 c 256
 448.666666667 937 376.833333333 899 334.5 823 c 0
 292.166666667 747 271 647.666666667 271 525 c 256
EndSplineSet
Validated: 8912897
EndChar

StartChar: X
Encoding: 88 88 78
Width: 1310
Flags: HMW
HStem: 0 21G<44.5 223 1087 1265.5> 607 266<522 788> 1414 20G<78.5 256 1054 1231.5>
DStem2: 59 66 271 39 0.58031 0.814395<21.9079 786.453 1003.08 1710.96> 304 1395 93 1368 0.58031 -0.814395<-79.0749 628.803 845.433 1611.1>
LayerCount: 2
Back
SplineSet
1035 1434 m 25
 10 0 l 1049
1266 1434 m 25
 242 0 l 1049
275 1434 m 25
 1300 0 l 1049
44 1434 m 25
 1068 0 l 1049
EndSplineSet
Fore
SplineSet
77 0 m 2
 33.6666666667 0 27.6666666667 22 59 66 c 2
 539 740 l 1
 93 1368 l 2
 61.6666666667 1412 67.6666666667 1434 111 1434 c 2
 234 1434 l 2
 263.333333333 1434 286.666666667 1421 304 1395 c 2
 655 873 l 1
 1006 1395 l 2
 1023.33333333 1421 1046.66666667 1434 1076 1434 c 2
 1199 1434 l 2
 1242.33333333 1434 1248.33333333 1412 1217 1368 c 2
 771 740 l 1
 1251 66 l 2
 1282.33333333 22 1276.33333333 0 1233 0 c 2
 1109 0 l 2
 1079.66666667 0 1056.33333333 13 1039 39 c 2
 655 607 l 1
 271 39 l 2
 253.666666667 13 230.333333333 0 201 0 c 2
 77 0 l 2
EndSplineSet
Validated: 524321
EndChar

StartChar: comma
Encoding: 44 44 82
Width: 600
Flags: W
HStem: 0 212<197 294>
VStem: 197 206<0.330566 212> 294 109<-164.908 0>
LayerCount: 2
Fore
SplineSet
242 0 m 2xa0
 212 0 197 15 197 45 c 2
 197 167 l 2
 197 197 212 212 242 212 c 2
 358 212 l 2
 388 212 403 197 403 167 c 2
 403 45 l 258xc0
 403 -25 395.5 -86.1666666667 380.5 -138.5 c 0
 365.5 -190.833333333 336 -236.666666667 292 -276 c 256
 277.333333333 -288.666666667 265 -290.333333333 255 -281 c 2
 210 -239 l 2
 200 -229.666666667 202.333333333 -218.333333333 217 -205 c 256
 239.666666667 -185 258.166666667 -156.166666667 272.5 -118.5 c 0
 286.833333333 -80.8333333333 294 -41.3333333333 294 0 c 9
 242 0 l 2xa0
EndSplineSet
Validated: 8912897
EndChar

StartChar: afii10028
Encoding: 1050 1050 83
Width: 1270
Flags: W
HStem: 0 21G<203.333 328.667 1049.33 1212.33> 653 160<362 567.797> 1414 20G<203.333 328.667 1029.67 1182.33>
VStem: 170 192<0.214844 653 813 1433.79>
LayerCount: 2
Fore
SplineSet
220 0 m 2
 186.666666667 0 170 18.3333333333 170 55 c 2
 170 1379 l 2
 170 1415.66666667 186.666666667 1434 220 1434 c 2
 312 1434 l 2
 345.333333333 1434 362 1415.66666667 362 1379 c 2
 362 813 l 1
 404 813 l 2
 480 813 540.833333333 832.166666667 586.5 870.5 c 0
 632.166666667 908.833333333 674.666666667 956.666666667 714 1014 c 2
 974 1395 l 2
 992 1421 1015.33333333 1434 1044 1434 c 2
 1161 1434 l 2
 1203.66666667 1434 1209.66666667 1412 1179 1368 c 2
 872 932 l 2
 836 881.333333333 795.833333333 837.5 751.5 800.5 c 0
 707.166666667 763.5 676.333333333 741.666666667 659 735 c 1
 659 734 l 1
 696.333333333 726 735 708.166666667 775 680.5 c 0
 815 652.833333333 864 594.666666667 922 506 c 2
 1210 66 l 2
 1238.66666667 22 1232.66666667 0 1192 0 c 2
 1065 0 l 2
 1033.66666667 0 1010.33333333 13 995 39 c 2
 774 408 l 2
 730.666666667 480 678.5 538.833333333 617.5 584.5 c 0
 556.5 630.166666667 490.333333333 653 419 653 c 2
 362 653 l 1
 362 55 l 2
 362 18.3333333333 345.333333333 0 312 0 c 2
 220 0 l 2
EndSplineSet
Validated: 524321
EndChar

StartChar: afii10024
Encoding: 1046 1046 84
Width: 1928
Flags: W
HStem: 0 21G<58 220.667 901.333 1026.67 1707.33 1870> 653 160<688.229 868 1060 1239.77> 1414 20G<88 240.667 901.333 1026.67 1687.33 1840>
VStem: 868 192<0.214844 653 813 1433.79>
LayerCount: 2
Fore
SplineSet
78 0 m 2
 38 0 32 22 60 66 c 2
 340 506 l 2
 395.333333333 593.333333333 443 651.166666667 483 679.5 c 0
 523 707.833333333 561.666666667 726 599 734 c 1
 599 735 l 1
 581.666666667 741.666666667 551.666666667 762.833333333 509 798.5 c 0
 466.333333333 834.166666667 426.666666667 878.666666667 390 932 c 2
 91 1368 l 2
 61 1412 67 1434 109 1434 c 2
 226 1434 l 2
 255.333333333 1434 278.666666667 1421 296 1395 c 2
 548 1014 l 2
 588 953.333333333 629.833333333 904.666666667 673.5 868 c 0
 717.166666667 831.333333333 772 813 838 813 c 2
 868 813 l 1
 868 1379 l 2
 868 1415.66666667 884.666666667 1434 918 1434 c 2
 1010 1434 l 2
 1043.33333333 1434 1060 1415.66666667 1060 1379 c 2
 1060 813 l 1
 1090 813 l 2
 1156 813 1210.83333333 831.333333333 1254.5 868 c 0
 1298.16666667 904.666666667 1340 953.333333333 1380 1014 c 2
 1632 1395 l 2
 1649.33333333 1421 1672.66666667 1434 1702 1434 c 2
 1819 1434 l 2
 1861 1434 1867 1412 1837 1368 c 2
 1538 932 l 2
 1501.33333333 878.666666667 1461.66666667 834.166666667 1419 798.5 c 0
 1376.33333333 762.833333333 1346.33333333 741.666666667 1329 735 c 1
 1329 734 l 1
 1366.33333333 726 1405 707.833333333 1445 679.5 c 0
 1485 651.166666667 1532.66666667 593.333333333 1588 506 c 2
 1868 66 l 2
 1896 22 1890 0 1850 0 c 2
 1723 0 l 2
 1691.66666667 0 1668.33333333 13 1653 39 c 2
 1440 408 l 2
 1397.33333333 482 1346.16666667 541.333333333 1286.5 586 c 0
 1226.83333333 630.666666667 1166.33333333 653 1105 653 c 2
 1060 653 l 1
 1060 55 l 2
 1060 18.3333333333 1043.33333333 0 1010 0 c 2
 918 0 l 2
 884.666666667 0 868 18.3333333333 868 55 c 2
 868 653 l 1
 823 653 l 2
 761.666666667 653 701.166666667 630.666666667 641.5 586 c 0
 581.833333333 541.333333333 530.666666667 482 488 408 c 2
 275 39 l 2
 259.666666667 13 236.333333333 0 205 0 c 2
 78 0 l 2
EndSplineSet
Validated: 524321
EndChar

StartChar: P
Encoding: 80 80 85
Width: 1308
Flags: W
HStem: 0 21G<203.333 328.667> 576 164<362 910.19> 1270 164<362 910.19>
VStem: 170 192<0.214844 576 740 1270> 1023 195<839.949 1170.05>
LayerCount: 2
Back
SplineSet
1024 991 m 0
 1024 1048.04666667 1016.16666667 1096.71333333 1000.5 1137 c 0
 993.5 1155 983.833333333 1171.16666667 971.5 1185.5 c 128
 959.166666667 1199.83333333 947.166666667 1211.66666667 935.5 1221 c 128
 923.833333333 1230.33333333 908.833333333 1238.33333333 890.5 1245 c 128
 872.166666667 1251.66666667 855.833333333 1256.66666667 841.5 1260 c 128
 827.166666667 1263.33333333 808.833333333 1266 786.5 1268 c 128
 764.166666667 1270 745.166666667 1271.16666667 729.5 1271.5 c 128
 713.833333333 1271.83333333 694 1272 670 1272 c 2
 359 1272 l 1
 359 717 l 1
 670 717 l 2
 715.333333333 717 753.166666667 718.5 783.5 721.5 c 128
 813.833333333 724.5 845.5 731.333333333 878.5 742 c 128
 911.5 752.666666667 937.666666667 767.5 957 786.5 c 128
 976.333333333 805.5 992.333333333 832.166666667 1005 866.5 c 128
 1017.66666667 900.833333333 1024 942.333333333 1024 991 c 0
292 0 m 2
 218 0 l 2
 198.666666667 0 185.833333333 4.66666666667 179.5 14 c 128
 173.166666667 23.3333333333 170 36.3333333333 170 53 c 2
 170 1384 l 2
 170 1396 171.666666667 1405.66666667 175 1413 c 128
 178.333333333 1420.33333333 181.5 1425 184.5 1427 c 128
 187.5 1429 190.333333333 1430 193 1430 c 1
 198.333333333 1432.66666667 203 1434 207 1434 c 2
 725 1434 l 2
 797.666666667 1434 862.833333333 1425.5 920.5 1408.5 c 128
 978.166666667 1391.5 1025.5 1368.83333333 1062.5 1340.5 c 128
 1099.5 1312.16666667 1130 1278.66666667 1154 1240 c 128
 1178 1201.33333333 1195 1162 1205 1122 c 128
 1215 1082 1220 1039.66666667 1220 995 c 0
 1220 868.333333333 1181 768 1103 694 c 128
 1025 620 915.333333333 579 774 571 c 0
 746.666666667 569.666666667 705 569 649 569 c 2
 361 569 l 1
 361 49 l 2
 361 27.6666666667 356 14.1666666667 346 8.5 c 128
 336 2.83333333333 318 0 292 0 c 2
EndSplineSet
Fore
SplineSet
220 0 m 2
 186.666666667 0 170 18.3333333333 170 55 c 2
 170 1379 l 2
 170 1415.66666667 186.666666667 1434 220 1434 c 2
 640 1434 l 2
 866.666666667 1434 1019.66666667 1395.83333333 1099 1319.5 c 0
 1178.33333333 1243.16666667 1218 1138.33333333 1218 1005 c 256
 1218 871.666666667 1178.33333333 766.833333333 1099 690.5 c 0
 1019.66666667 614.166666667 866.666666667 576 640 576 c 2
 362 576 l 1
 362 55 l 2
 362 18.3333333333 345.333333333 0 312 0 c 2
 220 0 l 2
362 740 m 1
 643 740 l 2
 789.666666667 740 889.666666667 760.833333333 943 802.5 c 0
 996.333333333 844.166666667 1023 911.666666667 1023 1005 c 256
 1023 1098.33333333 996.333333333 1165.83333333 943 1207.5 c 0
 889.666666667 1249.16666667 789.666666667 1270 643 1270 c 2
 362 1270 l 1
 362 740 l 1
EndSplineSet
Validated: 524289
EndChar

StartChar: B
Encoding: 66 66 86
Width: 1358
Flags: W
HStem: 0 164<362 921.981> 664 144<362 836.193> 1270 164<362 894.5>
VStem: 170 192<164 664 808 1270> 991 195<935.644 1185.97> 1043 205<263.769 542.562>
LayerCount: 2
Back
SplineSet
357 811 m 1
 592 811 l 2
 676 811 748.666666667 817.666666667 810 831 c 128
 871.333333333 844.333333333 923.666666667 872.333333333 967 915 c 0
 1004.33333333 954.333333333 1024 1001 1026 1055 c 0
 1026 1066.33333333 1025.16666667 1077 1023.5 1087 c 128
 1021.83333333 1097 1017 1110.83333333 1009 1128.5 c 128
 1001 1146.16666667 990.166666667 1162 976.5 1176 c 128
 962.833333333 1190 942 1204.5 914 1219.5 c 128
 886 1234.5 853 1246.33333333 815 1255 c 0
 765 1266.33333333 688.666666667 1272 586 1272 c 2
 357 1272 l 1
 357 811 l 1
596 164 m 1
 680 163 l 2
 748 163 807.5 168.833333333 858.5 180.5 c 128
 909.5 192.166666667 948.833333333 206.333333333 976.5 223 c 128
 1004.16666667 239.666666667 1026.5 259.666666667 1043.5 283 c 128
 1060.5 306.333333333 1071.5 327.333333333 1076.5 346 c 128
 1081.5 364.666666667 1084 382.166666667 1084 398.5 c 128
 1084 414.833333333 1082.5 430.666666667 1079.5 446 c 128
 1076.5 461.333333333 1071 479.333333333 1063 500 c 128
 1055 520.666666667 1041.83333333 541.166666667 1023.5 561.5 c 128
 1005.16666667 581.833333333 983 599.333333333 957 614 c 0
 911 642 861.333333333 660 808 668 c 128
 754.666666667 676 691.666666667 680 619 680 c 2
 357 680 l 1
 357 164 l 1
 596 164 l 1
225 0 m 2
 188.333333333 0 170 15.6666666667 170 47 c 2
 170 1374 l 2
 170 1384.66666667 170.333333333 1393 171 1399 c 128
 171.666666667 1405 173.5 1411 176.5 1417 c 0
 182.166666667 1428.33333333 195.666666667 1434 217 1434 c 2
 674 1434 l 2
 716.666666667 1432.66666667 751.833333333 1431 779.5 1429 c 128
 807.166666667 1427 844.333333333 1422 891 1414 c 128
 937.666666667 1406 980.333333333 1392.66666667 1019 1374 c 128
 1057.66666667 1355.33333333 1091.83333333 1331.16666667 1121.5 1301.5 c 128
 1151.16666667 1271.83333333 1174.66666667 1236.16666667 1192 1194.5 c 128
 1209.33333333 1152.83333333 1218 1110.33333333 1218 1067 c 0
 1218 1047 1216.33333333 1027.5 1213 1008.5 c 128
 1209.66666667 989.5 1201.5 966.5 1188.5 939.5 c 128
 1175.5 912.5 1158.33333333 887.833333333 1137 865.5 c 128
 1115.66666667 843.166666667 1084.5 821.333333333 1043.5 800 c 128
 1002.5 778.666666667 954.333333333 762 899 750 c 1
 959 742.666666667 1012.16666667 729.166666667 1058.5 709.5 c 128
 1104.83333333 689.833333333 1141.33333333 667.833333333 1168 643.5 c 128
 1194.66666667 619.166666667 1216.66666667 591.833333333 1234 561.5 c 128
 1251.33333333 531.166666667 1263 503 1269 477 c 128
 1275 451 1278 424.333333333 1278 397 c 128
 1278 369.666666667 1275 342 1269 314 c 128
 1263 286 1252.5 255.666666667 1237.5 223 c 128
 1222.5 190.333333333 1199.16666667 159.333333333 1167.5 130 c 128
 1135.83333333 100.666666667 1097.66666667 75.6666666667 1053 55 c 0
 1005 33.6666666667 954.833333333 19.1666666667 902.5 11.5 c 128
 850.166666667 3.83333333333 787.666666667 0 715 0 c 2
 225 0 l 2
EndSplineSet
Fore
SplineSet
220 0 m 2xf4
 186.666666667 0 170 18.3333333333 170 55 c 2
 170 1379 l 2
 170 1415.66666667 186.666666667 1434 220 1434 c 2
 610 1434 l 2
 836.666666667 1434 989.333333333 1397.33333333 1068 1324 c 0
 1146.66666667 1250.66666667 1186 1162.33333333 1186 1059 c 256xf8
 1186 977 1153.33333333 907.5 1088 850.5 c 0
 1022.66666667 793.5 959.333333333 760 898 750 c 1
 898 747 l 1
 965.333333333 741 1040.5 707.5 1123.5 646.5 c 0
 1206.5 585.5 1248 502.666666667 1248 398 c 256
 1248 284.666666667 1206.16666667 190 1122.5 114 c 0
 1038.83333333 38 884.666666667 0 660 0 c 2
 220 0 l 2xf4
362 164 m 1
 628 164 l 2
 771.333333333 164 876.333333333 181.666666667 943 217 c 0
 1009.66666667 252.333333333 1043 314.666666667 1043 404 c 256xf4
 1043 486.666666667 1009.16666667 550.666666667 941.5 596 c 0
 873.833333333 641.333333333 769.333333333 664 628 664 c 2
 362 664 l 1
 362 164 l 1
362 808 m 1
 613 808 l 2
 724.333333333 808 815.166666667 831.833333333 885.5 879.5 c 0
 955.833333333 927.166666667 991 987 991 1059 c 256xf8
 991 1127.66666667 964.666666667 1180 912 1216 c 0
 859.333333333 1252 759.666666667 1270 613 1270 c 2
 362 1270 l 1
 362 808 l 1
EndSplineSet
Validated: 8912897
EndChar

StartChar: hyphen
Encoding: 45 45 89
Width: 680
Flags: W
HStem: 483 140<56 624>
VStem: 56 568<483 623>
LayerCount: 2
Fore
SplineSet
101 483 m 2
 71 483 56 494.666666667 56 518 c 2
 56 588 l 2
 56 611.333333333 71 623 101 623 c 2
 579 623 l 2
 609 623 624 611.333333333 624 588 c 2
 624 518 l 2
 624 494.666666667 609 483 579 483 c 2
 101 483 l 2
EndSplineSet
Validated: 524289
EndChar

StartChar: endash
Encoding: 8211 8211 90
Width: 1024
Flags: W
HStem: 488 130<36 988>
LayerCount: 2
Fore
SplineSet
81 488 m 2
 51 488 36 499.666666667 36 523 c 2
 36 583 l 2
 36 606.333333333 51 618 81 618 c 2
 943 618 l 2
 973 618 988 606.333333333 988 583 c 2
 988 523 l 2
 988 499.666666667 973 488 943 488 c 2
 81 488 l 2
EndSplineSet
Validated: 524289
EndChar

StartChar: C
Encoding: 67 67 91
Width: 1402
Flags: W
HStem: -30 156<548.436 969.729> 1308 156<548.436 971.435>
VStem: 92 205<418.898 1015.1>
LayerCount: 2
Back
SplineSet
92 719 m 256
 92 952.333333333 149.5 1134.83333333 264.5 1266.5 c 128
 379.5 1398.16666667 545.333333333 1464 762 1464 c 256
 978.666666667 1464 1144.5 1397.83333333 1259.5 1265.5 c 128
 1374.5 1133.16666667 1432 950.333333333 1432 717 c 256
 1432 483.666666667 1374.5 300.833333333 1259.5 168.5 c 128
 1144.5 36.1666666667 978.666666667 -30 762 -30 c 256
 545.333333333 -30 379.5 36.5 264.5 169.5 c 128
 149.5 302.5 92 485.666666667 92 719 c 256
297 717 m 256
 297 530.333333333 335.333333333 385.166666667 412 281.5 c 128
 488.666666667 177.833333333 605.333333333 126 762 126 c 256
 918.666666667 126 1035.33333333 177.833333333 1112 281.5 c 128
 1188.66666667 385.166666667 1227 530.333333333 1227 717 c 256
 1227 903.666666667 1188.66666667 1048.83333333 1112 1152.5 c 128
 1035.33333333 1256.16666667 918.666666667 1308 762 1308 c 256
 605.333333333 1308 488.666666667 1256.16666667 412 1152.5 c 128
 335.333333333 1048.83333333 297 903.666666667 297 717 c 256
EndSplineSet
Fore
SplineSet
92 717 m 256
 92 950.333333333 149.833333333 1133.16666667 265.5 1265.5 c 0
 381.166666667 1397.83333333 547.333333333 1464 764 1464 c 256
 890.666666667 1464 995.333333333 1442.5 1078 1399.5 c 0
 1160.66666667 1356.5 1220 1297.66666667 1256 1223 c 256
 1274.78 1184.09333333 1271.78 1157.42666667 1247 1143 c 258
 1168 1097 l 258
 1141.40666667 1081.52 1117.74 1094.18666667 1097 1135 c 256
 1075 1177 1039 1216.33333333 989 1253 c 0
 939 1289.66666667 867.333333333 1308 774 1308 c 256
 607.333333333 1308 486.166666667 1256.16666667 410.5 1152.5 c 0
 334.833333333 1048.83333333 297 903.666666667 297 717 c 256
 297 530.333333333 334.833333333 385.166666667 410.5 281.5 c 0
 486.166666667 177.833333333 607.333333333 126 774 126 c 256
 870 126 946.833333333 148 1004.5 192 c 24
 1062.16666667 236 1104 282 1130 330 c 256
 1150.72666667 368.777333333 1174.72666667 380.444 1202 365 c 258
 1285 318 l 258
 1309.16 304.318 1311.16 277.651333333 1291 238 c 256
 1251.66666667 161.333333333 1187.66666667 97.5 1099 46.5 c 24
 1010.33333333 -4.5 898.666666667 -30 764 -30 c 256
 547.333333333 -30 381.166666667 36.1666666667 265.5 168.5 c 0
 149.833333333 300.833333333 92 483.666666667 92 717 c 256
EndSplineSet
Validated: 524321
EndChar

StartChar: T
Encoding: 84 84 92
Width: 1240
Flags: W
HStem: 0 21G<557.333 682.667> 1262 172<36 524 716 1204>
VStem: 524 192<0.214844 1262>
LayerCount: 2
Back
SplineSet
76 1313 m 2
 76 1372 l 2
 76 1394.66666667 78.8333333333 1409.16666667 84.5 1415.5 c 128
 90.1666666667 1421.83333333 100.666666667 1426.33333333 116 1429 c 0
 118.666666667 1429.66666667 121 1430 123 1430 c 2
 1339 1430 l 2
 1369 1430 1387.5 1425.66666667 1394.5 1417 c 128
 1401.5 1408.33333333 1405 1390 1405 1362 c 2
 1405 1327 l 2
 1405 1302.33333333 1401.33333333 1286 1394 1278 c 128
 1386.66666667 1270 1370.66666667 1266 1346 1266 c 2
 836 1266 l 1
 836 61 l 2
 836 31.6666666667 830.333333333 13.3333333333 819 6 c 1
 817.666666667 6 816.166666667 5.66666666667 814.5 5 c 128
 812.833333333 4.33333333333 811.666666667 4 811 4 c 2
 805.666666667 1.33333333333 797.333333333 0 786 0 c 2
 711 0 l 2
 694.333333333 0 681.333333333 0.833333333333 672 2.5 c 128
 662.666666667 4.16666666667 656.166666667 8.66666666667 652.5 16 c 128
 648.833333333 23.3333333333 646.666666667 29.8333333333 646 35.5 c 128
 645.333333333 41.1666666667 645 52 645 68 c 2
 645 1266 l 1
 133 1266 l 2
 123 1266 114.666666667 1266.5 108 1267.5 c 128
 101.333333333 1268.5 95.8333333333 1271.16666667 91.5 1275.5 c 128
 87.1666666667 1279.83333333 84 1282.83333333 82 1284.5 c 128
 80 1286.16666667 78.5 1290.83333333 77.5 1298.5 c 128
 76.5 1306.16666667 76 1311 76 1313 c 2
EndSplineSet
Fore
SplineSet
91 1262 m 2
 54.3333333333 1262 36 1277 36 1307 c 2
 36 1389 l 2
 36 1419 54.3333333333 1434 91 1434 c 2
 1149 1434 l 2
 1185.66666667 1434 1204 1419 1204 1389 c 2
 1204 1307 l 2
 1204 1277 1185.66666667 1262 1149 1262 c 2
 716 1262 l 1
 716 55 l 2
 716 18.3333333333 699.333333333 0 666 0 c 2
 574 0 l 2
 540.666666667 0 524 18.3333333333 524 55 c 2
 524 1262 l 1
 91 1262 l 2
EndSplineSet
Validated: 524289
EndChar

StartChar: V
Encoding: 86 86 93
Width: 1338
Flags: W
HStem: 0 21G<584.667 753.333> 1414 20G<55.6667 193 1145 1282.33>
LayerCount: 2
Back
SplineSet
1276 1434 m 2
 1310.66666667 1434 1319.66666667 1412 1303 1368 c 2
 805 61 l 2
 789.666666667 20.3333333333 767.666666667 0 739 0 c 2
 599 0 l 2
 570.333333333 0 548.333333333 20.3333333333 533 61 c 2
 35 1368 l 2
 18.3333333333 1412 27.3333333333 1434 62 1434 c 2
 164 1434 l 2
 199.333333333 1434 223.333333333 1417.66666667 236 1385 c 2
 361 1054 l 1
 977 1054 l 1
 1102 1385 l 2
 1114.66666667 1417.66666667 1138.66666667 1434 1174 1434 c 2
 1276 1434 l 2
914 890 m 1
 424 890 l 1
 577 490 l 2
 591 452.666666667 604.833333333 411.333333333 618.5 366 c 128
 632.166666667 320.666666667 648.333333333 256.333333333 667 173 c 1
 671 173 l 1
 689.666666667 256.333333333 705.833333333 320.666666667 719.5 366 c 128
 733.166666667 411.333333333 747 452.666666667 761 490 c 2
 914 890 l 1
EndSplineSet
Fore
SplineSet
46 1368 m 18
 29.3333333333 1412 38.3333333333 1434 73 1434 c 2
 175 1434 l 2
 211 1434 235 1417.66666667 247 1385 c 10
 572 490 l 2
 586 450.666666667 603.5 397.833333333 624.5 331.5 c 0
 645.5 265.166666667 659.666666667 212.333333333 667 173 c 1
 671 173 l 1
 678.333333333 212.333333333 692.5 265.166666667 713.5 331.5 c 0
 734.5 397.833333333 752 450.666666667 766 490 c 2
 1091 1385 l 18
 1103 1417.66666667 1127 1434 1163 1434 c 2
 1265 1434 l 2
 1299.66666667 1434 1308.66666667 1412 1292 1368 c 10
 805 61 l 2
 789.666666667 20.3333333333 767.666666667 0 739 0 c 2
 599 0 l 2
 570.333333333 0 548.333333333 20.3333333333 533 61 c 2
 46 1368 l 18
EndSplineSet
Validated: 524321
EndChar

StartChar: A
Encoding: 65 65 94
Width: 1360
Flags: W
HStem: 0 21G<55.6667 192.667 1167.33 1304.33> 380 164<435 925> 1414 20G<595.667 764.333>
LayerCount: 2
Back
SplineSet
609 1373 m 6
 1107 66 l 1030
253 66 m 6
 751 1373 l 1030
46 66 m 6
 544 1373 l 1030
816 1373 m 6
 1314 66 l 1030
73 0 m 2
 38.3333333333 0 29.3333333333 22 46 66 c 2
 549 1373 l 2
 564.333333333 1413.66666667 586.333333333 1434 615 1434 c 2
 755 1434 l 2
 783.666666667 1434 805.666666667 1413.66666667 821 1373 c 2
 1324 66 l 2
 1340.66666667 22 1331.66666667 0 1297 0 c 2
 1195 0 l 2
 1159.66666667 0 1135.66666667 16.3333333333 1123 49 c 2
 997 380 l 1
 373 380 l 1
 247 49 l 2
 234.333333333 16.3333333333 210.333333333 0 175 0 c 2
 73 0 l 2
436 544 m 1
 934 544 l 1
 782 944 l 2
 772 971.333333333 755.5 1021.16666667 732.5 1093.5 c 128
 709.5 1165.83333333 694.333333333 1221.66666667 687 1261 c 1
 683 1261 l 1
 675.666666667 1221.66666667 660.5 1165.83333333 637.5 1093.5 c 128
 614.5 1021.16666667 598 971.333333333 588 944 c 2
 436 544 l 1
EndSplineSet
Fore
SplineSet
73 0 m 2
 38.3333333333 0 29.3333333333 22 46 66 c 2
 544 1373 l 2
 559.333333333 1413.66666667 581.333333333 1434 610 1434 c 2
 750 1434 l 2
 778.666666667 1434 800.666666667 1413.66666667 816 1373 c 2
 1314 66 l 2
 1330.66666667 22 1321.66666667 0 1287 0 c 2
 1185 0 l 2
 1149.66666667 0 1125.66666667 16.3333333333 1113 49 c 2
 988 380 l 1
 372 380 l 1
 247 49 l 2
 234.333333333 16.3333333333 210.333333333 0 175 0 c 2
 73 0 l 2
435 544 m 1
 925 544 l 1
 772 944 l 2
 758 981.333333333 744.166666667 1022.66666667 730.5 1068 c 0
 716.833333333 1113.33333333 700.666666667 1177.66666667 682 1261 c 1
 678 1261 l 1
 659.333333333 1177.66666667 643.166666667 1113.33333333 629.5 1068 c 0
 615.833333333 1022.66666667 602 981.333333333 588 944 c 2
 435 544 l 1
EndSplineSet
Validated: 524321
EndChar

StartChar: afii10029
Encoding: 1051 1051 98
Width: 1474
Flags: W
HStem: -30 157<57.228 294.668> 0 21G<1145.33 1270.67> 1270 164<600 1112>
VStem: 434 166<576.595 1270> 1112 192<0.214844 1270>
LayerCount: 2
Back
SplineSet
72 -23 m 256
 46 -14.3333333333 35.3333333333 1 40 23 c 2
 58 112 l 6
 63.3333333333 139.333333333 80.6666666667 147 110 135 c 260
 132.666666667 125.666666667 157 121 183 121 c 0
 290.333333333 121 359 208.833333333 389 384.5 c 128
 419 560.166666667 434 791 434 1077 c 2
 434 1379 l 2
 434 1415.66666667 450.666666667 1434 484 1434 c 2
 1274 1434 l 2
 1307.33333333 1434 1324 1415.66666667 1324 1379 c 2
 1324 55 l 2
 1324 18.3333333333 1307.33333333 0 1274 0 c 2
 1182 0 l 2
 1148.66666667 0 1132 18.3333333333 1132 55 c 2
 1132 1270 l 1
 596 1270 l 1
 596 1021 l 2
 596 600.333333333 565.5 319 504.5 177 c 128
 443.5 35 344 -36 206 -36 c 0
 143.333333333 -36 98.6666666667 -31.6666666667 72 -23 c 256
EndSplineSet
Fore
SplineSet
72 -17 m 256xb8
 46 -8.33333333333 35.3333333333 7 40 29 c 2
 57 112 l 2
 61.6666666667 136 79 143.666666667 109 135 c 256
 127.666666667 129.666666667 152.333333333 127 183 127 c 0xb8
 290.333333333 127 359 213.833333333 389 387.5 c 0
 419 561.166666667 434 791 434 1077 c 2
 434 1379 l 2
 434 1415.66666667 450.666666667 1434 484 1434 c 2
 1254 1434 l 2
 1287.33333333 1434 1304 1415.66666667 1304 1379 c 2
 1304 55 l 2
 1304 18.3333333333 1287.33333333 0 1254 0 c 2
 1162 0 l 2x78
 1128.66666667 0 1112 18.3333333333 1112 55 c 2
 1112 1270 l 1
 600 1270 l 1
 600 1021 l 2
 600 600.333333333 568.833333333 320 506.5 180 c 0
 444.166666667 40 344 -30 206 -30 c 0
 143.333333333 -30 98.6666666667 -25.6666666667 72 -17 c 256xb8
EndSplineSet
Validated: 8912897
EndChar

StartChar: afii10038
Encoding: 1060 1060 99
Width: 1752
Flags: W
HStem: -12 21G<813.333 938.667> 200 150<470.091 780 972 1281.91> 1110 150<470.091 780 972 1281.91> 1419 20G<813.333 938.667>
VStem: 92 205<514.771 945.229> 780 192<-11.7852 200 350 1110 1260 1438.79> 1455 205<514.771 945.229>
CounterMasks: 1 0e
LayerCount: 2
Fore
SplineSet
92 730 m 256
 92 916.666666667 147.833333333 1051.66666667 259.5 1135 c 0
 371.166666667 1218.33333333 520.333333333 1260 707 1260 c 2
 780 1260 l 1
 780 1384 l 2
 780 1420.66666667 796.666666667 1439 830 1439 c 2
 922 1439 l 2
 955.333333333 1439 972 1420.66666667 972 1384 c 2
 972 1260 l 1
 1045 1260 l 2
 1231.66666667 1260 1380.83333333 1218.33333333 1492.5 1135 c 0
 1604.16666667 1051.66666667 1660 916.666666667 1660 730 c 256
 1660 543.333333333 1604.16666667 408.333333333 1492.5 325 c 0
 1380.83333333 241.666666667 1231.66666667 200 1045 200 c 2
 972 200 l 1
 972 43 l 2
 972 6.33333333333 955.333333333 -12 922 -12 c 2
 830 -12 l 2
 796.666666667 -12 780 6.33333333333 780 43 c 2
 780 200 l 1
 707 200 l 2
 520.333333333 200 371.166666667 241.666666667 259.5 325 c 0
 147.833333333 408.333333333 92 543.333333333 92 730 c 256
297 730 m 256
 297 596.666666667 330.833333333 500 398.5 440 c 0
 466.166666667 380 576.666666667 350 730 350 c 2
 780 350 l 1
 780 1110 l 1
 730 1110 l 2
 576.666666667 1110 466.166666667 1080 398.5 1020 c 0
 330.833333333 960 297 863.333333333 297 730 c 256
972 350 m 1
 1022 350 l 2
 1175.33333333 350 1285.83333333 380 1353.5 440 c 0
 1421.16666667 500 1455 596.666666667 1455 730 c 256
 1455 863.333333333 1421.16666667 960 1353.5 1020 c 0
 1285.83333333 1080 1175.33333333 1110 1022 1110 c 2
 972 1110 l 1
 972 350 l 1
EndSplineSet
Validated: 524289
EndChar

StartChar: g
Encoding: 103 103 100
Width: 1119
Flags: W
HStem: -417 130<325.886 722.16> -17 130<396.785 685.731> 937 130<396.785 688.318> 1030 20G<836.125 947>
VStem: 85 186<266.624 783.376> 801 176<-206.563 132 222.317 827.683 925 1049.96>
LayerCount: 2
Fore
SplineSet
85 525 m 256xdc
 85 668.333333333 119.666666667 794.5 189 903.5 c 0
 258.333333333 1012.5 359.666666667 1067 493 1067 c 256xec
 569.666666667 1067 631 1054.33333333 677 1029 c 0
 723 1003.66666667 764.333333333 969 801 925 c 1
 803 925 l 1
 809 1005 l 2
 811.25 1035 824.25 1050 848 1050 c 2
 932 1050 l 2
 962 1050 977 1035 977 1005 c 2
 977 -8 l 2
 977 -136 947.5 -236.166666667 888.5 -308.5 c 0
 829.5 -380.833333333 713 -417 539 -417 c 256
 422.333333333 -417 335 -403.833333333 277 -377.5 c 24
 219 -351.166666667 177.666666667 -323.333333333 153 -294 c 256
 135.170666667 -272.208666667 134.170666667 -253.542 150 -238 c 2
 205 -184 l 2
 220.124666667 -169.15 241.458 -173.816666667 269 -198 c 256
 304.333333333 -230 338.333333333 -252.833333333 371 -266.5 c 0
 403.666666667 -280.166666667 460 -287 540 -287 c 256
 630.666666667 -287 696.833333333 -267.666666667 738.5 -229 c 0
 780.166666667 -190.333333333 801 -110.333333333 801 11 c 2
 801 71 l 2
 801 91.6666666667 801.666666667 112 803 132 c 1
 801 132 l 1
 766.333333333 86 725.5 49.6666666667 678.5 23 c 0
 631.5 -3.66666666667 569.666666667 -17 493 -17 c 256
 359.666666667 -17 258.333333333 37.5 189 146.5 c 0
 119.666666667 255.5 85 381.666666667 85 525 c 256xdc
271 525 m 256
 271 402.333333333 292.166666667 303 334.5 227 c 0
 376.833333333 151 448.666666667 113 550 113 c 256
 622 113 681.833333333 137.5 729.5 186.5 c 0
 777.166666667 235.5 801 310 801 410 c 2
 801 640 l 2
 801 740 777.166666667 814.5 729.5 863.5 c 0
 681.833333333 912.5 622 937 550 937 c 256
 448.666666667 937 376.833333333 899 334.5 823 c 0
 292.166666667 747 271 647.666666667 271 525 c 256
EndSplineSet
Validated: 8912929
EndChar

StartChar: u
Encoding: 117 117 101
Width: 1120
Flags: W
HStem: -17 130<393.36 678.909> 0 21G<834 948> 1030 20G<170 286 832 948>
VStem: 140 176<189.639 1050> 802 176<0.0439453 125 223.447 1050>
LayerCount: 2
Back
SplineSet
477 -17 m 256
 252.333333333 -17 140 110.666666667 140 366 c 2
 140 1005 l 2
 140 1035 155 1050 185 1050 c 2
 271 1050 l 2
 301 1050 316 1035 316 1005 c 2
 316 414 l 2
 316 283.333333333 337.666666667 200.5 381 165.5 c 128
 424.333333333 130.5 478 113 542 113 c 256
 626 113 690.333333333 138.833333333 735 190.5 c 128
 779.666666667 242.166666667 802 330.666666667 802 456 c 2
 802 1005 l 2
 802 1035 817 1050 847 1050 c 2
 933 1050 l 2
 963 1050 978 1035 978 1005 c 2
 978 45 l 2
 978 15 963 0 933 0 c 2
 849 0 l 2
 819 0 804 15 804 45 c 2
 804 125 l 1
 800 125 l 1
 756.666666667 77 710 41.3333333333 660 18 c 128
 610 -5.33333333333 549 -17 477 -17 c 256
EndSplineSet
Fore
SplineSet
140 366 m 2xb8
 140 1005 l 2
 140 1035 155 1050 185 1050 c 2
 271 1050 l 2
 301 1050 316 1035 316 1005 c 2
 316 414 l 2
 316 283.333333333 337.666666667 200.5 381 165.5 c 0
 424.333333333 130.5 478 113 542 113 c 256xb8
 626 113 690.333333333 138.833333333 735 190.5 c 0
 779.666666667 242.166666667 802 330.666666667 802 456 c 2
 802 1005 l 2
 802 1035 817 1050 847 1050 c 2
 933 1050 l 2
 963 1050 978 1035 978 1005 c 2
 978 45 l 2
 978 15 963 0 933 0 c 2
 849 0 l 2x78
 819 0 804 15 804 45 c 2
 804 125 l 1
 800 125 l 1
 756.666666667 77 710 41.3333333333 660 18 c 0
 610 -5.33333333333 549 -17 477 -17 c 256
 360.333333333 -17 275 17.1666666667 221 85.5 c 0
 167 153.833333333 140 247.333333333 140 366 c 2xb8
EndSplineSet
Validated: 8912897
EndChar

StartChar: z
Encoding: 122 122 102
Width: 950
Flags: W
HStem: 0 132<252 895> 918 132<79 668>
LayerCount: 2
Back
SplineSet
280 166 m 2
 858 920 l 1033
90 166 m 2
 668 920 l 1033
EndSplineSet
Fore
SplineSet
100 0 m 2
 70 0 55 11.6666666667 55 35 c 2
 55 86 l 2
 55 108.976 66.6666666667 135.642666667 90 166 c 2
 668 918 l 9
 668 920 l 25
 648 918.666666667 628 918 608 918 c 2
 124 918 l 2
 94 918 79 929.666666667 79 953 c 2
 79 1015 l 2
 79 1038.33333333 94 1050 124 1050 c 2
 826 1050 l 2
 856 1050 871 1038.33333333 871 1015 c 2
 871 968 l 2
 871 948.126 858.666666667 922.126 834 890 c 2
 252 132 l 9
 252 130 l 17
 272 131.333333333 292 132 312 132 c 2
 850 132 l 2
 880 132 895 120.333333333 895 97 c 2
 895 35 l 2
 895 11.6666666667 880 0 850 0 c 2
 100 0 l 2
EndSplineSet
Validated: 524289
EndChar

StartChar: m
Encoding: 109 109 103
Width: 1678
Flags: W
HStem: 0 21G<172 288 782 898 1392 1508> 937 130<442.276 689.289 1056.96 1300.09> 1030 20G<172 286>
VStem: 142 176<4.5e-07 826.553 925 1049.96> 752 176<4.5e-07 816.396> 1362 176<4.5e-07 872.901>
CounterMasks: 1 1c
LayerCount: 2
Back
SplineSet
797 0 m 2
 767 0 752 15 752 45 c 2
 752 995 l 2
 752 1025 767 1040 797 1040 c 2
 881 1040 l 2
 911 1040 926 1025 926 995 c 2
 926 915 l 1
 930 915 l 1
 973.333333333 963 1020.33333333 998.666666667 1071 1022 c 128
 1121.66666667 1045.33333333 1170.33333333 1057 1217 1057 c 256
 1323 1057 1403 1022.83333333 1457 954.5 c 128
 1511 886.166666667 1538 792.666666667 1538 674 c 2
 1538 45 l 2
 1538 15 1523 0 1493 0 c 2
 1407 0 l 2
 1377 0 1362 15 1362 45 c 2
 1362 616 l 2
 1362 746.666666667 1345.66666667 831.166666667 1313 869.5 c 128
 1280.33333333 907.833333333 1230 927 1162 927 c 256
 1095.33333333 927 1039.66666667 901.166666667 995 849.5 c 128
 950.333333333 797.833333333 928 709.333333333 928 584 c 2
 928 45 l 2
 928 15 913 0 883 0 c 2
 797 0 l 2
187 0 m 2
 157 0 142 15 142 45 c 2
 142 995 l 2
 142 1025 157 1040 187 1040 c 2
 271 1040 l 2
 301 1040 316 1025 316 995 c 2
 316 915 l 1
 320 915 l 1
 363.333333333 963 410.333333333 998.666666667 461 1022 c 128
 511.666666667 1045.33333333 560.333333333 1057 607 1057 c 256
 713 1057 793 1022.83333333 847 954.5 c 128
 901 886.166666667 928 792.666666667 928 674 c 2
 928 45 l 2
 928 15 913 0 883 0 c 2
 797 0 l 2
 767 0 752 15 752 45 c 2
 752 616 l 2
 752 746.666666667 735.666666667 831.166666667 703 869.5 c 128
 670.333333333 907.833333333 620 927 552 927 c 256
 485.333333333 927 429.666666667 901.166666667 385 849.5 c 128
 340.333333333 797.833333333 318 709.333333333 318 584 c 2
 318 45 l 2
 318 15 303 0 273 0 c 2
 187 0 l 2
EndSplineSet
Fore
SplineSet
187 0 m 2xdc
 157 0 142 15 142 45 c 2
 142 1005 l 2
 142 1035 157 1050 187 1050 c 2
 271 1050 l 2xbc
 301 1050 316 1035 316 1005 c 2
 316 925 l 1
 320 925 l 1
 363.333333333 973 410.333333333 1008.66666667 461 1032 c 0
 511.666666667 1055.33333333 560.333333333 1067 607 1067 c 256
 693 1067 759.166666667 1045.5 805.5 1002.5 c 0
 851.833333333 959.5 881.666666667 916.333333333 895 873 c 1
 899 873 l 1
 935.666666667 927.666666667 982 973.666666667 1038 1011 c 0
 1094 1048.33333333 1153.66666667 1067 1217 1067 c 256
 1323 1067 1403 1032.83333333 1457 964.5 c 0
 1511 896.166666667 1538 802.666666667 1538 684 c 2
 1538 45 l 2
 1538 15 1523 0 1493 0 c 2
 1407 0 l 2
 1377 0 1362 15 1362 45 c 2
 1362 626 l 2
 1362 756.666666667 1345.66666667 841.166666667 1313 879.5 c 0
 1280.33333333 917.833333333 1230 937 1162 937 c 256
 1095.33333333 937 1039.66666667 908.5 995 851.5 c 0
 950.333333333 794.5 928 708.666666667 928 594 c 2
 928 45 l 2
 928 15 913 0 883 0 c 2
 797 0 l 2
 767 0 752 15 752 45 c 2
 752 626 l 2
 752 756.666666667 735.666666667 841.166666667 703 879.5 c 0
 670.333333333 917.833333333 620 937 552 937 c 256
 485.333333333 937 429.666666667 911.166666667 385 859.5 c 0
 340.333333333 807.833333333 318 719.333333333 318 594 c 2
 318 45 l 2
 318 15 303 0 273 0 c 2
 187 0 l 2xdc
EndSplineSet
Validated: 8912897
EndChar

StartChar: afii10044
Encoding: 1066 1066 105
Width: 1720
Flags: W
HStem: 0 164<754 1296.39> 664 164<754 1296.39> 1270 164<36 562>
VStem: 562 192<164 664 828 1270> 1425 205<271.344 556.656>
LayerCount: 2
Fore
SplineSet
91 1270 m 6
 54.3333333333 1270 36 1285 36 1315 c 6
 36 1389 l 6
 36 1419 54.3333333333 1434 91 1434 c 6
 704 1434 l 6
 737.333333333 1434 754 1415.66666667 754 1379 c 2
 754 828 l 1
 1042 828 l 2
 1266.66666667 828 1420.83333333 790.666666667 1504.5 716 c 0
 1588.16666667 641.333333333 1630 540.666666667 1630 414 c 256
 1630 287.333333333 1588.16666667 186.666666667 1504.5 112 c 0
 1420.83333333 37.3333333333 1266.66666667 0 1042 0 c 2
 612 0 l 2
 578.666666667 0 562 18.3333333333 562 55 c 2
 562 1270 l 5
 91 1270 l 6
754 164 m 1
 1010 164 l 2
 1153.33333333 164 1258.33333333 183.166666667 1325 221.5 c 0
 1391.66666667 259.833333333 1425 324 1425 414 c 256
 1425 504 1391.66666667 568.166666667 1325 606.5 c 0
 1258.33333333 644.833333333 1153.33333333 664 1010 664 c 2
 754 664 l 1
 754 164 l 1
EndSplineSet
Validated: 524289
EndChar

StartChar: afii10043
Encoding: 1065 1065 106
Width: 2116
Flags: W
HStem: -370 21G<1912.67 2025.33> 0 164<362 924 1116 1678 1870 1886> 1414 20G<203.333 328.667 957.333 1082.67 1711.33 1836.67>
VStem: 170 192<164 1433.79> 924 192<164 1433.79> 1678 192<164 1433.79> 1886 166<-370 0>
LayerCount: 2
Fore
SplineSet
220 0 m 2
 186.666666667 0 170 18.3333333333 170 55 c 2
 170 1379 l 2
 170 1415.66666667 186.666666667 1434 220 1434 c 2
 312 1434 l 2
 345.333333333 1434 362 1415.66666667 362 1379 c 2
 362 164 l 1
 924 164 l 1
 924 1379 l 2
 924 1415.66666667 940.666666667 1434 974 1434 c 2
 1066 1434 l 2
 1099.33333333 1434 1116 1415.66666667 1116 1379 c 2
 1116 164 l 1
 1678 164 l 1
 1678 1379 l 2
 1678 1415.66666667 1694.66666667 1434 1728 1434 c 2
 1820 1434 l 2
 1853.33333333 1434 1870 1415.66666667 1870 1379 c 2
 1870 164 l 1
 2002 164 l 2
 2035.33333333 164 2052 145.666666667 2052 109 c 2
 2052 -320 l 2
 2052 -353.333333333 2038.66666667 -370 2012 -370 c 2
 1926 -370 l 2
 1899.33333333 -370 1886 -353.333333333 1886 -320 c 2
 1886 0 l 1
 220 0 l 2
EndSplineSet
Validated: 524289
EndChar

StartChar: afii10048
Encoding: 1070 1070 107
Width: 2020
Flags: W
HStem: -30 156<1043.59 1472.86> 0 21G<203.333 328.667> 664 164<362 589> 1308 156<1043.92 1472.86> 1414 20G<203.333 328.667>
VStem: 170 192<0.214844 664 828 1433.79> 589 204<422.862 664 828 1017.19> 1723 205<418.898 1015.1>
LayerCount: 2
Back
SplineSet
588 719 m 260
 588 952.333333333 645.5 1134.83333333 760.5 1266.5 c 132
 875.5 1398.16666667 1041.33333333 1464 1258 1464 c 260
 1474.66666667 1464 1640.5 1397.83333333 1755.5 1265.5 c 132
 1870.5 1133.16666667 1928 950.333333333 1928 717 c 260
 1928 483.666666667 1870.5 300.833333333 1755.5 168.5 c 132
 1640.5 36.1666666667 1474.66666667 -30 1258 -30 c 260
 1041.33333333 -30 875.5 36.5 760.5 169.5 c 132
 645.5 302.5 588 485.666666667 588 719 c 260
793 719 m 260
 793 532.333333333 831.333333333 386.833333333 908 282.5 c 132
 984.666666667 178.166666667 1101.33333333 126 1258 126 c 260
 1414.66666667 126 1531.33333333 178.166666667 1608 282.5 c 132
 1684.66666667 386.833333333 1723 532.333333333 1723 719 c 260
 1723 905.666666667 1684.66666667 1050.5 1608 1153.5 c 132
 1531.33333333 1256.5 1414.66666667 1308 1258 1308 c 260
 1101.33333333 1308 984.666666667 1256.5 908 1153.5 c 132
 831.333333333 1050.5 793 905.666666667 793 719 c 260
704 664 m 1
 362 664 l 1
 362 55 l 2
 362 18.3333333333 345.333333333 0 312 0 c 2
 220 0 l 2
 186.666666667 0 170 18.3333333333 170 55 c 2
 170 1379 l 2
 170 1415.66666667 186.666666667 1434 220 1434 c 2
 312 1434 l 2
 345.333333333 1434 362 1415.66666667 362 1379 c 2
 362 828 l 1
 704 828 l 1
 704 664 l 1
EndSplineSet
Fore
SplineSet
220 0 m 2x67
 186.666666667 0 170 18.3333333333 170 55 c 2
 170 1379 l 2
 170 1415.66666667 186.666666667 1434 220 1434 c 2
 312 1434 l 2x6f
 345.333333333 1434 362 1415.66666667 362 1379 c 2
 362 828 l 1
 591 828 l 1
 605 1006.66666667 665.5 1157.33333333 772.5 1280 c 0
 879.5 1402.66666667 1041.33333333 1464 1258 1464 c 256
 1474.66666667 1464 1640.5 1397.83333333 1755.5 1265.5 c 0
 1870.5 1133.16666667 1928 950.333333333 1928 717 c 256
 1928 483.666666667 1870.5 300.833333333 1755.5 168.5 c 0
 1640.5 36.1666666667 1474.66666667 -30 1258 -30 c 256xb7
 1041.33333333 -30 877.833333333 33.8333333333 767.5 161.5 c 0
 657.166666667 289.166666667 597.666666667 456.666666667 589 664 c 1
 362 664 l 1
 362 55 l 2
 362 18.3333333333 345.333333333 0 312 0 c 2
 220 0 l 2x67
793 717 m 256
 793 530.333333333 831.333333333 385.166666667 908 281.5 c 0
 984.666666667 177.833333333 1101.33333333 126 1258 126 c 256
 1414.66666667 126 1531.33333333 177.833333333 1608 281.5 c 0
 1684.66666667 385.166666667 1723 530.333333333 1723 717 c 256
 1723 903.666666667 1684.66666667 1048.83333333 1608 1152.5 c 0
 1531.33333333 1256.16666667 1414.66666667 1308 1258 1308 c 256xb7
 1101.33333333 1308 984.666666667 1256.16666667 908 1152.5 c 0
 831.333333333 1048.83333333 793 903.666666667 793 717 c 256
EndSplineSet
Validated: 8912897
EndChar

StartChar: M
Encoding: 77 77 108
Width: 1708
Flags: W
HStem: 0 21G<203.333 328.667 783.667 924.333 1379.33 1504.67> 1414 20G<203.333 445.667 1262.33 1504.67>
VStem: 170 192<0.214844 1184> 1346 192<0.214844 1184>
LayerCount: 2
Fore
SplineSet
220 0 m 2
 186.666666667 0 170 18.3333333333 170 55 c 2
 170 1379 l 2
 170 1415.66666667 186.666666667 1434 220 1434 c 2
 433 1434 l 2
 458.333333333 1434 477.333333333 1414 490 1374 c 2
 776 477 l 2
 805.333333333 385 822.666666667 329.5 828 310.5 c 0
 833.333333333 291.5 841 256.666666667 851 206 c 1
 857 206 l 1
 867 256.666666667 874.666666667 291.5 880 310.5 c 0
 885.333333333 329.5 902.666666667 385 932 477 c 2
 1218 1374 l 2
 1230.66666667 1414 1249.66666667 1434 1275 1434 c 2
 1488 1434 l 2
 1521.33333333 1434 1538 1415.66666667 1538 1379 c 2
 1538 55 l 2
 1538 18.3333333333 1521.33333333 0 1488 0 c 2
 1396 0 l 2
 1362.66666667 0 1346 18.3333333333 1346 55 c 2
 1346 1104 l 2
 1346 1130.66666667 1346.66666667 1157.33333333 1348 1184 c 9
 1344 1184 l 25
 975 61 l 2
 961.666666667 20.3333333333 939.666666667 0 909 0 c 2
 799 0 l 2
 768.333333333 0 746.333333333 20.3333333333 733 61 c 2
 364 1184 l 25
 360 1184 l 17
 361.333333333 1157.33333333 362 1130.66666667 362 1104 c 2
 362 55 l 2
 362 18.3333333333 345.333333333 0 312 0 c 2
 220 0 l 2
EndSplineSet
Validated: 524289
EndChar

StartChar: Z
Encoding: 90 90 109
Width: 1216
Flags: W
HStem: 0 164<313 1151> 1270 164<97 881>
LayerCount: 2
Back
SplineSet
98 1362 m 1
 97 1382 l 2
 97 1416.66666667 111.333333333 1434 140 1434 c 2
 1091 1434 l 2
 1122.33333333 1434 1138 1425.66666667 1138 1409 c 1
 1140.66666667 1401 1142 1388.66666667 1142 1372 c 2
 1142 1343 l 2
 1142 1331 1139.33333333 1320 1134 1310 c 128
 1128.66666667 1300 1114.33333333 1279 1091 1247 c 2
 319 164 l 1
 1062 164 l 1
 1103 162 l 1
 1104 162 l 2
 1136 162 1152 149 1152 123 c 1
 1153.33333333 117.666666667 1154 108 1154 94 c 2
 1154 59 l 2
 1154 49 1153.16666667 40.3333333333 1151.5 33 c 128
 1149.83333333 25.6666666667 1147.83333333 20.3333333333 1145.5 17 c 128
 1143.16666667 13.6666666667 1140.5 10.8333333333 1137.5 8.5 c 0
 1133.64 5.5 1130.47333333 4 1128 4 c 2
 1120.66666667 1.33333333333 1109.66666667 0 1095 0 c 2
 126 0 l 2
 112.666666667 0 101.5 1.66666666667 92.5 5 c 128
 83.5 8.33333333333 77.6666666667 11.6666666667 75 15 c 128
 72.3333333333 18.3333333333 71 21.6666666667 71 25 c 2
 68.3333333333 33 67 45.6666666667 67 63 c 2
 66 88 l 2
 66 104 71.3333333333 121 82 139 c 0
 88 149 123.333333333 199.333333333 188 290 c 2
 245 369 l 1
 890 1274 l 1
 147 1274 l 2
 114.333333333 1274 98 1287.66666667 98 1315 c 2
 98 1362 l 1
EndSplineSet
Fore
SplineSet
120 0 m 2
 83.3333333333 0 65 15 65 45 c 2
 65 93 l 2
 65 125 75 154.666666667 95 182 c 2
 881 1268 l 9
 881 1272 l 25
 854.333333333 1270.66666667 827.666666667 1270 801 1270 c 2
 152 1270 l 2
 115.333333333 1270 97 1285 97 1315 c 2
 97 1389 l 2
 97 1419 115.333333333 1434 152 1434 c 2
 1074 1434 l 2
 1110.66666667 1434 1129 1419 1129 1389 c 2
 1129 1358 l 2
 1129 1336 1122.33333333 1315.66666667 1109 1297 c 2
 313 166 l 9
 313 162 l 17
 331 163.333333333 357.666666667 164 393 164 c 2
 1096 164 l 2
 1132.66666667 164 1151 149 1151 119 c 2
 1151 45 l 2
 1151 15 1132.66666667 0 1096 0 c 2
 120 0 l 2
EndSplineSet
Validated: 524289
EndChar

StartChar: afii10026
Encoding: 1048 1048 110
Width: 1452
Flags: W
HStem: 0 21G<203.333 372 1123.33 1248.67> 1414 20G<203.333 328.667 1080 1248.67>
VStem: 170 192<260 1433.79> 1090 192<0.214844 1174>
LayerCount: 2
Back
SplineSet
229 1434 m 2
 314 1434 l 2
 327.333333333 1434 337.333333333 1430.5 344 1423.5 c 128
 350.666666667 1416.5 354.333333333 1409.5 355 1402.5 c 128
 355.666666667 1395.5 356 1384 356 1368 c 2
 356 258 l 2
 356 202 356.666666667 159.666666667 358 131 c 1
 361.333333333 144.333333333 368 163.333333333 378 188 c 128
 388 212.666666667 401.333333333 241.666666667 418 275 c 2
 462 363 l 1
 509.5 454.5 l 2
 528.5 490.166666667 540.333333333 512.666666667 545 522 c 2
 1001 1368 l 2
 1017.66666667 1398 1031.16666667 1416.5 1041.5 1423.5 c 128
 1051.83333333 1430.5 1070.66666667 1434 1098 1434 c 2
 1159 1434 l 1
 1198 1435 l 1
 1217 1434 l 2
 1235.66666667 1434 1247.83333333 1429.66666667 1253.5 1421 c 128
 1259.16666667 1412.33333333 1262 1398.66666667 1262 1380 c 2
 1262 48 l 2
 1262 27.3333333333 1256.66666667 14.1666666667 1246 8.5 c 128
 1235.33333333 2.83333333333 1218 0 1194 0 c 2
 1145 0 l 2
 1127 0 1114 1.33333333333 1106 4 c 1
 1089.33333333 4 1081 24.6666666667 1081 66 c 2
 1081 1178 l 2
 1081 1234 1080.33333333 1275.66666667 1079 1303 c 1
 1073 1277 1062.83333333 1248.66666667 1048.5 1218 c 128
 1034.16666667 1187.33333333 983 1085 895 911 c 2
 502 182 l 1
 476 135.5 l 1
 438.5 67.5 l 2
 429.366666667 51.7062 420.533333333 38.2062 412 27 c 0
 407.333333333 20.3333333333 403.333333333 16.1666666667 400 14.5 c 128
 396.666666667 12.8333333333 392.833333333 10.5 388.5 7.5 c 128
 384.166666667 4.5 379.5 2.83333333333 374.5 2.5 c 128
 369.5 2.16666666667 364.5 1.66666666667 359.5 1 c 128
 354.5 0.333333333333 348 0 340 0 c 2
 221 0 l 2
 207.666666667 0 197.333333333 3.33333333333 190 10 c 128
 182.666666667 16.6666666667 178.5 23 177.5 29 c 128
 176.5 35 176 43 176 53 c 2
 176 1386 l 2
 176 1406 180.833333333 1419 190.5 1425 c 128
 200.166666667 1431 213 1434 229 1434 c 2
EndSplineSet
Fore
SplineSet
220 0 m 2
 186.666666667 0 170 18.3333333333 170 55 c 2
 170 1379 l 2
 170 1415.66666667 186.666666667 1434 220 1434 c 2
 312 1434 l 2
 345.333333333 1434 362 1415.66666667 362 1379 c 2
 362 340 l 2
 362 313.333333333 361.333333333 286.666666667 360 260 c 25
 364 260 l 17
 1004 1384 l 2
 1022.66666667 1417.33333333 1056 1434 1104 1434 c 2
 1232 1434 l 2
 1265.33333333 1434 1282 1415.66666667 1282 1379 c 2
 1282 55 l 2
 1282 18.3333333333 1265.33333333 0 1232 0 c 2
 1140 0 l 2
 1106.66666667 0 1090 18.3333333333 1090 55 c 2
 1090 1094 l 2
 1090 1120.66666667 1090.66666667 1147.33333333 1092 1174 c 9
 1088 1174 l 17
 448 50 l 2
 429.333333333 16.6666666667 396 0 348 0 c 2
 220 0 l 2
EndSplineSet
Validated: 524289
EndChar

StartChar: afii10049
Encoding: 1071 1071 111
Width: 1373
Flags: W
HStem: 0 21G<116.333 271.667 1044.33 1169.67> 613 164<735.229 1011> 1270 164<459.875 1011>
VStem: 161 205<887.146 1189.44> 1011 192<0.214844 613 777 1270>
LayerCount: 2
Back
SplineSet
138 0 m 2
 94.0111333333 0 88.0111333333 22 120 66 c 2
 381 425 l 6
 393.286666667 441.9 419.358333333 471.291666667 459.215 513.175 c 132
 499.071666667 555.058333333 548.666666667 596 608 636 c 5
 608 638 l 5
 484.666666667 650.666666667 379.333333333 688.5 292 751.5 c 128
 204.666666667 814.5 161 904.333333333 161 1021 c 256
 161 1162.33333333 204.166666667 1266.5 290.5 1333.5 c 128
 376.833333333 1400.5 516.333333333 1434 709 1434 c 2
 1153 1434 l 2
 1186.33333333 1434 1203 1415.66666667 1203 1379 c 2
 1203 55 l 2
 1203 18.3333333333 1186.33333333 0 1153 0 c 2
 1061 0 l 2
 1027.66666667 0 1011 18.3333333333 1011 55 c 2
 1011 613 l 1
 926 613 l 6
 842.666666667 613 774.708 591.118 722.124 547.354 c 132
 669.539333333 503.590666667 621.498 450.472666667 578 388 c 6
 335 39 l 2
 316.896666667 13 293.563333333 0 265 0 c 2
 138 0 l 2
366 1053 m 256
 366 943 401 869.5 471 832.5 c 128
 541 795.5 641 777 771 777 c 2
 1011 777 l 1
 1011 1270 l 1
 723 1270 l 2
 613 1270 526 1255.5 462 1226.5 c 128
 398 1197.5 366 1139.66666667 366 1053 c 256
320 1028 m 2
 320 953.648666667 338.5 898.982 375.5 864 c 0
 393.833333333 846.666666667 413.333333333 832.5 434 821.5 c 128
 454.666666667 810.5 480.333333333 802.333333333 511 797 c 128
 541.666666667 791.666666667 569.666666667 788.166666667 595 786.5 c 128
 620.333333333 784.833333333 650.333333333 784 685 784 c 2
 1013 784 l 1
 1013 1272 l 1
 630 1272 l 2
 605.333333333 1270.66666667 584.166666667 1269.33333333 566.5 1268 c 128
 548.833333333 1266.66666667 528.5 1263.83333333 505.5 1259.5 c 128
 482.5 1255.16666667 462.833333333 1249.83333333 446.5 1243.5 c 128
 430.166666667 1237.16666667 413.5 1228.16666667 396.5 1216.5 c 128
 379.5 1204.83333333 365.833333333 1191.33333333 355.5 1176 c 128
 345.166666667 1160.66666667 336.666666667 1141.5 330 1118.5 c 128
 323.333333333 1095.5 320 1069.66666667 320 1041 c 2
 320 1028 l 2
240 0 m 2
 146 0 l 2
 128.666666667 0 115.666666667 0.666666666667 107 2 c 1
 101 2 96 4 92 8 c 128
 88 12 86 16.3333333333 86 21 c 0
 86 31 93 43 107 57 c 2
 585 639 l 1
 535.666666667 644.333333333 498.666666667 649 474 653 c 0
 412 667 358 687.5 312 714.5 c 128
 266 741.5 231.5 769 208.5 797 c 128
 185.5 825 167.166666667 856.333333333 153.5 891 c 128
 139.833333333 925.666666667 131.666666667 953.5 129 974.5 c 128
 126.333333333 995.5 125 1016.33333333 125 1037 c 0
 125 1072.33333333 129.166666667 1106.66666667 137.5 1140 c 128
 145.833333333 1173.33333333 162.166666667 1208.33333333 186.5 1245 c 128
 210.833333333 1281.66666667 242.166666667 1313.5 280.5 1340.5 c 128
 318.833333333 1367.5 371.333333333 1389.83333333 438 1407.5 c 128
 504.666666667 1425.16666667 581 1434 667 1434 c 2
 1168 1434 l 1
 1169.33333333 1433.33333333 1172.83333333 1431.83333333 1178.5 1429.5 c 128
 1184.16666667 1427.16666667 1187.5 1425.33333333 1188.5 1424 c 128
 1189.5 1422.66666667 1191.5 1419.83333333 1194.5 1415.5 c 128
 1197.5 1411.16666667 1199.33333333 1405.5 1200 1398.5 c 128
 1200.66666667 1391.5 1201 1382.66666667 1201 1372 c 2
 1201 57 l 2
 1201 47.6666666667 1200.5 40.3333333333 1199.5 35 c 128
 1198.5 29.6666666667 1196.5 24 1193.5 18 c 0
 1187.5 6 1172.66666667 0 1149 0 c 2
 1049 0 l 1
 1025 4 1013 19.6666666667 1013 47 c 2
 1013 637 l 1
 769 637 l 1
 755.666666667 618.333333333 709.833333333 558.5 631.5 457.5 c 2
 406 168 l 1
 298 31 l 2
 288.666666667 19.6666666667 280 11.6666666667 272 7 c 128
 264 2.33333333333 253.333333333 0 240 0 c 2
EndSplineSet
Fore
SplineSet
138 0 m 2
 94.6666666667 0 88.6666666667 22 120 66 c 2
 373 425 l 2
 384.333333333 441 413.166666667 474.166666667 459.5 524.5 c 0
 505.833333333 574.833333333 549.333333333 612 590 636 c 1
 590 638 l 1
 477.333333333 651.333333333 377.666666667 689.333333333 291 752 c 0
 204.333333333 814.666666667 161 904.333333333 161 1021 c 256
 161 1162.33333333 204.166666667 1266.5 290.5 1333.5 c 0
 376.833333333 1400.5 516.333333333 1434 709 1434 c 2
 1153 1434 l 2
 1186.33333333 1434 1203 1415.66666667 1203 1379 c 2
 1203 55 l 2
 1203 18.3333333333 1186.33333333 0 1153 0 c 2
 1061 0 l 2
 1027.66666667 0 1011 18.3333333333 1011 55 c 2
 1011 613 l 1
 910 613 l 2
 823.333333333 613 753.833333333 590.666666667 701.5 546 c 0
 649.166666667 501.333333333 602.666666667 448.666666667 562 388 c 2
 327 39 l 2
 309.666666667 13 286.333333333 0 257 0 c 2
 138 0 l 2
366 1053 m 256
 366 943 401 869.5 471 832.5 c 0
 541 795.5 641 777 771 777 c 2
 1011 777 l 1
 1011 1270 l 1
 723 1270 l 2
 613 1270 526 1255.5 462 1226.5 c 0
 398 1197.5 366 1139.66666667 366 1053 c 256
EndSplineSet
Validated: 524321
EndChar

StartChar: S
Encoding: 83 83 112
Width: 1224
Flags: W
HStem: -30 156<403.475 809.326> 1307 157<427.608 799.778>
VStem: 150 192<949.584 1225.04> 913 203<222.591 502.697>
LayerCount: 2
Fore
SplineSet
141 108 m 256
 105.666666667 140 96.3333333333 168 113 192 c 2
 165 267 l 2
 183 293 212 291 252 261 c 256
 304.666666667 221.666666667 359.5 189.333333333 416.5 164 c 0
 473.5 138.666666667 542.666666667 126 624 126 c 256
 684 126 734.666666667 135 776 153 c 0
 817.333333333 171 850.5 196.833333333 875.5 230.5 c 0
 900.5 264.166666667 913 305 913 353 c 256
 913 387.666666667 907.833333333 419.833333333 897.5 449.5 c 0
 887.166666667 479.166666667 870.666666667 504 848 524 c 0
 825.333333333 544 801.666666667 559.666666667 777 571 c 256
 736.333333333 589.666666667 675.5 611.333333333 594.5 636 c 0
 513.5 660.666666667 442.666666667 687.333333333 382 716 c 256
 322 744.666666667 274.166666667 779.333333333 238.5 820 c 0
 202.833333333 860.666666667 179.166666667 902.5 167.5 945.5 c 0
 155.833333333 988.5 150 1037.66666667 150 1093 c 256
 150 1177.66666667 174.666666667 1250.66666667 224 1312 c 0
 273.333333333 1373.33333333 333.833333333 1414 405.5 1434 c 0
 477.166666667 1454 550 1464 624 1464 c 256
 708.666666667 1464 782.333333333 1453 845 1431 c 24
 907.666666667 1409 963.666666667 1380.33333333 1013 1345 c 256
 1047.66666667 1320.33333333 1055.66666667 1294.33333333 1037 1267 c 26
 986 1194 l 18
 970.666666667 1172 940.666666667 1176.66666667 896 1208 c 256
 862 1232 820.5 1254.5 771.5 1275.5 c 0
 722.5 1296.5 674 1307 626 1307 c 256
 564.666666667 1307 513.666666667 1299.83333333 473 1285.5 c 0
 432.333333333 1271.16666667 400.333333333 1247 377 1213 c 0
 353.666666667 1179 342 1139.66666667 342 1095 c 256
 342 1067 344.666666667 1041.16666667 350 1017.5 c 0
 355.333333333 993.833333333 369 969.666666667 391 945 c 0
 413 920.333333333 439.666666667 901.333333333 471 888 c 256
 513 870 578.166666667 848.833333333 666.5 824.5 c 0
 754.833333333 800.166666667 832 770.333333333 898 735 c 256
 959.333333333 702.333333333 1003.5 668.166666667 1030.5 632.5 c 0
 1057.5 596.833333333 1078.5 558.166666667 1093.5 516.5 c 0
 1108.5 474.833333333 1116 428 1116 376 c 256
 1116 281.333333333 1091.66666667 202.333333333 1043 139 c 0
 994.333333333 75.6666666667 936.666666667 31.6666666667 870 7 c 0
 803.333333333 -17.6666666667 719.666666667 -30 619 -30 c 256
 498.333333333 -30 398.333333333 -16 319 12 c 24
 239.666666667 40 180.333333333 72 141 108 c 256
EndSplineSet
Validated: 524321
EndChar

StartChar: afii10025
Encoding: 1047 1047 113
Width: 1281
Flags: W
HStem: -30 156<402.042 840.125> 675 158<420 803.402> 1308 156<405.364 832.946>
VStem: 923 195<950.345 1226.72> 966 205<238.546 575.343>
LayerCount: 2
Fore
SplineSet
128 148 m 256xe8
 100 181.333333333 94.6666666667 206.333333333 112 223 c 2
 184 292 l 2
 209.333333333 316 236.333333333 310 265 274 c 280
 270.333333333 267.333333333 302.833333333 241 362.5 195 c 0
 422.166666667 149 503.666666667 126 607 126 c 256
 720.333333333 126 808.5 146.833333333 871.5 188.5 c 0
 934.5 230.166666667 966 307.666666667 966 421 c 256xe8
 966 511 937 575.833333333 879 615.5 c 0
 821 655.166666667 746.333333333 675 655 675 c 2
 475 675 l 2
 438.333333333 675 420 689.333333333 420 718 c 2
 420 788 l 2
 420 818 438.333333333 833 475 833 c 2
 609 833 l 2
 717 833 796.333333333 859.166666667 847 911.5 c 0
 897.666666667 963.833333333 923 1024 923 1092 c 256
 923 1168 896.666666667 1223 844 1257 c 0
 791.333333333 1291 713.666666667 1308 611 1308 c 256
 543 1308 478.5 1295 417.5 1269 c 0
 356.5 1243 311.333333333 1214 282 1182 c 256
 253.333333333 1150.66666667 229.333333333 1145.66666667 210 1167 c 2
 145 1239 l 2
 123.666666667 1262.33333333 131.333333333 1290 168 1322 c 256
 222.666666667 1370 290.166666667 1405.66666667 370.5 1429 c 0
 450.833333333 1452.33333333 532.666666667 1464 616 1464 c 256
 799.333333333 1464 928.833333333 1427.5 1004.5 1354.5 c 0
 1080.16666667 1281.5 1118 1194 1118 1092 c 256xf0
 1118 1008 1093.16666667 938.166666667 1043.5 882.5 c 0
 993.833333333 826.833333333 928.333333333 788.333333333 847 767 c 1
 847 763 l 1
 932.333333333 755 1007.66666667 723.166666667 1073 667.5 c 0
 1138.33333333 611.833333333 1171 521.666666667 1171 397 c 256
 1171 258.333333333 1120.83333333 152.5 1020.5 79.5 c 0
 920.166666667 6.5 780 -30 600 -30 c 256
 476.666666667 -30 374.333333333 -8.83333333333 293 33.5 c 0
 211.666666667 75.8333333333 156.666666667 114 128 148 c 256xe8
EndSplineSet
Validated: 8912929
EndChar

StartChar: afii10021
Encoding: 1044 1044 114
Width: 1522
Flags: W
HStem: -370 534<54.5981 216.792 1292.16 1457.4> 0 164<386 1088 1280 1292> 1270 164<576 1088>
VStem: 54 166<-370 0> 410 166<602.48 1270> 1088 192<164 1270> 1292 166<-370 0>
LayerCount: 2
Back
SplineSet
48 -23 m 256
 22 -14.3333333333 11.3333333333 1 16 23 c 2
 34 112 l 2
 39.3333333333 139.333333333 56.6666666667 147 86 135 c 256
 108.666666667 125.666666667 133 121 159 121 c 0
 266.333333333 121 335 208.833333333 365 384.5 c 128
 395 560.166666667 410 791 410 1077 c 2
 410 1379 l 2
 410 1415.66666667 426.666666667 1434 460 1434 c 2
 1250 1434 l 2
 1283.33333333 1434 1300 1415.66666667 1300 1379 c 2
 1300 55 l 2
 1300 18.3333333333 1283.33333333 0 1250 0 c 2
 1158 0 l 2
 1124.66666667 0 1108 18.3333333333 1108 55 c 2
 1108 1270 l 1
 572 1270 l 1
 572 1021 l 2
 572 600.333333333 541.5 319 480.5 177 c 128
 419.5 35 320 -36 182 -36 c 0
 119.333333333 -36 74.6666666667 -31.6666666667 48 -23 c 256
EndSplineSet
Fore
SplineSet
94 -370 m 2xbe
 67.3333333333 -370 54 -353.333333333 54 -320 c 2
 54 109 l 2
 54 145.666666667 70.6666666667 164 104 164 c 2
 186 164 l 1xbe
 300 300.666666667 365.833333333 452 383.5 618 c 0
 401.166666667 784 410 947 410 1107 c 2
 410 1379 l 2
 410 1415.66666667 426.666666667 1434 460 1434 c 2
 1230 1434 l 2
 1263.33333333 1434 1280 1415.66666667 1280 1379 c 2
 1280 164 l 1x7e
 1408 164 l 2
 1441.33333333 164 1458 145.666666667 1458 109 c 2
 1458 -320 l 2
 1458 -353.333333333 1444.66666667 -370 1418 -370 c 2
 1332 -370 l 2xbe
 1305.33333333 -370 1292 -353.333333333 1292 -320 c 2
 1292 0 l 1
 220 0 l 1x7e
 220 -320 l 2
 220 -353.333333333 206.666666667 -370 180 -370 c 2
 94 -370 l 2xbe
386 164 m 1x7e
 1088 164 l 1
 1088 1270 l 1
 576 1270 l 1
 576 1051 l 2
 576 748.333333333 554.5 534 511.5 408 c 0
 468.5 282 426.666666667 200.666666667 386 164 c 1x7e
EndSplineSet
Validated: 8912897
EndChar

StartChar: afii10047
Encoding: 1069 1069 115
Width: 1406
Flags: W
HStem: -30 156<411.753 867.554> 668 164<382 1105> 1308 156<413.01 857.261>
VStem: 1109 205<396.743 668 832 1022.92>
LayerCount: 2
Back
SplineSet
1314 719 m 256
 1314 952.333333333 1256.16666667 1134.83333333 1140.5 1266.5 c 128
 1024.83333333 1398.16666667 858.666666667 1464 642 1464 c 256
 515.333333333 1464 410.666666667 1442.5 328 1399.5 c 128
 245.333333333 1356.5 186 1297.66666667 150 1223 c 256
 131.333333333 1184.33333333 134.333333333 1157.66666667 159 1143 c 258
 238 1097 l 258
 264.666666667 1081.66666667 288.333333333 1094.33333333 309 1135 c 256
 331 1177 367 1216.33333333 417 1253 c 128
 467 1289.66666667 538.666666667 1308 632 1308 c 256
 798.666666667 1308 919.833333333 1256.16666667 995.5 1152.5 c 128
 1071.16666667 1048.83333333 1109 903.666666667 1109 717 c 256
 1109 530.333333333 1071.16666667 385.166666667 995.5 281.5 c 128
 919.833333333 177.833333333 798.666666667 126 632 126 c 256
 536 126 459.166666667 148 401.5 192 c 152
 343.833333333 236 302 282 276 330 c 256
 255.333333333 368.666666667 231.333333333 380.333333333 204 365 c 258
 121 318 l 258
 97 304 95 277.333333333 115 238 c 256
 154.333333333 161.333333333 218.333333333 97.5 307 46.5 c 152
 395.666666667 -4.5 507.333333333 -30 642 -30 c 256
 858.666666667 -30 1024.83333333 36.5 1140.5 169.5 c 128
 1256.16666667 302.5 1314 485.666666667 1314 719 c 256
1150 832 m 1
 1150 668 l 1
 437 668 l 2
 400.333333333 668 382 683 382 713 c 2
 382 787 l 2
 382 817 400.333333333 832 437 832 c 2
 1150 832 l 1
EndSplineSet
Fore
SplineSet
125 172 m 256
 95.6666666667 206 91.6666666667 231.333333333 113 248 c 258
 190 310 l 258
 212 328 237.333333333 320 266 286 c 256
 308 236.666666667 357 197.666666667 413 169 c 0
 469 140.333333333 542 126 632 126 c 256
 795.333333333 126 914.166666667 170.166666667 988.5 258.5 c 0
 1062.83333333 346.833333333 1103 483.333333333 1109 668 c 257
 437 668 l 2
 400.333333333 668 382 683 382 713 c 2
 382 787 l 2
 382 817 400.333333333 832 437 832 c 2
 1105 832 l 257
 1093 978 1050 1093.83333333 976 1179.5 c 0
 902 1265.16666667 783.333333333 1308 620 1308 c 256
 547.333333333 1308 481.333333333 1294.5 422 1267.5 c 0
 362.666666667 1240.5 319 1208 291 1170 c 256
 266.333333333 1136 243.333333333 1128.33333333 222 1147 c 258
 153 1206 l 258
 130.333333333 1226 134.333333333 1254.33333333 165 1291 c 256
 207 1340.33333333 267.166666667 1381.5 345.5 1414.5 c 0
 423.833333333 1447.5 522.666666667 1464 642 1464 c 256
 858.666666667 1464 1024.83333333 1403.5 1140.5 1282.5 c 0
 1256.16666667 1161.5 1314 973.666666667 1314 719 c 256
 1314 465.666666667 1256.16666667 277.5 1140.5 154.5 c 0
 1024.83333333 31.5 858.666666667 -30 642 -30 c 256
 513.333333333 -30 407.166666667 -10.5 323.5 28.5 c 0
 239.833333333 67.5 173.666666667 115.333333333 125 172 c 256
EndSplineSet
Validated: 524321
EndChar

StartChar: afii10037
Encoding: 1059 1059 120
Width: 1346
Flags: W
HStem: -30 157<253.549 560.191> 1414 20G<72.6667 210.667 1145.67 1283.33>
LayerCount: 2
Back
SplineSet
393 0 m 2
 373.863333333 -0.376986 358.863333333 0.956347333333 348 4 c 1
 340.666666667 8 335.333333333 17.6666666667 332 33 c 1
 332 113 l 2
 332 133 334.5 146.166666667 339.5 152.5 c 128
 344.5 158.833333333 355.666666667 162 373 162 c 0
 390.333333333 163.333333333 417 164 453 164 c 2
 485 164 l 2
 535.666666667 164 572.833333333 169.333333333 596.5 180 c 128
 620.166666667 190.666666667 642 210 662 238 c 1
 662 240 l 1
 660.666666667 242 606 345 498 549 c 2
 76 1346 l 2
 56.6666666667 1382.66666667 47 1404.33333333 47 1411 c 0
 47 1426.33333333 56.6666666667 1434 76 1434 c 2
 94 1435 l 1
 129 1434 l 1
 178 1434 l 2
 185.333333333 1434 191.5 1433.66666667 196.5 1433 c 128
 201.5 1432.33333333 206.333333333 1431.83333333 211 1431.5 c 128
 215.666666667 1431.16666667 220 1429.66666667 224 1427 c 128
 228 1424.33333333 231.5 1422.16666667 234.5 1420.5 c 128
 237.5 1418.83333333 241 1415.16666667 245 1409.5 c 128
 249 1403.83333333 252.333333333 1399.33333333 255 1396 c 128
 257.666666667 1392.66666667 261.5 1386.16666667 266.5 1376.5 c 2
 279 1353 l 1
 313 1286 l 1
 610 709 l 2
 690.666666667 545 737.333333333 432.333333333 750 371 c 1
 754.666666667 409.666666667 792.666666667 526.333333333 864 721 c 2
 1130 1386 l 2
 1139.33333333 1406.66666667 1148.16666667 1419.83333333 1156.5 1425.5 c 128
 1164.83333333 1431.16666667 1179.33333333 1434 1200 1434 c 2
 1315 1434 l 1
 1329.66666667 1430.66666667 1337 1421.66666667 1337 1407 c 0
 1337 1401 1318.66666667 1353.33333333 1282 1264 c 2
 1206 1079 l 1
 944 434 l 2
 898 323.333333333 858.333333333 242.666666667 825 192 c 0
 750.333333333 78 659.666666667 15.3333333333 553 4 c 0
 531 1.33333333333 497 0 451 0 c 2
 393 0 l 2
EndSplineSet
Fore
SplineSet
66 1368 m 22
 43.3333333333 1412 52.3333333333 1434 93 1434 c 2
 195 1434 l 2
 226.333333333 1434 250.333333333 1417.66666667 267 1385 c 10
 612 716 l 2
 632.666666667 675.333333333 653.833333333 631.333333333 675.5 584 c 0
 697.166666667 536.666666667 715.333333333 489 730 441 c 1
 734 441 l 1
 744.666666667 493 758.166666667 542.666666667 774.5 590 c 0
 790.833333333 637.333333333 808.666666667 684.666666667 828 732 c 2
 1091 1385 l 18
 1104.33333333 1417.66666667 1128.33333333 1434 1163 1434 c 2
 1265 1434 l 2
 1301.66666667 1434 1310.66666667 1412 1292 1368 c 10
 855 331 l 2
 804.333333333 210.333333333 751 120 695 60 c 0
 639 0 552.666666667 -30 436 -30 c 256
 349.333333333 -30 280 -15 228 15 c 256
 204.666666667 28.3333333333 197 45.3333333333 205 66 c 2
 238 150 l 2
 248.666666667 176.666666667 267 181.333333333 293 164 c 256
 329.666666667 139.333333333 369.666666667 127 413 127 c 256
 467 127 508.166666667 135.833333333 536.5 153.5 c 0
 564.833333333 171.166666667 588 194.666666667 606 224 c 2
 636 272 l 9
 66 1368 l 22
EndSplineSet
Validated: 524321
EndChar

StartChar: cyrBreve
Encoding: 63185 63185 122
Width: 1452
Flags: HMW
HStem: 1548 136<553.424 898.576>
VStem: 340 178<1783 1866.81> 934 178<1783 1866.81>
LayerCount: 2
Fore
SplineSet
340 1819 m 2
 337.333333333 1851 353.333333333 1867 388 1867 c 2
 469 1867 l 2
 497 1867 513.333333333 1851 518 1819 c 2
 523 1783 l 2
 527 1751.66666667 546.833333333 1727.33333333 582.5 1710 c 128
 618.166666667 1692.66666667 666 1684 726 1684 c 256
 786 1684 833.833333333 1692.66666667 869.5 1710 c 128
 905.166666667 1727.33333333 925 1751.66666667 929 1783 c 2
 934 1819 l 2
 938.666666667 1851 955 1867 983 1867 c 2
 1064 1867 l 2
 1098.66666667 1867 1114.66666667 1851 1112 1819 c 2
 1106 1749 l 2
 1100.66666667 1689.66666667 1060.16666667 1641.33333333 984.5 1604 c 128
 908.833333333 1566.66666667 822.666666667 1548 726 1548 c 256
 629.333333333 1548 543.166666667 1566.66666667 467.5 1604 c 128
 391.833333333 1641.33333333 351.333333333 1689.66666667 346 1749 c 2
 340 1819 l 2
EndSplineSet
Validated: 524321
EndChar

StartChar: dieresis
Encoding: 168 168 123
Width: 614
Flags: W
HStem: 1240 176<16 192 422 598>
VStem: 16 176<1240 1416> 422 176<1240 1416>
LayerCount: 2
Fore
SplineSet
61 1240 m 2
 31 1240 16 1255 16 1285 c 2
 16 1371 l 2
 16 1401 31 1416 61 1416 c 2
 147 1416 l 2
 177 1416 192 1401 192 1371 c 2
 192 1285 l 2
 192 1255 177 1240 147 1240 c 2
 61 1240 l 2
467 1240 m 2
 437 1240 422 1255 422 1285 c 2
 422 1371 l 2
 422 1401 437 1416 467 1416 c 2
 553 1416 l 2
 583 1416 598 1401 598 1371 c 2
 598 1285 l 2
 598 1255 583 1240 553 1240 c 2
 467 1240 l 2
EndSplineSet
Validated: 1
EndChar

StartChar: dieresis.cap
Encoding: 63179 63179 125
Width: 820
Flags: W
HStem: 1550 182<80 262 558 740>
VStem: 80 182<1550 1732> 558 182<1550 1732>
LayerCount: 2
Fore
SplineSet
125 1550 m 2
 95 1550 80 1565 80 1595 c 2
 80 1687 l 2
 80 1717 95 1732 125 1732 c 2
 217 1732 l 2
 247 1732 262 1717 262 1687 c 2
 262 1595 l 2
 262 1565 247 1550 217 1550 c 2
 125 1550 l 2
603 1550 m 2
 573 1550 558 1565 558 1595 c 2
 558 1687 l 2
 558 1717 573 1732 603 1732 c 2
 695 1732 l 2
 725 1732 740 1717 740 1687 c 2
 740 1595 l 2
 740 1565 725 1550 695 1550 c 2
 603 1550 l 2
EndSplineSet
Validated: 1
EndChar

StartChar: r
Encoding: 114 114 129
Width: 722
Flags: W
HStem: 0 21G<172 288> 937 130<453.92 689.422> 1030 20G<172 286>
VStem: 142 176<4.5e-07 777.845 885 1049.96>
LayerCount: 2
Back
SplineSet
747 874.5 m 128
 703.666666667 909.5 648.666666667 927 582 927 c 256
 495.333333333 927 429.666666667 901.166666667 385 849.5 c 128
 340.333333333 797.833333333 318 709.333333333 318 584 c 2
 318 45 l 2
 318 15 303 0 273 0 c 2
 187 0 l 2
 157 0 142 15 142 45 c 2
 142 995 l 2
 142 1025 157 1040 187 1040 c 2
 271 1040 l 2
 301 1040 316 1025 316 995 c 2
 316 915 l 1
 320 915 l 1
 363.333333333 963 410 998.666666667 460 1022 c 128
 510 1045.33333333 572.333333333 1057 647 1057 c 256
 768.333333333 1057 855.5 1022.83333333 908.5 954.5 c 1152
677 1005 m 6
 676 967 l 5
 676 946 l 6
 676 935.333333333 673.666666667 927.166666667 669 921.5 c 132
 664.333333333 915.833333333 659.5 912.333333333 654.5 911 c 132
 649.5 909.666666667 641.666666667 908.333333333 631 907 c 6
 618 907 l 6
 570.666666667 900.333333333 527.5 882.166666667 488.5 852.5 c 132
 449.5 822.833333333 418 787 394 745 c 132
 370 703 351.5 658.666666667 338.5 612 c 132
 325.5 565.333333333 319 519.666666667 319 475 c 4
 317.666666667 454.333333333 317 423 317 381 c 6
 317 50 l 6
 317 40.6666666667 316.666666667 33.6666666667 316 29 c 132
 315.333333333 24.3333333333 313.166666667 19.3333333333 309.5 14 c 132
 305.833333333 8.66667333333 300.166666667 5.00000666667 292.5 3 c 132
 284.833333333 1.00000413259 274.666666667 4.13258666667e-06 262 0 c 6
 203 0 l 6
 175.666666667 0 158.5 4 151.5 12 c 132
 144.5 20 141 36.3333333333 141 61 c 6
 141 985 l 6
 141 1009 145.166666667 1024.33333333 153.5 1031 c 132
 161.833333333 1037.66666667 176.333333333 1041 197 1041 c 6
 223 1040 l 5
 272 1040 l 6
 284 1040 293.166666667 1036.5 299.5 1029.5 c 132
 305.833333333 1022.5 309.666666667 1015.16666667 311 1007.5 c 132
 312.333333333 999.833333333 313 989 313 975 c 6
 312 913 l 6
 312 909.666666667 312.166666667 904.666666667 312.5 898 c 132
 312.833333333 891.333333333 313 886.333333333 313 883 c 5
 352.333333333 934.333333333 400.833333333 976.166666667 458.5 1008.5 c 132
 516.166666667 1040.83333333 573 1057 629 1057 c 6
 631 1057.66666667 635 1058 641 1058 c 4
 664.333333333 1058 676 1046.66666667 676 1024 c 5
 676.666666667 1020 677 1013.66666667 677 1005 c 6
EndSplineSet
Fore
SplineSet
187 0 m 2xd0
 157 0 142 15 142 45 c 2
 142 1005 l 2
 142 1035 157 1050 187 1050 c 2
 271 1050 l 2xb0
 301 1050 316 1035 316 1005 c 2
 316 885 l 1
 320 885 l 1
 352 945 389.666666667 990.333333333 433 1021 c 0
 476.333333333 1051.66666667 530.333333333 1067 595 1067 c 256
 637.666666667 1067 667.666666667 1063.33333333 685 1056 c 256
 700.267333333 1050.02666667 705.934 1040.02666667 702 1026 c 2
 679 944 l 2
 675.636 932.006 666.969333333 927.339333333 653 930 c 256
 629.666666667 934.666666667 607.666666667 937 587 937 c 256
 509 937 444.666666667 901.833333333 394 831.5 c 0
 343.333333333 761.166666667 318 665.333333333 318 544 c 2
 318 45 l 2
 318 15 303 0 273 0 c 2
 187 0 l 2xd0
EndSplineSet
Validated: 8912897
EndChar

StartChar: F
Encoding: 70 70 130
Width: 1166
Flags: W
HStem: 0 21G<203.333 328.667> 632 164<362 1004> 1270 164<362 1090>
VStem: 170 192<0.214844 632 796 1270>
LayerCount: 2
Fore
SplineSet
220 0 m 2
 186.666666667 0 170 18.3333333333 170 55 c 2
 170 1379 l 2
 170 1415.66666667 186.666666667 1434 220 1434 c 2
 1035 1434 l 2
 1071.66666667 1434 1090 1419 1090 1389 c 2
 1090 1315 l 2
 1090 1285 1071.66666667 1270 1035 1270 c 2
 362 1270 l 9
 362 796 l 1
 949 796 l 2
 985.666666667 796 1004 781 1004 751 c 2
 1004 677 l 2
 1004 647 985.666666667 632 949 632 c 2
 362 632 l 1
 362 55 l 2
 362 18.3333333333 345.333333333 0 312 0 c 2
 220 0 l 2
EndSplineSet
Validated: 524289
EndChar

StartChar: w
Encoding: 119 119 133
Width: 1444
Flags: HMW
HStem: 0 21G<328 486 958 1116> 1030 20G<52 195 659.5 784.5 1249 1392>
DStem2: 390.5 260 293 61 0.255101 -0.966914<-641.245 93.2188> 432.5 253 521 61 0.254525 0.967066<-84.7947 672.231> 812 1011 753 722 0.254525 -0.967066<111.583 868.609> 1033 169 1151 61 0.255101 0.966914<0 748.001>
LayerCount: 2
Fore
SplineSet
45 1001 m 2
 36.3333333333 1033.66666667 45.3333333333 1050 72 1050 c 2
 177 1050 l 2
 201 1050 216 1037 222 1011 c 2
 369 351 l 2
 373.666666667 331.666666667 380.833333333 301.333333333 390.5 260 c 128
 400.166666667 218.666666667 407 188.333333333 411 169 c 1
 415 169 l 1
 418.333333333 187.666666667 424.166666667 215.666666667 432.5 253 c 152
 440.833333333 290.333333333 448.666666667 323 456 351 c 2
 632 1011 l 2
 638.666666667 1037 653.666666667 1050 677 1050 c 2
 767 1050 l 2
 790.333333333 1050 805.333333333 1037 812 1011 c 2
 988 351 l 2
 995.333333333 323 1003.16666667 290.333333333 1011.5 253 c 152
 1019.83333333 215.666666667 1025.66666667 187.666666667 1029 169 c 1
 1033 169 l 1
 1037 188.333333333 1043.83333333 218.666666667 1053.5 260 c 128
 1063.16666667 301.333333333 1070.33333333 331.666666667 1075 351 c 2
 1222 1011 l 2
 1228 1037 1243 1050 1267 1050 c 2
 1372 1050 l 2
 1398.66666667 1050 1407.66666667 1033.66666667 1399 1001 c 2
 1151 61 l 2
 1140.33333333 20.3333333333 1122.33333333 0 1097 0 c 2
 977 0 l 2
 951.666666667 0 933.666666667 20.3333333333 923 61 c 2
 753 722 l 2
 741 768.666666667 733.5 801.333333333 730.5 820 c 128
 727.5 838.666666667 725 856.333333333 723 873 c 1
 721 873 l 1
 719 856.333333333 716.5 838.666666667 713.5 820 c 128
 710.5 801.333333333 703 768.666666667 691 722 c 2
 521 61 l 2
 510.333333333 20.3333333333 492.333333333 0 467 0 c 2
 347 0 l 2
 321.666666667 0 303.666666667 20.3333333333 293 61 c 2
 45 1001 l 2
EndSplineSet
Validated: 524289
EndChar

StartChar: L
Encoding: 76 76 134
Width: 1136
Flags: W
HStem: 0 164<362 1080> 1414 20G<203.333 328.667>
VStem: 170 192<164 1433.79>
LayerCount: 2
Fore
SplineSet
220 0 m 2
 186.666666667 0 170 18.3333333333 170 55 c 2
 170 1379 l 2
 170 1415.66666667 186.666666667 1434 220 1434 c 2
 312 1434 l 2
 345.333333333 1434 362 1415.66666667 362 1379 c 2
 362 164 l 17
 1025 164 l 2
 1061.66666667 164 1080 149 1080 119 c 2
 1080 45 l 2
 1080 15 1061.66666667 0 1025 0 c 2
 220 0 l 2
EndSplineSet
Validated: 524289
EndChar

StartChar: D
Encoding: 68 68 135
Width: 1436
Flags: W
HStem: 0 164<362 880.806> 1272 162<362 880.806>
VStem: 170 192<164 1272> 1139 205<430.652 1006.93>
LayerCount: 2
Fore
SplineSet
220 0 m 2
 186.666666667 0 170 18.3333333333 170 55 c 2
 170 1379 l 2
 170 1415.66666667 186.666666667 1434 220 1434 c 2
 589 1434 l 2
 871.666666667 1434 1068.16666667 1371.5 1178.5 1246.5 c 0
 1288.83333333 1121.5 1344 945.666666667 1344 719 c 256
 1344 492.333333333 1288.83333333 315.833333333 1178.5 189.5 c 0
 1068.16666667 63.1666666667 871.666666667 0 589 0 c 10
 220 0 l 2
362 164 m 1
 580 164 l 2
 800 164 948.166666667 210.666666667 1024.5 304 c 0
 1100.83333333 397.333333333 1139 535.666666667 1139 719 c 256
 1139 902.333333333 1100.83333333 1040.33333333 1024.5 1133 c 0
 948.166666667 1225.66666667 800 1272 580 1272 c 2
 362 1272 l 1
 362 164 l 1
EndSplineSet
Validated: 524289
EndChar

StartChar: exclam
Encoding: 33 33 136
Width: 600
Flags: W
HStem: 0 212<199 401> 1414 20G<231.333 368.667>
VStem: 199 202<4.5e-07 212 749.541 1433.88> 219 162<390 1079.44>
LayerCount: 2
Fore
SplineSet
198 1379 m 2xd0
 198 1415.66666667 214.666666667 1434 248 1434 c 2
 352 1434 l 2
 385.333333333 1434 402 1415.66666667 402 1379 c 2
 381 435 l 2
 381 405 366 390 336 390 c 2
 264 390 l 2
 234 390 219 405 219 435 c 2
 198 1379 l 2xd0
244 0 m 2
 214 0 199 15 199 45 c 2
 199 167 l 2
 199 197 214 212 244 212 c 2
 356 212 l 2
 386 212 401 197 401 167 c 2
 401 45 l 2xe0
 401 15 386 0 356 0 c 2
 244 0 l 2
EndSplineSet
Validated: 8912897
EndChar

StartChar: one
Encoding: 49 49 137
Width: 827
Flags: W
HStem: 0 21G<481 597> 1420 20G<487 596.333>
VStem: 451 176<4.5e-07 1201>
LayerCount: 2
Fore
SplineSet
161 1151 m 2
 152.333333333 1172.33333333 160.333333333 1187.66666667 185 1197 c 256
 236.333333333 1216.33333333 285 1247.33333333 331 1290 c 0
 377 1332.66666667 413.333333333 1370.66666667 440 1404 c 256
 459.333333333 1428 478 1440 496 1440 c 2
 581 1440 l 2
 611.666666667 1440 627 1425 627 1395 c 2
 627 45 l 2
 627 15 612 0 582 0 c 2
 496 0 l 2
 466 0 451 15 451 45 c 2
 451 1141 l 2
 451 1161 451.666666667 1181 453 1201 c 1
 451 1201 l 1
 430.333333333 1175 400 1148.33333333 360 1121 c 0
 320 1093.66666667 283.333333333 1073.66666667 250 1061 c 256
 220.666666667 1049.66666667 201.333333333 1055 192 1077 c 258
 161 1151 l 2
EndSplineSet
Validated: 524289
EndChar

StartChar: one.tab
Encoding: 65536 -1 138
Width: 1110
Flags: W
HStem: 0 130<209 479 655 925> 1420 20G<515 624.333>
VStem: 479 176<130 1201>
LayerCount: 2
Back
SplineSet
184 1151 m 2
 175.333333333 1172.33333333 183.333333333 1187.66666667 208 1197 c 256
 259.333333333 1216.33333333 308 1247.33333333 354 1290 c 128
 400 1332.66666667 436.333333333 1370.66666667 463 1404 c 256
 482.333333333 1428 501 1440 519 1440 c 2
 604 1440 l 2
 634.666666667 1440 650 1425 650 1395 c 2
 650 45 l 2
 650 15 635 0 605 0 c 2
 519 0 l 2
 489 0 474 15 474 45 c 2
 474 1141 l 2
 474 1161 474.666666667 1181 476 1201 c 1
 474 1201 l 1
 453.333333333 1175 423 1148.33333333 383 1121 c 128
 343 1093.66666667 306.333333333 1073.66666667 273 1061 c 256
 243.666666667 1049.66666667 224.333333333 1055 215 1077 c 258
 184 1151 l 2
248 0 m 2
 218.666666667 0 204 11.6666666667 204 35 c 2
 204 95 l 2
 204 118.333333333 219 130 249 130 c 2
 875 130 l 2
 905 130 920 118.333333333 920 95 c 2
 920 35 l 2
 920 11.6666666667 905.333333333 0 876 0 c 2
 248 0 l 2
EndSplineSet
Fore
SplineSet
189 1151 m 258
 180.333333333 1172.33333333 188.333333333 1187.66666667 213 1197 c 256
 264.333333333 1216.33333333 312.833333333 1247.16666667 358.5 1289.5 c 0
 404.166666667 1331.83333333 440.666666667 1370 468 1404 c 256
 487.333333333 1428 506 1440 524 1440 c 2
 609 1440 l 2
 639.666666667 1440 655 1425 655 1395 c 2
 655 130 l 1
 880 130 l 2
 910 130 925 118.333333333 925 95 c 2
 925 35 l 2
 925 11.6666666667 910.333333333 0 881 0 c 2
 253 0 l 2
 223.666666667 0 209 11.6666666667 209 35 c 2
 209 95 l 2
 209 118.333333333 224 130 254 130 c 2
 479 130 l 1
 479 1141 l 2
 479 1161 479.666666667 1181 481 1201 c 1
 479 1201 l 1
 458.333333333 1175 428.166666667 1148.33333333 388.5 1121 c 0
 348.833333333 1093.66666667 312 1073.66666667 278 1061 c 256
 248.666666667 1049.66666667 229.333333333 1055 220 1077 c 258
 189 1151 l 258
EndSplineSet
Validated: 524289
EndChar

StartChar: U
Encoding: 85 85 139
Width: 1402
Flags: W
HStem: -30 156<495.466 906.534> 1414 20G<203.333 328.667 1073.33 1198.67>
VStem: 170 192<269.811 1433.79> 1040 192<269.811 1433.79>
LayerCount: 2
Fore
SplineSet
170 547 m 2
 170 1379 l 2
 170 1415.66666667 186.666666667 1434 220 1434 c 2
 312 1434 l 2
 345.333333333 1434 362 1415.66666667 362 1379 c 2
 362 577 l 2
 362 390.333333333 388.5 268.5 441.5 211.5 c 0
 494.5 154.5 581 126 701 126 c 256
 821 126 907.5 154.5 960.5 211.5 c 0
 1013.5 268.5 1040 390.333333333 1040 577 c 2
 1040 1379 l 2
 1040 1415.66666667 1056.66666667 1434 1090 1434 c 2
 1182 1434 l 2
 1215.33333333 1434 1232 1415.66666667 1232 1379 c 2
 1232 547 l 2
 1232 335.666666667 1183.5 186.666666667 1086.5 100 c 0
 989.5 13.3333333333 861 -30 701 -30 c 256
 541 -30 412.5 13.3333333333 315.5 100 c 0
 218.5 186.666666667 170 335.666666667 170 547 c 2
EndSplineSet
Validated: 524289
EndChar

StartChar: N
Encoding: 78 78 140
Width: 1438
Flags: W
HStem: 0 21G<203.333 328.667 1106.67 1234.67> 1414 20G<203.333 371.333 1109.33 1234.67>
VStem: 170 192<0.214844 1163> 1076 192<335 1433.79>
LayerCount: 2
Back
SplineSet
376 1144 m 2
 1002 95 l 1033
448 1384 m 2
 1074 335 l 1033
EndSplineSet
Fore
SplineSet
220 0 m 2
 186.666666667 0 170 18.3333333333 170 55 c 2
 170 1379 l 2
 170 1415.66666667 186.666666667 1434 220 1434 c 2
 348 1434 l 2
 394.666666667 1434 428 1417.33333333 448 1384 c 2
 1074 335 l 9
 1078 335 l 17
 1076.66666667 361.666666667 1076 388.333333333 1076 415 c 2
 1076 1379 l 2
 1076 1415.66666667 1092.66666667 1434 1126 1434 c 2
 1218 1434 l 2
 1251.33333333 1434 1268 1415.66666667 1268 1379 c 2
 1268 55 l 2
 1268 18.3333333333 1251.33333333 0 1218 0 c 2
 1130 0 l 2
 1083.33333333 0 1050 16.6666666667 1030 50 c 2
 364 1163 l 9
 360 1163 l 25
 361.333333333 1136.33333333 362 1109.66666667 362 1083 c 2
 362 55 l 2
 362 18.3333333333 345.333333333 0 312 0 c 2
 220 0 l 2
EndSplineSet
Validated: 524289
EndChar

StartChar: G
Encoding: 71 71 141
Width: 1470
Flags: W
HStem: -30 156<559.038 1057.12> 510 164<806 1158> 1308 156<561.587 979.938>
VStem: 92 205<422.073 1004.35> 1158 192<202.11 510>
LayerCount: 2
Back
SplineSet
92 719 m 256
 92 952.333333333 149.833333333 1134.83333333 265.5 1266.5 c 128
 381.166666667 1398.16666667 547.333333333 1464 764 1464 c 256
 890.666666667 1464 995.333333333 1442.5 1078 1399.5 c 128
 1160.66666667 1356.5 1220 1297.66666667 1256 1223 c 256
 1274.66666667 1184.33333333 1271.66666667 1157.66666667 1247 1143 c 258
 1168 1097 l 258
 1141.33333333 1081.66666667 1117.66666667 1094.33333333 1097 1135 c 256
 1075 1177 1039 1216.33333333 989 1253 c 128
 939 1289.66666667 867.333333333 1308 774 1308 c 256
 607.333333333 1308 486.166666667 1256.16666667 410.5 1152.5 c 128
 334.833333333 1048.83333333 297 903.666666667 297 717 c 256
 297 530.333333333 334.833333333 385.166666667 410.5 281.5 c 128
 486.166666667 177.833333333 607.333333333 126 774 126 c 256
 870 126 946.833333333 148 1004.5 192 c 152
 1062.16666667 236 1104 282 1130 330 c 256
 1150.66666667 368.666666667 1174.66666667 380.333333333 1202 365 c 258
 1285 318 l 258
 1309 304 1311 277.333333333 1291 238 c 256
 1251.66666667 161.333333333 1187.66666667 97.5 1099 46.5 c 152
 1010.33333333 -4.5 898.666666667 -30 764 -30 c 256
 547.333333333 -30 381.166666667 36.5 265.5 169.5 c 128
 149.833333333 302.5 92 485.666666667 92 719 c 256
EndSplineSet
Fore
SplineSet
92 717 m 256
 92 950.333333333 152.333333333 1133.16666667 273 1265.5 c 0
 393.666666667 1397.83333333 561.333333333 1464 776 1464 c 256
 904.666666667 1464 1009.66666667 1441.83333333 1091 1397.5 c 0
 1172.33333333 1353.16666667 1232 1301 1270 1241 c 256
 1293.33333333 1203.66666667 1293 1176.66666667 1269 1160 c 2
 1194 1108 l 2
 1169.33333333 1090.66666667 1144.66666667 1101 1120 1139 c 256
 1100 1169 1062.33333333 1204.66666667 1007 1246 c 0
 951.666666667 1287.33333333 878 1308 786 1308 c 256
 622.666666667 1308 500.333333333 1256.16666667 419 1152.5 c 0
 337.666666667 1048.83333333 297 903.666666667 297 717 c 256
 297 530.333333333 336.666666667 385.166666667 416 281.5 c 0
 495.333333333 177.833333333 622 126 796 126 c 256
 882.666666667 126 958.166666667 136.5 1022.5 157.5 c 24
 1086.83333333 178.5 1132 207.666666667 1158 245 c 9
 1158 510 l 1
 861 510 l 2
 824.333333333 510 806 525 806 555 c 2
 806 629 l 2
 806 659 824.333333333 674 861 674 c 2
 1295 674 l 2
 1331.66666667 674 1350 659 1350 629 c 2
 1350 157 l 17
 1268.66666667 97.6666666667 1187.33333333 51.6666666667 1106 19 c 24
 1024.66666667 -13.6666666667 918 -30 786 -30 c 256
 566 -30 395.333333333 36.1666666667 274 168.5 c 0
 152.666666667 300.833333333 92 483.666666667 92 717 c 256
EndSplineSet
Validated: 524321
EndChar

StartChar: J
Encoding: 74 74 142
Width: 824
Flags: W
HStem: -30 156<158.253 419.071> 1414 20G<495.333 620.667>
VStem: 462 192<167.271 1433.79>
LayerCount: 2
Fore
SplineSet
67 29 m 256
 36.3333333333 45.6666666667 27 67.3333333333 39 94 c 2
 72 165 l 2
 86.6666666667 197 111 201.666666667 145 179 c 256
 199 143.666666667 253 126 307 126 c 256
 371.666666667 126 413.666666667 147.833333333 433 191.5 c 0
 452.333333333 235.166666667 462 297.333333333 462 378 c 2
 462 1379 l 2
 462 1415.66666667 478.666666667 1434 512 1434 c 2
 604 1434 l 2
 637.333333333 1434 654 1415.66666667 654 1379 c 2
 654 401 l 2
 654 269 633.333333333 164.166666667 592 86.5 c 0
 550.666666667 8.83333333333 454 -30 302 -30 c 256
 218.666666667 -30 140.333333333 -10.3333333333 67 29 c 256
EndSplineSet
Validated: 524321
EndChar

StartChar: K
Encoding: 75 75 143
Width: 1328
Flags: W
HStem: 0 21G<203.333 328.667 1113.33 1270.67> 1414 20G<203.333 328.667 1091.33 1250.67>
VStem: 170 192<0.214844 471 711 1433.79>
LayerCount: 2
Back
SplineSet
1068 26 m 10
 515 839 l 1049
1268 66 m 10
 715 879 l 1049
1030 1393 m 2
 155 499 l 1025
1241 1368 m 2
 366 474 l 1025
EndSplineSet
Fore
SplineSet
220 0 m 2
 186.666666667 0 170 18.3333333333 170 55 c 2
 170 1379 l 2
 170 1415.66666667 186.666666667 1434 220 1434 c 2
 312 1434 l 2
 345.333333333 1434 362 1415.66666667 362 1379 c 2
 362 791 l 2
 362 764.333333333 361.333333333 737.666666667 360 711 c 1
 364 711 l 1
 1032 1395 l 2
 1057.33333333 1421 1080.66666667 1434 1102 1434 c 2
 1223 1434 l 2
 1278.33333333 1434 1284.33333333 1412 1241 1368 c 2
 733 850 l 1
 1268 66 l 2
 1297.33333333 22 1291.33333333 0 1250 0 c 2
 1128 0 l 2
 1098.66666667 0 1075.33333333 13 1058 39 c 2
 601 714 l 1
 362 471 l 1
 362 55 l 2
 362 18.3333333333 345.333333333 0 312 0 c 2
 220 0 l 2
EndSplineSet
Validated: 524321
EndChar

StartChar: Q
Encoding: 81 81 144
Width: 1524
Flags: HMW
HStem: -377 140<955.712 1265.78> -26 152<551.062 679.851 867 977.82> 1308 156<547.141 976.859>
VStem: 92 205<420.648 1016.8> 1227 205<419.648 1015.91>
LayerCount: 2
Back
SplineSet
92 719 m 260
 92 952.333333333 149.5 1134.83333333 264.5 1266.5 c 132
 379.5 1398.16666667 545.333333333 1464 762 1464 c 260
 978.666666667 1464 1144.5 1397.83333333 1259.5 1265.5 c 132
 1374.5 1133.16666667 1432 950.333333333 1432 717 c 260
 1432 483.666666667 1374.5 300.833333333 1259.5 168.5 c 132
 1144.5 36.1666666667 978.666666667 -30 762 -30 c 260
 545.333333333 -30 379.5 36.5 264.5 169.5 c 132
 149.5 302.5 92 485.666666667 92 719 c 260
297 719 m 260
 297 532.333333333 335.333333333 386.833333333 412 282.5 c 132
 488.666666667 178.166666667 605.333333333 126 762 126 c 260
 918.666666667 126 1035.33333333 178.166666667 1112 282.5 c 132
 1188.66666667 386.833333333 1227 532.333333333 1227 719 c 260
 1227 905.666666667 1188.66666667 1050.5 1112 1153.5 c 132
 1035.33333333 1256.5 918.666666667 1308 762 1308 c 260
 605.333333333 1308 488.666666667 1256.5 412 1153.5 c 132
 335.333333333 1050.5 297 905.666666667 297 719 c 260
EndSplineSet
Fore
SplineSet
92 719 m 256
 92 952.333333333 149.5 1134.83333333 264.5 1266.5 c 128
 379.5 1398.16666667 545.333333333 1464 762 1464 c 256
 978.666666667 1464 1144.5 1397.83333333 1259.5 1265.5 c 128
 1374.5 1133.16666667 1432 950.333333333 1432 717 c 256
 1432 483.666666667 1374.66666667 300.666666667 1260 168 c 1
 1164 58 1033 -6 867 -24 c 1
 873.666666667 -88.6666666667 897.666666667 -140.333333333 939 -179 c 128
 980.333333333 -217.666666667 1039.33333333 -237 1116 -237 c 0
 1157.33333333 -237 1191 -233.666666667 1217 -227 c 256
 1243 -220.333333333 1257.66666667 -224 1261 -238 c 2
 1281 -326 l 2
 1284.33333333 -342 1276 -352.333333333 1256 -357 c 0
 1196.66666667 -370.333333333 1139.33333333 -377 1084 -377 c 0
 940.666666667 -377 838.166666667 -341.166666667 776.5 -269.5 c 128
 714.833333333 -197.833333333 681 -116.666666667 675 -26 c 1
 500.333333333 -10 363.333333333 55.3333333333 264 170 c 0
 149.333333333 302.666666667 92 485.666666667 92 719 c 256
297 717 m 256
 297 530.333333333 335.333333333 385.166666667 412 281.5 c 128
 488.666666667 177.833333333 605.333333333 126 762 126 c 256
 918.666666667 126 1035.33333333 177.833333333 1112 281.5 c 128
 1188.66666667 385.166666667 1227 530.333333333 1227 717 c 256
 1227 903.666666667 1188.66666667 1048.83333333 1112 1152.5 c 128
 1035.33333333 1256.16666667 918.666666667 1308 762 1308 c 256
 605.333333333 1308 488.666666667 1256.16666667 412 1152.5 c 128
 335.333333333 1048.83333333 297 903.666666667 297 717 c 256
EndSplineSet
Validated: 524289
EndChar

StartChar: R
Encoding: 82 82 145
Width: 1394
Flags: W
HStem: 0 21G<203.333 328.667 1136.33 1285.67> 621 164<362 703.373> 1270 164<362 956.983>
VStem: 170 192<0.214844 621 785 1270> 1056 195<888.768 1186.61>
LayerCount: 2
Back
SplineSet
728 784 m 2
 765.333333333 784 798.666666667 785.666666667 828 789 c 128
 857.333333333 792.333333333 887 799.166666667 917 809.5 c 128
 947 819.833333333 971.833333333 833.666666667 991.5 851 c 128
 1011.16666667 868.333333333 1027.33333333 892 1040 922 c 128
 1052.66666667 952 1059 987.333333333 1059 1028 c 0
 1059 1101.33333333 1039 1158 999 1198 c 0
 966.333333333 1239.33333333 880.333333333 1264 741 1272 c 2
 367 1272 l 1
 367 784 l 1
 728 784 l 2
300 -1 m 1
 250 0 l 1
 231 0 l 2
 217.666666667 0 208.333333333 1.33333333333 203 4 c 2
 201.333333333 4 198.75 5.16666666667 195.25 7.5 c 128
 191.75 9.83333333333 188.833333333 12.5 186.5 15.5 c 128
 184.166666667 18.5 182.166666667 23.3333333333 180.5 30 c 128
 178.833333333 36.6666666667 178 44.3333333333 178 53 c 2
 178 1372 l 2
 178 1388 179.833333333 1400.83333333 183.5 1410.5 c 128
 187.166666667 1420.16666667 191 1426.16666667 195 1428.5 c 128
 199 1430.83333333 203 1432 207 1432 c 2
 211 1433.33333333 217 1434 225 1434 c 2
 713 1434 l 2
 805 1431.33333333 881.833333333 1422.66666667 943.5 1408 c 128
 1005.16666667 1393.33333333 1064 1364.33333333 1120 1321 c 0
 1162 1287 1194.66666667 1244.33333333 1218 1193 c 128
 1241.33333333 1141.66666667 1253 1088 1253 1032 c 0
 1253 1009.33333333 1251.16666667 986.666666667 1247.5 964 c 128
 1243.83333333 941.333333333 1234.66666667 913.666666667 1220 881 c 128
 1205.33333333 848.333333333 1185.66666667 819 1161 793 c 128
 1136.33333333 767 1100.5 742 1053.5 718 c 128
 1006.5 694 951.666666667 676.666666667 889 666 c 1
 1202 174 l 2
 1246 104 1271.83333333 62.5 1279.5 49.5 c 128
 1287.16666667 36.5 1291 26.8333333333 1291 20.5 c 128
 1291 14.1666666667 1288.5 9.5 1283.5 6.5 c 128
 1278.5 3.5 1274 2 1270 2 c 1
 1261.33333333 0.666666666667 1248.33333333 0 1231 0 c 2
 1169 0 l 2
 1155.88666667 0 1143.88666667 1.16666666667 1133 3.5 c 0
 1128.33333333 4.5 1123.83333333 7 1119.5 11 c 2
 1108.5 21 l 2
 1105.5 23.6666666667 1101.16666667 29.3333333333 1095.5 38 c 2
 1080.5 60.5 l 2
 1076.16666667 66.8333333333 1069.5 77.5 1060.5 92.5 c 2
 1036 133 l 1
 711 651 l 1
 367 651 l 1
 367 45 l 2
 367 14.3333333333 345.333333333 -1 302 -1 c 2
 300 -1 l 1
EndSplineSet
Fore
SplineSet
220 0 m 2
 186.666666667 0 170 18.3333333333 170 55 c 2
 170 1379 l 2
 170 1415.66666667 186.666666667 1434 220 1434 c 2
 703 1434 l 2
 895.666666667 1434 1035.16666667 1398 1121.5 1326 c 0
 1207.83333333 1254 1251 1159 1251 1041 c 256
 1251 937 1216.16666667 849.666666667 1146.5 779 c 0
 1076.83333333 708.333333333 977.666666667 667.666666667 849 657 c 1
 849 655 l 1
 917 604.333333333 962 565.833333333 984 539.5 c 0
 1006 513.166666667 1030.66666667 477.666666667 1058 433 c 2
 1284 66 l 2
 1311.33333333 22 1305.33333333 0 1266 0 c 2
 1152 0 l 2
 1120.66666667 0 1097.33333333 13 1082 39 c 2
 874 396 l 2
 844 447.333333333 801 497.666666667 745 547 c 0
 689 596.333333333 619.333333333 621 536 621 c 2
 362 621 l 1
 362 55 l 2
 362 18.3333333333 345.333333333 0 312 0 c 2
 220 0 l 2
362 785 m 1
 651 785 l 2
 781 785 881 802.166666667 951 836.5 c 0
 1021 870.833333333 1056 943 1056 1053 c 256
 1056 1137 1024 1194.16666667 960 1224.5 c 0
 896 1254.83333333 809 1270 699 1270 c 2
 362 1270 l 1
 362 785 l 1
EndSplineSet
Validated: 524321
EndChar

StartChar: Y
Encoding: 89 89 146
Width: 1302
Flags: HMW
HStem: 0 21G<580 722> 1414 20G<46 215 1087 1256>
VStem: 555 192<0.214844 590>
DStem2: 265 1385 54 1368 0.541413 -0.840757<-86.8111 631.237> 783 948 747 590 0.541413 0.840757<-69.7618 606.9>
LayerCount: 2
Fore
SplineSet
54 1368 m 22
 25.3333333333 1412 34.3333333333 1434 81 1434 c 6
 193 1434 l 6
 222.333333333 1434 246.333333333 1417.66666667 265 1385 c 14
 519 948 l 6
 547 900 571 858.166666667 591 822.5 c 132
 611 786.833333333 630.333333333 749 649 709 c 5
 653 709 l 5
 671.666666667 749 691 786.833333333 711 822.5 c 132
 731 858.166666667 755 900 783 948 c 6
 1037 1385 l 22
 1055.66666667 1417.66666667 1079.66666667 1434 1109 1434 c 6
 1221 1434 l 6
 1267.66666667 1434 1276.66666667 1412 1248 1368 c 14
 747 590 l 5
 747 55 l 2
 747 18.3333333333 730.333333333 0 697 0 c 2
 605 0 l 2
 571.666666667 0 555 18.3333333333 555 55 c 2
 555 590 l 5
 54 1368 l 22
EndSplineSet
Validated: 524321
EndChar

StartChar: W
Encoding: 87 87 147
Width: 1888
Flags: W
HStem: 0 21G<448 607.667 1280.33 1440> 1414 20G<60 206.667 858 1030 1681.33 1828>
VStem: 48 191<1326.22 1434> 1649 191<1326.22 1434>
LayerCount: 2
Fore
SplineSet
48 1374 m 2
 37.3333333333 1414 46 1434 74 1434 c 2
 196 1434 l 2
 217.333333333 1434 231.666666667 1418.66666667 239 1388 c 2
 462 427 l 2
 471.333333333 388.333333333 481.833333333 346.333333333 493.5 301 c 0
 505.166666667 255.666666667 515.333333333 213 524 173 c 1
 529 173 l 1
 535.666666667 212.333333333 543.5 251.333333333 552.5 290 c 24
 561.5 328.666666667 571.666666667 374 583 426 c 2
 811 1380 l 2
 819.666666667 1416 841 1434 875 1434 c 2
 1013 1434 l 2
 1047 1434 1068.33333333 1416 1077 1380 c 2
 1305 426 l 2
 1316.33333333 374 1326.5 328.666666667 1335.5 290 c 24
 1344.5 251.333333333 1352.33333333 212.333333333 1359 173 c 1
 1364 173 l 1
 1372.66666667 213 1382.83333333 255.666666667 1394.5 301 c 0
 1406.16666667 346.333333333 1416.66666667 388.333333333 1426 427 c 2
 1649 1388 l 2
 1656.33333333 1418.66666667 1670.66666667 1434 1692 1434 c 2
 1814 1434 l 2
 1842 1434 1850.66666667 1414 1840 1374 c 2
 1496 77 l 2
 1482.66666667 25.6666666667 1458 0 1422 0 c 2
 1297 0 l 2
 1263.66666667 0 1240 28 1226 84 c 2
 985 1043 l 2
 973 1091.66666667 964.333333333 1131.5 959 1162.5 c 0
 953.666666667 1193.5 949 1225.66666667 945 1259 c 1
 943 1259 l 1
 939 1225.66666667 934.333333333 1193.5 929 1162.5 c 0
 923.666666667 1131.5 915 1091.66666667 903 1043 c 2
 662 84 l 2
 648 28 624.333333333 0 591 0 c 2
 466 0 l 2
 430 0 405.333333333 25.6666666667 392 77 c 2
 48 1374 l 2
EndSplineSet
Validated: 524321
EndChar

StartChar: three
Encoding: 51 51 148
Width: 1110
Flags: W
HStem: -30 150<349.464 703.046> 696 142<387 655.649> 1302 150<361.578 691.411>
VStem: 770 188<948.922 1229.08> 818 196<236.923 583.258>
LayerCount: 2
Fore
SplineSet
109 148 m 256xe8
 82.3333333333 178.666666667 77 203.666666667 93 223 c 2
 145 286 l 2
 167.666666667 313.333333333 194.666666667 307.333333333 226 268 c 256
 260.666666667 224.666666667 303.5 189.166666667 354.5 161.5 c 0
 405.5 133.833333333 459 120 515 120 c 256
 625 120 703 147.333333333 749 202 c 0
 795 256.666666667 818 329.666666667 818 421 c 256xe8
 818 517.666666667 787.333333333 587.666666667 726 631 c 0
 664.666666667 674.333333333 596 696 520 696 c 2
 432 696 l 2
 402 696 387 707 387 729 c 2
 387 803 l 2
 387 826.333333333 402 838 432 838 c 2
 503 838 l 2
 576.333333333 838 639.166666667 862 691.5 910 c 0
 743.833333333 958 770 1023.33333333 770 1106 c 256
 770 1163.33333333 749 1210.33333333 707 1247 c 0
 665 1283.66666667 606 1302 530 1302 c 256
 458.666666667 1302 400.333333333 1285.66666667 355 1253 c 0
 309.666666667 1220.33333333 277.666666667 1192 259 1168 c 256
 234.333333333 1136 210.333333333 1131 187 1153 c 2
 128 1210 l 2
 110.666666667 1226.66666667 118.333333333 1254.33333333 151 1293 c 256
 185.666666667 1333.66666667 235.5 1370.33333333 300.5 1403 c 0
 365.5 1435.66666667 443 1452 533 1452 c 256
 671 1452 776.333333333 1418.66666667 849 1352 c 0
 921.666666667 1285.33333333 958 1199 958 1093 c 256xf0
 958 1009 932.166666667 938.833333333 880.5 882.5 c 0
 828.833333333 826.166666667 772.333333333 791.333333333 711 778 c 1
 711 774 l 1
 782.333333333 764 850.666666667 725.333333333 916 658 c 0
 981.333333333 590.666666667 1014 510.333333333 1014 417 c 256
 1014 278.333333333 973.833333333 169.166666667 893.5 89.5 c 0
 813.166666667 9.83333333333 685.666666667 -30 511 -30 c 256
 409.666666667 -30 326 -10.1666666667 260 29.5 c 0
 194 69.1666666667 143.666666667 108.666666667 109 148 c 256xe8
EndSplineSet
Validated: 8912929
EndChar

